<ttFont>
    <TTGlyph name=".notdef" xMin="100" yMin="-29" xMax="1329" yMax="1489">
      <contour>
        <pt x="766" y="621" on="1"/>
        <pt x="766" y="557" on="1"/>
        <pt x="635" y="557" on="1"/>
        <pt x="635" y="652" on="1"/>
        <pt x="635" y="676" on="0"/>
        <pt x="644" y="697" on="1"/>
        <pt x="652" y="715" on="0"/>
        <pt x="668" y="733" on="1"/>
        <pt x="680" y="747" on="0"/>
        <pt x="699" y="762" on="1"/>
        <pt x="725" y="783" on="0"/>
        <pt x="734" y="790" on="1"/>
        <pt x="749" y="801" on="0"/>
        <pt x="765" y="819" on="1"/>
        <pt x="779" y="835" on="0"/>
        <pt x="788" y="854" on="1"/>
        <pt x="798" y="876" on="0"/>
        <pt x="798" y="897" on="1"/>
        <pt x="798" y="925" on="0"/>
        <pt x="783" y="943" on="1"/>
        <pt x="769" y="960" on="0"/>
        <pt x="746" y="968" on="1"/>
        <pt x="726" y="975" on="0"/>
        <pt x="701" y="975" on="1"/>
        <pt x="663" y="975" on="0"/>
        <pt x="611" y="923" on="0"/>
        <pt x="608" y="885" on="1"/>
        <pt x="477" y="905" on="1"/>
        <pt x="486" y="988" on="0"/>
        <pt x="545" y="1041" on="1"/>
        <pt x="605" y="1095" on="0"/>
        <pt x="699" y="1095" on="1"/>
        <pt x="732" y="1095" on="0"/>
        <pt x="769" y="1087" on="1"/>
        <pt x="804" y="1079" on="0"/>
        <pt x="834" y="1063" on="1"/>
        <pt x="863" y="1047" on="0"/>
        <pt x="886" y="1024" on="1"/>
        <pt x="908" y="1002" on="0"/>
        <pt x="936" y="936" on="0"/>
        <pt x="936" y="899" on="1"/>
        <pt x="936" y="867" on="0"/>
        <pt x="926" y="832" on="1"/>
        <pt x="917" y="801" on="0"/>
        <pt x="902" y="780" on="1"/>
        <pt x="886" y="758" on="0"/>
        <pt x="869" y="742" on="1"/>
        <pt x="851" y="726" on="0"/>
        <pt x="815" y="698" on="0"/>
        <pt x="785" y="672" on="0"/>
        <pt x="776" y="655" on="1"/>
        <pt x="766" y="637" on="0"/>
      </contour>
      <contour>
        <pt x="622" y="425" on="1"/>
        <pt x="622" y="459" on="0"/>
        <pt x="645" y="482" on="1"/>
        <pt x="669" y="506" on="0"/>
        <pt x="735" y="506" on="0"/>
        <pt x="783" y="458" on="0"/>
        <pt x="783" y="425" on="1"/>
        <pt x="783" y="393" on="0"/>
        <pt x="735" y="345" on="0"/>
        <pt x="669" y="345" on="0"/>
        <pt x="645" y="369" on="1"/>
        <pt x="622" y="392" on="0"/>
      </contour>
      <contour>
        <pt x="1047" y="754" on="1"/>
        <pt x="1047" y="843" on="0"/>
        <pt x="1013" y="1013" on="0"/>
        <pt x="978" y="1086" on="1"/>
        <pt x="944" y="1158" on="0"/>
        <pt x="874" y="1204" on="1"/>
        <pt x="806" y="1249" on="0"/>
        <pt x="715" y="1249" on="1"/>
        <pt x="640" y="1249" on="0"/>
        <pt x="582" y="1219" on="1"/>
        <pt x="526" y="1190" on="0"/>
        <pt x="488" y="1140" on="1"/>
        <pt x="448" y="1087" on="0"/>
        <pt x="426" y="1026" on="1"/>
        <pt x="400" y="955" on="0"/>
        <pt x="392" y="893" on="1"/>
        <pt x="383" y="826" on="0"/>
        <pt x="383" y="754" on="1"/>
        <pt x="383" y="672" on="0"/>
        <pt x="393" y="602" on="1"/>
        <pt x="404" y="527" on="0"/>
        <pt x="427" y="457" on="1"/>
        <pt x="452" y="383" on="0"/>
        <pt x="488" y="332" on="1"/>
        <pt x="526" y="279" on="0"/>
        <pt x="642" y="213" on="0"/>
        <pt x="715" y="213" on="1"/>
        <pt x="790" y="213" on="0"/>
        <pt x="848" y="246" on="1"/>
        <pt x="905" y="278" on="0"/>
        <pt x="942" y="332" on="1"/>
        <pt x="982" y="390" on="0"/>
        <pt x="1004" y="457" on="1"/>
        <pt x="1030" y="534" on="0"/>
        <pt x="1038" y="602" on="1"/>
        <pt x="1047" y="675" on="0"/>
      </contour>
      <contour>
        <pt x="100" y="754" on="1"/>
        <pt x="100" y="852" on="0"/>
        <pt x="120" y="954" on="1"/>
        <pt x="139" y="1049" on="0"/>
        <pt x="187" y="1150" on="1"/>
        <pt x="232" y="1245" on="0"/>
        <pt x="303" y="1322" on="1"/>
        <pt x="372" y="1397" on="0"/>
        <pt x="478" y="1443" on="1"/>
        <pt x="583" y="1489" on="0"/>
        <pt x="847" y="1489" on="0"/>
        <pt x="952" y="1443" on="1"/>
        <pt x="1058" y="1397" on="0"/>
        <pt x="1127" y="1323" on="1"/>
        <pt x="1194" y="1252" on="0"/>
        <pt x="1290" y="1050" on="0"/>
        <pt x="1309" y="954" on="1"/>
        <pt x="1329" y="852" on="0"/>
        <pt x="1329" y="754" on="1"/>
        <pt x="1329" y="650" on="0"/>
        <pt x="1309" y="542" on="1"/>
        <pt x="1290" y="441" on="0"/>
        <pt x="1242" y="332" on="1"/>
        <pt x="1196" y="229" on="0"/>
        <pt x="1126" y="148" on="1"/>
        <pt x="1058" y="70" on="0"/>
        <pt x="951" y="20" on="1"/>
        <pt x="846" y="-29" on="0"/>
        <pt x="715" y="-29" on="1"/>
        <pt x="585" y="-29" on="0"/>
        <pt x="480" y="20" on="1"/>
        <pt x="371" y="71" on="0"/>
        <pt x="304" y="148" on="1"/>
        <pt x="234" y="229" on="0"/>
        <pt x="188" y="331" on="1"/>
        <pt x="141" y="436" on="0"/>
        <pt x="120" y="541" on="1"/>
        <pt x="100" y="642" on="0"/>
      </contour>
    </TTGlyph>
    <TTGlyph name="A" xMin="20" yMin="0" xMax="1377" yMax="1456">
      <contour>
        <pt x="700" y="1124" on="1"/>
        <pt x="526" y="621" on="1"/>
        <pt x="873" y="621" on="1"/>
      </contour>
      <contour>
        <pt x="854" y="1456" on="1"/>
        <pt x="1377" y="0" on="1"/>
        <pt x="1066" y="0" on="1"/>
        <pt x="930" y="382" on="1"/>
        <pt x="930" y="382" on="0"/>
        <pt x="467" y="382" on="1"/>
        <pt x="331" y="0" on="1"/>
        <pt x="20" y="0" on="1"/>
        <pt x="543" y="1456" on="1"/>
      </contour>
    </TTGlyph>
    <TTGlyph name="AE" xMin="10" yMin="0" xMax="1473" yMax="1456">
      <contour>
        <pt x="819" y="596" on="1"/>
        <pt x="541" y="596" on="1"/>
        <pt x="308" y="0" on="1"/>
        <pt x="10" y="0" on="1"/>
        <pt x="586" y="1456" on="1"/>
        <pt x="1473" y="1456" on="1"/>
        <pt x="1473" y="1203" on="1"/>
        <pt x="1085" y="1203" on="1"/>
        <pt x="1085" y="840" on="1"/>
        <pt x="1473" y="840" on="1"/>
        <pt x="1473" y="590" on="1"/>
        <pt x="1084" y="590" on="1"/>
        <pt x="1084" y="250" on="1"/>
        <pt x="1473" y="250" on="1"/>
        <pt x="1473" y="0" on="1"/>
        <pt x="819" y="0" on="1"/>
      </contour>
      <contour>
        <pt x="819" y="1286" on="1"/>
        <pt x="621" y="839" on="1"/>
        <pt x="819" y="839" on="1"/>
      </contour>
    </TTGlyph>
    <TTGlyph name="Aacute" xMin="20" yMin="0" xMax="1377" yMax="1945">
      <component glyphName="A" x="0" y="0" flags="0x1004"/>
      <component glyphName="acute" x="530" y="0" flags="0x1004"/>
    </TTGlyph>
    <TTGlyph name="Abreve" xMin="20" yMin="0" xMax="1377" yMax="1942">
      <component glyphName="breve" x="0" y="0" flags="0x1004"/>
      <component glyphName="A" x="0" y="0" flags="0x1004"/>
    </TTGlyph>
    <TTGlyph name="Acircumflex" xMin="20" yMin="0" xMax="1377" yMax="1904">
      <component glyphName="asciicircum" x="178" y="412" flags="0x1004"/>
      <component glyphName="A" x="0" y="0" flags="0x1004"/>
    </TTGlyph>
    <TTGlyph name="Adieresis" xMin="20" yMin="0" xMax="1377" yMax="1827">
      <component glyphName="dieresis" x="236" y="-94" flags="0x1004"/>
      <component glyphName="A" x="0" y="0" flags="0x1004"/>
    </TTGlyph>
    <TTGlyph name="Agrave" xMin="20" yMin="0" xMax="1377" yMax="1945">
      <component glyphName="A" x="0" y="0" flags="0x1004"/>
      <component glyphName="grave" x="345" y="0" flags="0x1004"/>
    </TTGlyph>
    <TTGlyph name="Alpha" xMin="47" yMin="0" xMax="1374" yMax="1456">
      <contour>
        <pt x="726" y="1048" on="1"/>
        <pt x="567" y="625" on="1"/>
        <pt x="867" y="625" on="1"/>
      </contour>
      <contour>
        <pt x="942" y="379" on="1"/>
        <pt x="494" y="379" on="1"/>
        <pt x="358" y="0" on="1"/>
        <pt x="47" y="0" on="1"/>
        <pt x="610" y="1456" on="1"/>
        <pt x="866" y="1456" on="1"/>
        <pt x="1374" y="0" on="1"/>
        <pt x="1067" y="0" on="1"/>
      </contour>
    </TTGlyph>
    <TTGlyph name="Alphatonos" xMin="47" yMin="0" xMax="1374" yMax="1599">
      <component glyphName="Alpha" x="0" y="0" flags="0x1004"/>
      <component glyphName="tonos" x="-288" y="0" flags="0x1004"/>
    </TTGlyph>
    <TTGlyph name="Amacron" xMin="20" yMin="0" xMax="1377" yMax="1813">
      <component glyphName="macron" x="236" y="0" flags="0x1004"/>
      <component glyphName="A" x="0" y="0" flags="0x1004"/>
    </TTGlyph>
    <TTGlyph name="Aogonek" xMin="-4" yMin="-344" xMax="1398" yMax="1456">
      <component glyphName="ogonek" x="984" y="0" flags="0x1004"/>
      <component glyphName="A" x="-24" y="0" flags="0x1004"/>
    </TTGlyph>
    <TTGlyph name="Aring" xMin="20" yMin="0" xMax="1377" yMax="2096">
      <component glyphName="degree" x="406" y="606" flags="0x1004"/>
      <component glyphName="A" x="0" y="0" flags="0x1004"/>
    </TTGlyph>
    <TTGlyph name="Atilde" xMin="20" yMin="0" xMax="1377" yMax="1917">
      <component glyphName="asciitilde" x="328" y="1006" flags="0x1004"/>
      <component glyphName="A" x="0" y="0" flags="0x1004"/>
    </TTGlyph>
    <TTGlyph name="B" xMin="115" yMin="0" xMax="1159" yMax="1456">
      <contour>
        <pt x="383" y="638" on="1"/>
        <pt x="383" y="240" on="1"/>
        <pt x="610" y="240" on="1"/>
        <pt x="891" y="240" on="0"/>
        <pt x="891" y="638" on="0"/>
        <pt x="610" y="638" on="1"/>
      </contour>
      <contour>
        <pt x="383" y="1216" on="1"/>
        <pt x="383" y="878" on="1"/>
        <pt x="551" y="878" on="1"/>
        <pt x="689" y="878" on="0"/>
        <pt x="807" y="975" on="0"/>
        <pt x="807" y="1045" on="1"/>
        <pt x="807" y="1116" on="0"/>
        <pt x="688" y="1216" on="0"/>
        <pt x="551" y="1216" on="1"/>
      </contour>
      <contour>
        <pt x="115" y="1456" on="1"/>
        <pt x="551" y="1456" on="1"/>
        <pt x="644" y="1456" on="0"/>
        <pt x="798" y="1428" on="0"/>
        <pt x="904" y="1383" on="0"/>
        <pt x="986" y="1318" on="0"/>
        <pt x="1034" y="1251" on="0"/>
        <pt x="1064" y="1172" on="0"/>
        <pt x="1075" y="1105" on="0"/>
        <pt x="1075" y="1070" on="1"/>
        <pt x="1075" y="961" on="0"/>
        <pt x="960" y="826" on="0"/>
        <pt x="866" y="797" on="1"/>
        <pt x="962" y="774" on="0"/>
        <pt x="1101" y="642" on="0"/>
        <pt x="1159" y="502" on="0"/>
        <pt x="1159" y="439" on="1"/>
        <pt x="1159" y="386" on="0"/>
        <pt x="1138" y="281" on="0"/>
        <pt x="1070" y="156" on="0"/>
        <pt x="962" y="63" on="0"/>
        <pt x="767" y="0" on="0"/>
        <pt x="640" y="0" on="1"/>
        <pt x="115" y="0" on="1"/>
      </contour>
    </TTGlyph>
    <TTGlyph name="Bdotaccent" xMin="115" yMin="0" xMax="1159" yMax="1921">
      <component glyphName="B" x="0" y="0" flags="0x1004"/>
      <component glyphName="dotaccent" x="136" y="0" flags="0x1004"/>
    </TTGlyph>
    <TTGlyph name="Beta" xMin="119" yMin="0" xMax="1163" yMax="1456">
      <contour>
        <pt x="387" y="639" on="1"/>
        <pt x="387" y="240" on="1"/>
        <pt x="614" y="240" on="1"/>
        <pt x="769" y="240" on="0"/>
        <pt x="899" y="356" on="0"/>
        <pt x="899" y="447" on="1"/>
        <pt x="899" y="639" on="0"/>
        <pt x="614" y="639" on="1"/>
      </contour>
      <contour>
        <pt x="387" y="1219" on="1"/>
        <pt x="387" y="877" on="1"/>
        <pt x="555" y="877" on="1"/>
        <pt x="692" y="877" on="0"/>
        <pt x="752" y="928" on="1"/>
        <pt x="811" y="978" on="0"/>
        <pt x="811" y="1120" on="0"/>
        <pt x="752" y="1169" on="1"/>
        <pt x="691" y="1219" on="0"/>
        <pt x="555" y="1219" on="1"/>
      </contour>
      <contour>
        <pt x="119" y="1456" on="1"/>
        <pt x="555" y="1456" on="1"/>
        <pt x="645" y="1456" on="0"/>
        <pt x="724" y="1442" on="1"/>
        <pt x="802" y="1428" on="0"/>
        <pt x="854" y="1406" on="1"/>
        <pt x="907" y="1383" on="0"/>
        <pt x="948" y="1350" on="1"/>
        <pt x="987" y="1318" on="0"/>
        <pt x="1012" y="1284" on="1"/>
        <pt x="1034" y="1254" on="0"/>
        <pt x="1050" y="1212" on="1"/>
        <pt x="1065" y="1172" on="0"/>
        <pt x="1070" y="1138" on="1"/>
        <pt x="1075" y="1101" on="0"/>
        <pt x="1075" y="1070" on="1"/>
        <pt x="1075" y="962" on="0"/>
        <pt x="1019" y="894" on="1"/>
        <pt x="963" y="825" on="0"/>
        <pt x="870" y="797" on="1"/>
        <pt x="967" y="774" on="0"/>
        <pt x="1036" y="708" on="1"/>
        <pt x="1106" y="641" on="0"/>
        <pt x="1134" y="572" on="1"/>
        <pt x="1163" y="500" on="0"/>
        <pt x="1163" y="439" on="1"/>
        <pt x="1163" y="389" on="0"/>
        <pt x="1152" y="334" on="1"/>
        <pt x="1141" y="278" on="0"/>
        <pt x="1108" y="218" on="1"/>
        <pt x="1075" y="157" on="0"/>
        <pt x="1020" y="110" on="1"/>
        <pt x="966" y="64" on="0"/>
        <pt x="868" y="32" on="1"/>
        <pt x="769" y="0" on="0"/>
        <pt x="644" y="0" on="1"/>
        <pt x="119" y="0" on="1"/>
      </contour>
    </TTGlyph>
    <TTGlyph name="C" xMin="100" yMin="-29" xMax="1297" yMax="1485">
      <contour>
        <pt x="1002" y="969" on="1"/>
        <pt x="988" y="1036" on="0"/>
        <pt x="916" y="1157" on="0"/>
        <pt x="790" y="1245" on="0"/>
        <pt x="715" y="1245" on="1"/>
        <pt x="641" y="1245" on="0"/>
        <pt x="525" y="1184" on="0"/>
        <pt x="451" y="1084" on="0"/>
        <pt x="403" y="946" on="0"/>
        <pt x="383" y="804" on="0"/>
        <pt x="383" y="726" on="1"/>
        <pt x="383" y="649" on="0"/>
        <pt x="403" y="508" on="0"/>
        <pt x="451" y="372" on="0"/>
        <pt x="525" y="272" on="0"/>
        <pt x="642" y="211" on="0"/>
        <pt x="715" y="211" on="1"/>
        <pt x="825" y="211" on="0"/>
        <pt x="979" y="377" on="0"/>
        <pt x="1002" y="483" on="1"/>
        <pt x="1296" y="483" on="1"/>
        <pt x="1287" y="412" on="0"/>
        <pt x="1229" y="269" on="0"/>
        <pt x="1128" y="136" on="0"/>
        <pt x="995" y="33" on="0"/>
        <pt x="815" y="-29" on="0"/>
        <pt x="715" y="-29" on="1"/>
        <pt x="585" y="-29" on="0"/>
        <pt x="373" y="64" on="0"/>
        <pt x="235" y="215" on="0"/>
        <pt x="141" y="415" on="0"/>
        <pt x="100" y="621" on="0"/>
        <pt x="100" y="726" on="1"/>
        <pt x="100" y="833" on="0"/>
        <pt x="141" y="1040" on="0"/>
        <pt x="235" y="1241" on="0"/>
        <pt x="373" y="1392" on="0"/>
        <pt x="585" y="1485" on="0"/>
        <pt x="715" y="1485" on="1"/>
        <pt x="816" y="1485" on="0"/>
        <pt x="996" y="1422" on="0"/>
        <pt x="1128" y="1318" on="0"/>
        <pt x="1230" y="1183" on="0"/>
        <pt x="1288" y="1040" on="0"/>
        <pt x="1297" y="969" on="1"/>
      </contour>
    </TTGlyph>
    <TTGlyph name="Cacute" xMin="100" yMin="-29" xMax="1297" yMax="1945">
      <component glyphName="acute" x="500" y="0" flags="0x1004"/>
      <component glyphName="C" x="0" y="0" flags="0x1004"/>
    </TTGlyph>
    <TTGlyph name="Ccaron" xMin="100" yMin="-29" xMax="1297" yMax="1906">
      <component glyphName="caron" x="0" y="0" flags="0x1004"/>
      <component glyphName="C" x="0" y="0" flags="0x1004"/>
    </TTGlyph>
    <TTGlyph name="Ccedilla" xMin="110" yMin="-474" xMax="1307" yMax="1485">
      <component glyphName="cedilla" x="446" y="-109" flags="0x1004"/>
      <component glyphName="C" x="10" y="0" flags="0x1004"/>
    </TTGlyph>
    <TTGlyph name="Ccircumflex" xMin="100" yMin="-29" xMax="1297" yMax="1906">
      <component glyphName="circumflex" x="0" y="0" flags="0x1004"/>
      <component glyphName="C" x="0" y="0" flags="0x1004"/>
    </TTGlyph>
    <TTGlyph name="Cdotaccent" xMin="100" yMin="-29" xMax="1297" yMax="1870">
      <component glyphName="dotaccent" x="255" y="-51" flags="0x1004"/>
      <component glyphName="C" x="0" y="0" flags="0x1004"/>
    </TTGlyph>
    <TTGlyph name="Chi" xMin="53" yMin="0" xMax="1225" yMax="1456">
      <contour>
        <pt x="59" y="1456" on="1"/>
        <pt x="368" y="1456" on="1"/>
        <pt x="637" y="955" on="1"/>
        <pt x="909" y="1456" on="1"/>
        <pt x="1219" y="1456" on="1"/>
        <pt x="795" y="727" on="1"/>
        <pt x="1225" y="0" on="1"/>
        <pt x="888" y="0" on="1"/>
        <pt x="637" y="460" on="1"/>
        <pt x="390" y="0" on="1"/>
        <pt x="53" y="0" on="1"/>
        <pt x="480" y="727" on="1"/>
      </contour>
    </TTGlyph>
    <TTGlyph name="D" xMin="115" yMin="0" xMax="1196" yMax="1456">
      <contour>
        <pt x="913" y="752" on="1"/>
        <pt x="913" y="956" on="0"/>
        <pt x="699" y="1217" on="0"/>
        <pt x="522" y="1217" on="1"/>
        <pt x="383" y="1217" on="1"/>
        <pt x="383" y="240" on="1"/>
        <pt x="522" y="240" on="1"/>
        <pt x="701" y="240" on="0"/>
        <pt x="913" y="519" on="0"/>
      </contour>
      <contour>
        <pt x="1196" y="752" on="1"/>
        <pt x="1196" y="539" on="0"/>
        <pt x="1042" y="196" on="0"/>
        <pt x="761" y="0" on="0"/>
        <pt x="582" y="0" on="1"/>
        <pt x="115" y="0" on="1"/>
        <pt x="115" y="1456" on="1"/>
        <pt x="582" y="1456" on="1"/>
        <pt x="763" y="1456" on="0"/>
        <pt x="1045" y="1266" on="0"/>
        <pt x="1196" y="946" on="0"/>
      </contour>
    </TTGlyph>
    <TTGlyph name="Dcaron" xMin="115" yMin="0" xMax="1196" yMax="1906">
      <component glyphName="caron" x="-114" y="0" flags="0x1004"/>
      <component glyphName="D" x="0" y="0" flags="0x1004"/>
    </TTGlyph>
    <TTGlyph name="Dcroat" xMin="135" yMin="0" xMax="1357" yMax="1456">
      <contour>
        <pt x="260" y="612" on="1"/>
        <pt x="135" y="612" on="1"/>
        <pt x="135" y="851" on="1"/>
        <pt x="260" y="851" on="1"/>
        <pt x="260" y="1456" on="1"/>
        <pt x="696" y="1456" on="1"/>
        <pt x="844" y="1456" on="0"/>
        <pt x="968" y="1399" on="1"/>
        <pt x="1094" y="1341" on="0"/>
        <pt x="1178" y="1244" on="1"/>
        <pt x="1261" y="1147" on="0"/>
        <pt x="1310" y="1012" on="1"/>
        <pt x="1357" y="881" on="0"/>
        <pt x="1357" y="727" on="1"/>
        <pt x="1357" y="578" on="0"/>
        <pt x="1308" y="442" on="1"/>
        <pt x="1260" y="308" on="0"/>
        <pt x="1174" y="210" on="1"/>
        <pt x="1089" y="113" on="0"/>
        <pt x="965" y="56" on="1"/>
        <pt x="843" y="0" on="0"/>
        <pt x="696" y="0" on="1"/>
        <pt x="471" y="0" on="1"/>
        <pt x="260" y="0" on="1"/>
      </contour>
      <contour>
        <pt x="528" y="612" on="1"/>
        <pt x="528" y="243" on="1"/>
        <pt x="696" y="243" on="1"/>
        <pt x="868" y="243" on="0"/>
        <pt x="1090" y="513" on="0"/>
        <pt x="1090" y="727" on="1"/>
        <pt x="1090" y="940" on="0"/>
        <pt x="978" y="1076" on="1"/>
        <pt x="867" y="1211" on="0"/>
        <pt x="696" y="1211" on="1"/>
        <pt x="527" y="1211" on="1"/>
        <pt x="527" y="851" on="1"/>
        <pt x="774" y="851" on="1"/>
        <pt x="774" y="612" on="1"/>
      </contour>
    </TTGlyph>
    <TTGlyph name="Ddotaccent" xMin="115" yMin="0" xMax="1196" yMax="1921">
      <component glyphName="D" x="0" y="0" flags="0x1004"/>
      <component glyphName="dotaccent" x="148" y="0" flags="0x1004"/>
    </TTGlyph>
    <TTGlyph name="Delta" xMin="108" yMin="0" xMax="1440" yMax="1456">
      <contour>
        <pt x="108" y="0" on="1"/>
        <pt x="641" y="1456" on="1"/>
        <pt x="911" y="1456" on="1"/>
        <pt x="1440" y="0" on="1"/>
      </contour>
      <contour>
        <pt x="507" y="240" on="1"/>
        <pt x="1049" y="240" on="1"/>
        <pt x="775" y="1032" on="1"/>
      </contour>
    </TTGlyph>
    <TTGlyph name="E" xMin="115" yMin="0" xMax="1097" yMax="1456">
      <contour>
        <pt x="115" y="1456" on="1"/>
        <pt x="1097" y="1456" on="1"/>
        <pt x="1097" y="1216" on="1"/>
        <pt x="383" y="1216" on="1"/>
        <pt x="383" y="866" on="1"/>
        <pt x="1034" y="866" on="1"/>
        <pt x="1034" y="626" on="1"/>
        <pt x="383" y="626" on="1"/>
        <pt x="383" y="240" on="1"/>
        <pt x="1097" y="240" on="1"/>
        <pt x="1097" y="0" on="1"/>
        <pt x="115" y="0" on="1"/>
      </contour>
    </TTGlyph>
    <TTGlyph name="Eacute" xMin="115" yMin="0" xMax="1097" yMax="1945">
      <component glyphName="E" x="0" y="0" flags="0x1004"/>
      <component glyphName="acute" x="440" y="0" flags="0x1004"/>
    </TTGlyph>
    <TTGlyph name="Ebreve" xMin="115" yMin="0" xMax="1097" yMax="1942">
      <component glyphName="breve" x="-140" y="0" flags="0x1004"/>
      <component glyphName="E" x="0" y="0" flags="0x1004"/>
    </TTGlyph>
    <TTGlyph name="Ecaron" xMin="115" yMin="0" xMax="1097" yMax="1906">
      <component glyphName="caron" x="-84" y="0" flags="0x1004"/>
      <component glyphName="E" x="0" y="0" flags="0x1004"/>
    </TTGlyph>
    <TTGlyph name="Ecircumflex" xMin="115" yMin="0" xMax="1097" yMax="1881">
      <component glyphName="asciicircum" x="123" y="389" flags="0x1004"/>
      <component glyphName="E" x="0" y="0" flags="0x1004"/>
    </TTGlyph>
    <TTGlyph name="Edieresis" xMin="115" yMin="0" xMax="1097" yMax="1847">
      <component glyphName="dieresis" x="184" y="-74" flags="0x1004"/>
      <component glyphName="E" x="0" y="0" flags="0x1004"/>
    </TTGlyph>
    <TTGlyph name="Edotaccent" xMin="115" yMin="0" xMax="1097" yMax="1921">
      <component glyphName="dotaccent" x="196" y="0" flags="0x1004"/>
      <component glyphName="E" x="0" y="0" flags="0x1004"/>
    </TTGlyph>
    <TTGlyph name="Egrave" xMin="115" yMin="0" xMax="1097" yMax="1945">
      <component glyphName="E" x="0" y="0" flags="0x1004"/>
      <component glyphName="grave" x="300" y="0" flags="0x1004"/>
    </TTGlyph>
    <TTGlyph name="Emacron" xMin="115" yMin="0" xMax="1097" yMax="1813">
      <component glyphName="macron" x="152" y="0" flags="0x1004"/>
      <component glyphName="E" x="0" y="0" flags="0x1004"/>
    </TTGlyph>
    <TTGlyph name="Eng" xMin="119" yMin="0" xMax="1222" yMax="1483">
      <contour>
        <pt x="589" y="99" on="1"/>
        <pt x="758" y="271" on="1"/>
        <pt x="770" y="254" on="0"/>
        <pt x="796" y="242" on="1"/>
        <pt x="824" y="229" on="0"/>
        <pt x="848" y="229" on="1"/>
        <pt x="899" y="229" on="0"/>
        <pt x="931" y="260" on="1"/>
        <pt x="964" y="292" on="0"/>
        <pt x="964" y="340" on="1"/>
        <pt x="964" y="432" on="1"/>
        <pt x="961" y="432" on="1"/>
        <pt x="961" y="918" on="1"/>
        <pt x="961" y="1000" on="0"/>
        <pt x="952" y="1058" on="1"/>
        <pt x="942" y="1121" on="0"/>
        <pt x="929" y="1153" on="1"/>
        <pt x="914" y="1189" on="0"/>
        <pt x="890" y="1210" on="1"/>
        <pt x="863" y="1234" on="0"/>
        <pt x="842" y="1240" on="1"/>
        <pt x="815" y="1248" on="0"/>
        <pt x="781" y="1248" on="1"/>
        <pt x="653" y="1248" on="0"/>
        <pt x="564" y="1202" on="1"/>
        <pt x="478" y="1157" on="0"/>
        <pt x="388" y="1056" on="1"/>
        <pt x="377" y="1043" on="0"/>
        <pt x="377" y="917" on="1"/>
        <pt x="377" y="0" on="1"/>
        <pt x="119" y="0" on="1"/>
        <pt x="119" y="1455" on="1"/>
        <pt x="377" y="1455" on="1"/>
        <pt x="377" y="1293" on="1"/>
        <pt x="571" y="1402" on="0"/>
        <pt x="639" y="1431" on="1"/>
        <pt x="762" y="1483" on="0"/>
        <pt x="905" y="1483" on="1"/>
        <pt x="959" y="1483" on="0"/>
        <pt x="1014" y="1454" on="1"/>
        <pt x="1072" y="1423" on="0"/>
        <pt x="1116" y="1374" on="1"/>
        <pt x="1161" y="1323" on="0"/>
        <pt x="1190" y="1236" on="1"/>
        <pt x="1219" y="1152" on="0"/>
        <pt x="1219" y="1049" on="1"/>
        <pt x="1222" y="397" on="1"/>
        <pt x="1222" y="298" on="0"/>
        <pt x="1110" y="110" on="0"/>
        <pt x="1022" y="56" on="1"/>
        <pt x="931" y="0" on="0"/>
        <pt x="837" y="0" on="1"/>
        <pt x="756" y="0" on="0"/>
        <pt x="698" y="20" on="1"/>
        <pt x="643" y="39" on="0"/>
      </contour>
    </TTGlyph>
    <TTGlyph name="Eogonek" xMin="115" yMin="-344" xMax="1101" yMax="1456">
      <component glyphName="ogonek" x="687" y="0" flags="0x1004"/>
      <component glyphName="E" x="0" y="0" flags="0x1004"/>
    </TTGlyph>
    <TTGlyph name="Epsilon" xMin="114" yMin="0" xMax="1096" yMax="1456">
      <contour>
        <pt x="114" y="1456" on="1"/>
        <pt x="1096" y="1456" on="1"/>
        <pt x="1096" y="1217" on="1"/>
        <pt x="382" y="1217" on="1"/>
        <pt x="382" y="866" on="1"/>
        <pt x="1034" y="866" on="1"/>
        <pt x="1034" y="627" on="1"/>
        <pt x="382" y="627" on="1"/>
        <pt x="382" y="240" on="1"/>
        <pt x="1096" y="240" on="1"/>
        <pt x="1096" y="0" on="1"/>
        <pt x="114" y="0" on="1"/>
      </contour>
    </TTGlyph>
    <TTGlyph name="Epsilontonos" xMin="53" yMin="0" xMax="1340" yMax="1599">
      <component glyphName="Epsilon" x="244" y="0" flags="0x1004"/>
      <component glyphName="tonos" x="-412" y="0" flags="0x1004"/>
    </TTGlyph>
    <TTGlyph name="Eta" xMin="115" yMin="0" xMax="1137" yMax="1456">
      <contour>
        <pt x="115" y="1456" on="1"/>
        <pt x="383" y="1456" on="1"/>
        <pt x="383" y="864" on="1"/>
        <pt x="868" y="864" on="1"/>
        <pt x="868" y="1456" on="1"/>
        <pt x="1137" y="1456" on="1"/>
        <pt x="1137" y="0" on="1"/>
        <pt x="868" y="0" on="1"/>
        <pt x="868" y="625" on="1"/>
        <pt x="383" y="625" on="1"/>
        <pt x="383" y="0" on="1"/>
        <pt x="115" y="0" on="1"/>
      </contour>
    </TTGlyph>
    <TTGlyph name="Etatonos" xMin="37" yMin="0" xMax="1361" yMax="1599">
      <component glyphName="Eta" x="224" y="0" flags="0x1004"/>
      <component glyphName="tonos" x="-428" y="0" flags="0x1004"/>
    </TTGlyph>
    <TTGlyph name="Eth" xMin="135" yMin="0" xMax="1357" yMax="1456">
      <contour>
        <pt x="260" y="612" on="1"/>
        <pt x="135" y="612" on="1"/>
        <pt x="135" y="851" on="1"/>
        <pt x="260" y="851" on="1"/>
        <pt x="260" y="1456" on="1"/>
        <pt x="696" y="1456" on="1"/>
        <pt x="843" y="1456" on="0"/>
        <pt x="1093" y="1342" on="0"/>
        <pt x="1262" y="1146" on="0"/>
        <pt x="1357" y="878" on="0"/>
        <pt x="1357" y="576" on="0"/>
        <pt x="1260" y="308" on="0"/>
        <pt x="1089" y="113" on="0"/>
        <pt x="841" y="0" on="0"/>
        <pt x="696" y="0" on="1"/>
        <pt x="471" y="0" on="1"/>
        <pt x="260" y="0" on="1"/>
      </contour>
      <contour>
        <pt x="528" y="612" on="1"/>
        <pt x="528" y="243" on="1"/>
        <pt x="696" y="243" on="1"/>
        <pt x="868" y="243" on="0"/>
        <pt x="1090" y="513" on="0"/>
        <pt x="1090" y="941" on="0"/>
        <pt x="867" y="1211" on="0"/>
        <pt x="696" y="1211" on="1"/>
        <pt x="527" y="1211" on="1"/>
        <pt x="527" y="851" on="1"/>
        <pt x="774" y="851" on="1"/>
        <pt x="774" y="612" on="1"/>
      </contour>
    </TTGlyph>
    <TTGlyph name="Euro" xMin="125" yMin="164" xMax="1096" yMax="1282">
      <contour>
        <pt x="261" y="760" on="1"/>
        <pt x="131" y="760" on="1"/>
        <pt x="131" y="926" on="1"/>
        <pt x="281" y="926" on="1"/>
        <pt x="331" y="1078" on="0"/>
        <pt x="452" y="1180" on="1"/>
        <pt x="574" y="1282" on="0"/>
        <pt x="727" y="1282" on="1"/>
        <pt x="834" y="1282" on="0"/>
        <pt x="922" y="1236" on="1"/>
        <pt x="1009" y="1190" on="0"/>
        <pt x="1092" y="1083" on="1"/>
        <pt x="936" y="950" on="1"/>
        <pt x="854" y="1053" on="0"/>
        <pt x="727" y="1053" on="1"/>
        <pt x="673" y="1053" on="0"/>
        <pt x="611" y="1015" on="1"/>
        <pt x="550" y="978" on="0"/>
        <pt x="542" y="926" on="1"/>
        <pt x="811" y="926" on="1"/>
        <pt x="811" y="760" on="1"/>
        <pt x="520" y="760" on="1"/>
        <pt x="514" y="754" on="0"/>
        <pt x="514" y="722" on="1"/>
        <pt x="519" y="647" on="1"/>
        <pt x="805" y="647" on="1"/>
        <pt x="805" y="481" on="1"/>
        <pt x="543" y="481" on="1"/>
        <pt x="558" y="444" on="0"/>
        <pt x="621" y="418" on="1"/>
        <pt x="683" y="393" on="0"/>
        <pt x="727" y="393" on="1"/>
        <pt x="779" y="393" on="0"/>
        <pt x="803" y="396" on="1"/>
        <pt x="828" y="399" on="0"/>
        <pt x="858" y="415" on="1"/>
        <pt x="889" y="431" on="0"/>
        <pt x="922" y="467" on="1"/>
        <pt x="1096" y="334" on="1"/>
        <pt x="1059" y="288" on="0"/>
        <pt x="1035" y="267" on="1"/>
        <pt x="1001" y="237" on="0"/>
        <pt x="964" y="215" on="1"/>
        <pt x="917" y="187" on="0"/>
        <pt x="862" y="176" on="1"/>
        <pt x="804" y="164" on="0"/>
        <pt x="727" y="164" on="1"/>
        <pt x="559" y="164" on="0"/>
        <pt x="309" y="348" on="0"/>
        <pt x="276" y="481" on="1"/>
        <pt x="125" y="481" on="1"/>
        <pt x="125" y="647" on="1"/>
        <pt x="261" y="647" on="1"/>
        <pt x="258" y="690" on="0"/>
        <pt x="258" y="725" on="1"/>
        <pt x="258" y="754" on="0"/>
      </contour>
    </TTGlyph>
    <TTGlyph name="F" xMin="115" yMin="0" xMax="1097" yMax="1456">
      <contour>
        <pt x="115" y="1456" on="1"/>
        <pt x="1097" y="1456" on="1"/>
        <pt x="1097" y="1217" on="1"/>
        <pt x="383" y="1217" on="1"/>
        <pt x="383" y="866" on="1"/>
        <pt x="1034" y="866" on="1"/>
        <pt x="1034" y="627" on="1"/>
        <pt x="383" y="627" on="1"/>
        <pt x="383" y="0" on="1"/>
        <pt x="115" y="0" on="1"/>
      </contour>
    </TTGlyph>
    <TTGlyph name="Fdotaccent" xMin="115" yMin="0" xMax="1097" yMax="1921">
      <component glyphName="F" x="0" y="0" flags="0x1004"/>
      <component glyphName="dotaccent" x="160" y="0" flags="0x1004"/>
    </TTGlyph>
    <TTGlyph name="G" xMin="90" yMin="-27" xMax="1288" yMax="1497">
      <contour>
        <pt x="713" y="-27" on="1"/>
        <pt x="581" y="-27" on="0"/>
        <pt x="367" y="68" on="0"/>
        <pt x="227" y="223" on="0"/>
        <pt x="131" y="431" on="0"/>
        <pt x="90" y="648" on="0"/>
        <pt x="90" y="762" on="1"/>
        <pt x="90" y="868" on="0"/>
        <pt x="131" y="1070" on="0"/>
        <pt x="227" y="1263" on="0"/>
        <pt x="367" y="1408" on="0"/>
        <pt x="583" y="1497" on="0"/>
        <pt x="715" y="1497" on="1"/>
        <pt x="869" y="1497" on="0"/>
        <pt x="1123" y="1338" on="0"/>
        <pt x="1184" y="1200" on="1"/>
        <pt x="926" y="1114" on="1"/>
        <pt x="911" y="1166" on="0"/>
        <pt x="764" y="1257" on="0"/>
        <pt x="715" y="1257" on="1"/>
        <pt x="631" y="1257" on="0"/>
        <pt x="495" y="1167" on="0"/>
        <pt x="415" y="1021" on="0"/>
        <pt x="373" y="850" on="0"/>
        <pt x="373" y="762" on="1"/>
        <pt x="373" y="663" on="0"/>
        <pt x="415" y="473" on="0"/>
        <pt x="495" y="311" on="0"/>
        <pt x="629" y="211" on="0"/>
        <pt x="713" y="211" on="1"/>
        <pt x="784" y="211" on="0"/>
        <pt x="893" y="259" on="0"/>
        <pt x="956" y="332" on="0"/>
        <pt x="996" y="432" on="0"/>
        <pt x="1010" y="521" on="0"/>
        <pt x="1010" y="567" on="1"/>
        <pt x="707" y="567" on="1"/>
        <pt x="707" y="807" on="1"/>
        <pt x="1288" y="807" on="1"/>
        <pt x="1288" y="661" on="1"/>
        <pt x="1288" y="560" on="0"/>
        <pt x="1253" y="372" on="0"/>
        <pt x="1167" y="190" on="0"/>
        <pt x="1039" y="55" on="0"/>
        <pt x="838" y="-27" on="0"/>
      </contour>
    </TTGlyph>
    <TTGlyph name="Gamma" xMin="115" yMin="0" xMax="1097" yMax="1456">
      <contour>
        <pt x="383" y="1217" on="1"/>
        <pt x="383" y="0" on="1"/>
        <pt x="115" y="0" on="1"/>
        <pt x="115" y="1456" on="1"/>
        <pt x="1097" y="1456" on="1"/>
        <pt x="1097" y="1217" on="1"/>
      </contour>
    </TTGlyph>
    <TTGlyph name="Gbreve" xMin="90" yMin="-27" xMax="1288" yMax="1942">
      <component glyphName="breve" x="-13" y="0" flags="0x1004"/>
      <component glyphName="G" x="0" y="0" flags="0x1004"/>
    </TTGlyph>
    <TTGlyph name="Gcircumflex" xMin="90" yMin="-27" xMax="1288" yMax="1906">
      <component glyphName="circumflex" x="0" y="0" flags="0x1004"/>
      <component glyphName="G" x="0" y="0" flags="0x1004"/>
    </TTGlyph>
    <TTGlyph name="Gcommaaccent" xMin="90" yMin="-27" xMax="1288" yMax="1497">
      <component glyphName="G" x="0" y="0" flags="0x1004"/>
    </TTGlyph>
    <TTGlyph name="Gdotaccent" xMin="90" yMin="-27" xMax="1288" yMax="1921">
      <component glyphName="dotaccent" x="244" y="0" flags="0x1004"/>
      <component glyphName="G" x="0" y="0" flags="0x1004"/>
    </TTGlyph>
    <TTGlyph name="H" xMin="115" yMin="0" xMax="1138" yMax="1456">
      <contour>
        <pt x="115" y="1456" on="1"/>
        <pt x="383" y="1456" on="1"/>
        <pt x="383" y="864" on="1"/>
        <pt x="868" y="864" on="1"/>
        <pt x="868" y="1456" on="1"/>
        <pt x="1138" y="1456" on="1"/>
        <pt x="1138" y="0" on="1"/>
        <pt x="868" y="0" on="1"/>
        <pt x="868" y="624" on="1"/>
        <pt x="383" y="624" on="1"/>
        <pt x="383" y="0" on="1"/>
        <pt x="115" y="0" on="1"/>
      </contour>
    </TTGlyph>
    <TTGlyph name="Hbar" xMin="44" yMin="0" xMax="1209" yMax="1456">
      <contour>
        <pt x="115" y="1456" on="1"/>
        <pt x="383" y="1456" on="1"/>
        <pt x="383" y="1314" on="1"/>
        <pt x="868" y="1314" on="1"/>
        <pt x="868" y="1456" on="1"/>
        <pt x="1138" y="1456" on="1"/>
        <pt x="1138" y="1314" on="1"/>
        <pt x="1209" y="1314" on="1"/>
        <pt x="1209" y="1074" on="1"/>
        <pt x="1138" y="1074" on="1"/>
        <pt x="1138" y="0" on="1"/>
        <pt x="868" y="0" on="1"/>
        <pt x="868" y="624" on="1"/>
        <pt x="383" y="624" on="1"/>
        <pt x="383" y="0" on="1"/>
        <pt x="115" y="0" on="1"/>
        <pt x="115" y="1074" on="1"/>
        <pt x="44" y="1074" on="1"/>
        <pt x="44" y="1314" on="1"/>
        <pt x="115" y="1314" on="1"/>
      </contour>
      <contour>
        <pt x="868" y="1074" on="1"/>
        <pt x="383" y="1074" on="1"/>
        <pt x="383" y="864" on="1"/>
        <pt x="868" y="864" on="1"/>
      </contour>
    </TTGlyph>
    <TTGlyph name="Hcircumflex" xMin="115" yMin="0" xMax="1138" yMax="1906">
      <component glyphName="circumflex" x="-96" y="0" flags="0x1004"/>
      <component glyphName="H" x="0" y="0" flags="0x1004"/>
    </TTGlyph>
    <TTGlyph name="I" xMin="143" yMin="0" xMax="411" yMax="1456">
      <contour>
        <pt x="143" y="0" on="1"/>
        <pt x="143" y="1456" on="1"/>
        <pt x="411" y="1456" on="1"/>
        <pt x="411" y="0" on="1"/>
      </contour>
    </TTGlyph>
    <TTGlyph name="IJ" xMin="143" yMin="-35" xMax="1584" yMax="1456">
      <contour>
        <pt x="558" y="586" on="1"/>
        <pt x="799" y="586" on="1"/>
        <pt x="799" y="517" on="0"/>
        <pt x="813" y="453" on="1"/>
        <pt x="826" y="393" on="0"/>
        <pt x="858" y="336" on="1"/>
        <pt x="889" y="281" on="0"/>
        <pt x="943" y="250" on="1"/>
        <pt x="998" y="219" on="0"/>
        <pt x="1072" y="219" on="1"/>
        <pt x="1142" y="219" on="0"/>
        <pt x="1191" y="250" on="1"/>
        <pt x="1242" y="282" on="0"/>
        <pt x="1267" y="336" on="1"/>
        <pt x="1292" y="389" on="0"/>
        <pt x="1304" y="451" on="1"/>
        <pt x="1316" y="512" on="0"/>
        <pt x="1316" y="586" on="1"/>
        <pt x="1316" y="1456" on="1"/>
        <pt x="1584" y="1456" on="1"/>
        <pt x="1584" y="586" on="1"/>
        <pt x="1584" y="402" on="0"/>
        <pt x="1528" y="263" on="1"/>
        <pt x="1472" y="125" on="0"/>
        <pt x="1355" y="45" on="1"/>
        <pt x="1237" y="-35" on="0"/>
        <pt x="1072" y="-35" on="1"/>
        <pt x="966" y="-35" on="0"/>
        <pt x="882" y="-4" on="1"/>
        <pt x="794" y="28" on="0"/>
        <pt x="736" y="82" on="1"/>
        <pt x="677" y="136" on="0"/>
        <pt x="636" y="216" on="1"/>
        <pt x="597" y="291" on="0"/>
        <pt x="577" y="386" on="1"/>
        <pt x="558" y="477" on="0"/>
      </contour>
      <contour>
        <pt x="143" y="0" on="1"/>
        <pt x="143" y="1456" on="1"/>
        <pt x="411" y="1456" on="1"/>
        <pt x="411" y="0" on="1"/>
      </contour>
    </TTGlyph>
    <TTGlyph name="Iacute" xMin="143" yMin="0" xMax="590" yMax="1945">
      <component glyphName="I" x="0" y="0" flags="0x1004"/>
      <component glyphName="acute" x="66" y="0" flags="0x1004"/>
    </TTGlyph>
    <TTGlyph name="Ibreve" xMin="-77" yMin="0" xMax="625" yMax="1942">
      <component glyphName="breve" x="-453" y="0" flags="0x1004"/>
      <component glyphName="I" x="0" y="0" flags="0x1004"/>
    </TTGlyph>
    <TTGlyph name="Icircumflex" xMin="-130" yMin="0" xMax="674" yMax="1881">
      <component glyphName="asciicircum" x="-252" y="389" flags="0x1004"/>
      <component glyphName="I" x="0" y="0" flags="0x1004"/>
    </TTGlyph>
    <TTGlyph name="Idieresis" xMin="-123" yMin="0" xMax="676" yMax="1862">
      <component glyphName="dieresis" x="-190" y="-59" flags="0x1004"/>
      <component glyphName="I" x="0" y="0" flags="0x1004"/>
    </TTGlyph>
    <TTGlyph name="Idotaccent" xMin="114" yMin="0" xMax="442" yMax="1921">
      <component glyphName="dotaccent" x="-190" y="0" flags="0x1004"/>
      <component glyphName="I" x="0" y="0" flags="0x1004"/>
    </TTGlyph>
    <TTGlyph name="Igrave" xMin="-40" yMin="0" xMax="411" yMax="1945">
      <component glyphName="I" x="0" y="0" flags="0x1004"/>
      <component glyphName="grave" x="-117" y="0" flags="0x1004"/>
    </TTGlyph>
    <TTGlyph name="Imacron" xMin="-106" yMin="0" xMax="666" yMax="1813">
      <component glyphName="macron" x="-204" y="0" flags="0x1004"/>
      <component glyphName="I" x="0" y="0" flags="0x1004"/>
    </TTGlyph>
    <TTGlyph name="Iogonek" xMin="137" yMin="-344" xMax="495" yMax="1456">
      <component glyphName="ogonek" x="81" y="0" flags="0x1004"/>
      <component glyphName="I" x="0" y="0" flags="0x1004"/>
    </TTGlyph>
    <TTGlyph name="Iota" xMin="143" yMin="0" xMax="412" yMax="1456">
      <contour>
        <pt x="143" y="0" on="1"/>
        <pt x="143" y="1456" on="1"/>
        <pt x="412" y="1456" on="1"/>
        <pt x="412" y="0" on="1"/>
      </contour>
    </TTGlyph>
    <TTGlyph name="Iotadieresis" xMin="-122" yMin="0" xMax="677" yMax="1921">
      <component glyphName="Iota" x="0" y="0" flags="0x1004"/>
      <component glyphName="dieresis" x="-189" y="0" flags="0x1004"/>
    </TTGlyph>
    <TTGlyph name="Iotatonos" xMin="37" yMin="0" xMax="612" yMax="1599">
      <component glyphName="Iota" x="200" y="0" flags="0x1004"/>
      <component glyphName="tonos" x="-428" y="0" flags="0x1004"/>
    </TTGlyph>
    <TTGlyph name="Itilde" xMin="-46" yMin="0" xMax="591" yMax="1913">
      <component glyphName="tilde" x="-298" y="0" flags="0x1004"/>
      <component glyphName="I" x="0" y="0" flags="0x1004"/>
    </TTGlyph>
    <TTGlyph name="J" xMin="102" yMin="-35" xMax="1128" yMax="1456">
      <contour>
        <pt x="102" y="586" on="1"/>
        <pt x="370" y="586" on="1"/>
        <pt x="370" y="205" on="0"/>
        <pt x="616" y="205" on="1"/>
        <pt x="685" y="205" on="0"/>
        <pt x="785" y="271" on="0"/>
        <pt x="837" y="385" on="0"/>
        <pt x="860" y="512" on="0"/>
        <pt x="860" y="586" on="1"/>
        <pt x="860" y="1456" on="1"/>
        <pt x="1128" y="1456" on="1"/>
        <pt x="1128" y="586" on="1"/>
        <pt x="1128" y="401" on="0"/>
        <pt x="1016" y="125" on="0"/>
        <pt x="782" y="-35" on="0"/>
        <pt x="616" y="-35" on="1"/>
        <pt x="511" y="-35" on="0"/>
        <pt x="340" y="27" on="0"/>
        <pt x="221" y="138" on="0"/>
        <pt x="140" y="294" on="0"/>
        <pt x="102" y="479" on="0"/>
      </contour>
    </TTGlyph>
    <TTGlyph name="Jcircumflex" xMin="102" yMin="-35" xMax="1391" yMax="1902">
      <component glyphName="circumflex" x="270" y="-4" flags="0x1004"/>
      <component glyphName="J" x="0" y="0" flags="0x1004"/>
    </TTGlyph>
    <TTGlyph name="K" xMin="115" yMin="0" xMax="1290" yMax="1456">
      <contour>
        <pt x="115" y="1456" on="1"/>
        <pt x="383" y="1456" on="1"/>
        <pt x="383" y="833" on="1"/>
        <pt x="926" y="1456" on="1"/>
        <pt x="1261" y="1456" on="1"/>
        <pt x="705" y="808" on="1"/>
        <pt x="1290" y="0" on="1"/>
        <pt x="954" y="0" on="1"/>
        <pt x="500" y="628" on="1"/>
        <pt x="383" y="496" on="1"/>
        <pt x="383" y="0" on="1"/>
        <pt x="115" y="0" on="1"/>
      </contour>
    </TTGlyph>
    <TTGlyph name="Kappa" xMin="115" yMin="0" xMax="1290" yMax="1456">
      <contour>
        <pt x="115" y="1456" on="1"/>
        <pt x="383" y="1456" on="1"/>
        <pt x="383" y="833" on="1"/>
        <pt x="926" y="1456" on="1"/>
        <pt x="1261" y="1456" on="1"/>
        <pt x="705" y="808" on="1"/>
        <pt x="1290" y="0" on="1"/>
        <pt x="954" y="0" on="1"/>
        <pt x="500" y="628" on="1"/>
        <pt x="383" y="496" on="1"/>
        <pt x="383" y="0" on="1"/>
        <pt x="115" y="0" on="1"/>
      </contour>
    </TTGlyph>
    <TTGlyph name="Kcommaaccent" xMin="115" yMin="0" xMax="1290" yMax="1456">
      <component glyphName="K" x="0" y="0" flags="0x1004"/>
    </TTGlyph>
    <TTGlyph name="L" xMin="115" yMin="0" xMax="1099" yMax="1456">
      <contour>
        <pt x="115" y="1456" on="1"/>
        <pt x="383" y="1456" on="1"/>
        <pt x="383" y="240" on="1"/>
        <pt x="1099" y="240" on="1"/>
        <pt x="1099" y="0" on="1"/>
        <pt x="115" y="0" on="1"/>
      </contour>
    </TTGlyph>
    <TTGlyph name="Lacute" xMin="115" yMin="0" xMax="1099" yMax="1945">
      <component glyphName="acute" x="304" y="0" flags="0x1004"/>
      <component glyphName="L" x="0" y="0" flags="0x1004"/>
    </TTGlyph>
    <TTGlyph name="Lambda" xMin="70" yMin="0" xMax="1232" yMax="1456">
      <contour>
        <pt x="954" y="0" on="1"/>
        <pt x="654" y="1045" on="1"/>
        <pt x="360" y="0" on="1"/>
        <pt x="70" y="0" on="1"/>
        <pt x="498" y="1456" on="1"/>
        <pt x="814" y="1456" on="1"/>
        <pt x="1232" y="0" on="1"/>
      </contour>
    </TTGlyph>
    <TTGlyph name="Lcaron" xMin="115" yMin="0" xMax="1099" yMax="1514">
      <contour>
        <pt x="723" y="1385" on="1"/>
        <pt x="723" y="1338" on="0"/>
        <pt x="708" y="1292" on="1"/>
        <pt x="693" y="1244" on="0"/>
        <pt x="672" y="1209" on="1"/>
        <pt x="652" y="1175" on="0"/>
        <pt x="631" y="1149" on="1"/>
        <pt x="609" y="1122" on="0"/>
        <pt x="598" y="1112" on="1"/>
        <pt x="546" y="1146" on="1"/>
        <pt x="552" y="1157" on="0"/>
        <pt x="565" y="1194" on="1"/>
        <pt x="577" y="1227" on="0"/>
        <pt x="577" y="1244" on="1"/>
        <pt x="577" y="1250" on="0"/>
        <pt x="576" y="1252" on="1"/>
        <pt x="543" y="1261" on="0"/>
        <pt x="519" y="1295" on="1"/>
        <pt x="495" y="1330" on="0"/>
        <pt x="495" y="1385" on="1"/>
        <pt x="495" y="1434" on="0"/>
        <pt x="561" y="1514" on="0"/>
        <pt x="606" y="1514" on="1"/>
        <pt x="661" y="1514" on="0"/>
        <pt x="723" y="1434" on="0"/>
      </contour>
      <contour>
        <pt x="115" y="1456" on="1"/>
        <pt x="383" y="1456" on="1"/>
        <pt x="383" y="240" on="1"/>
        <pt x="1099" y="240" on="1"/>
        <pt x="1099" y="0" on="1"/>
        <pt x="115" y="0" on="1"/>
      </contour>
    </TTGlyph>
    <TTGlyph name="Lcommaaccent" xMin="115" yMin="-365" xMax="1099" yMax="1456">
      <component glyphName="cedilla" x="345" y="0" flags="0x1004"/>
      <component glyphName="L" x="0" y="0" flags="0x1004"/>
    </TTGlyph>
    <TTGlyph name="Ldot" xMin="115" yMin="0" xMax="1099" yMax="1456">
      <component glyphName="periodcentered" x="507" y="0" flags="0x1004"/>
      <component glyphName="L" x="0" y="0" flags="0x1004"/>
    </TTGlyph>
    <TTGlyph name="Lslash" xMin="0" yMin="0" xMax="1149" yMax="1456">
      <contour>
        <pt x="0" y="400" on="1"/>
        <pt x="0" y="630" on="1"/>
        <pt x="115" y="730" on="1"/>
        <pt x="115" y="1456" on="1"/>
        <pt x="383" y="1456" on="1"/>
        <pt x="383" y="965" on="1"/>
        <pt x="641" y="1190" on="1"/>
        <pt x="640" y="956" on="1"/>
        <pt x="383" y="733" on="1"/>
        <pt x="383" y="240" on="1"/>
        <pt x="1149" y="240" on="1"/>
        <pt x="1149" y="0" on="1"/>
        <pt x="115" y="0" on="1"/>
        <pt x="115" y="500" on="1"/>
      </contour>
    </TTGlyph>
    <TTGlyph name="M" xMin="115" yMin="0" xMax="1540" yMax="1456">
      <contour>
        <pt x="115" y="0" on="1"/>
        <pt x="115" y="1456" on="1"/>
        <pt x="475" y="1456" on="1"/>
        <pt x="825" y="424" on="1"/>
        <pt x="1181" y="1456" on="1"/>
        <pt x="1540" y="1456" on="1"/>
        <pt x="1540" y="0" on="1"/>
        <pt x="1272" y="0" on="1"/>
        <pt x="1272" y="962" on="1"/>
        <pt x="960" y="0" on="1"/>
        <pt x="690" y="0" on="1"/>
        <pt x="383" y="962" on="1"/>
        <pt x="383" y="0" on="1"/>
      </contour>
    </TTGlyph>
    <TTGlyph name="Mdotaccent" xMin="115" yMin="0" xMax="1540" yMax="1921">
      <component glyphName="M" x="0" y="0" flags="0x1004"/>
      <component glyphName="dotaccent" x="308" y="0" flags="0x1004"/>
    </TTGlyph>
    <TTGlyph name="Mu" xMin="66" yMin="0" xMax="1491" yMax="1456">
      <contour>
        <pt x="66" y="0" on="1"/>
        <pt x="66" y="1456" on="1"/>
        <pt x="426" y="1456" on="1"/>
        <pt x="775" y="424" on="1"/>
        <pt x="1132" y="1456" on="1"/>
        <pt x="1491" y="1456" on="1"/>
        <pt x="1491" y="0" on="1"/>
        <pt x="1229" y="0" on="1"/>
        <pt x="1229" y="999" on="1"/>
        <pt x="911" y="0" on="1"/>
        <pt x="641" y="0" on="1"/>
        <pt x="328" y="988" on="1"/>
        <pt x="328" y="0" on="1"/>
      </contour>
    </TTGlyph>
    <TTGlyph name="N" xMin="115" yMin="0" xMax="1216" yMax="1456">
      <contour>
        <pt x="115" y="0" on="1"/>
        <pt x="115" y="1456" on="1"/>
        <pt x="375" y="1456" on="1"/>
        <pt x="948" y="516" on="1"/>
        <pt x="948" y="1456" on="1"/>
        <pt x="1216" y="1456" on="1"/>
        <pt x="1216" y="0" on="1"/>
        <pt x="952" y="0" on="1"/>
        <pt x="383" y="973" on="1"/>
        <pt x="383" y="0" on="1"/>
      </contour>
    </TTGlyph>
    <TTGlyph name="Nacute" xMin="115" yMin="0" xMax="1216" yMax="1945">
      <component glyphName="acute" x="395" y="0" flags="0x1004"/>
      <component glyphName="N" x="0" y="0" flags="0x1004"/>
    </TTGlyph>
    <TTGlyph name="Ncaron" xMin="115" yMin="0" xMax="1216" yMax="1906">
      <component glyphName="caron" x="0" y="0" flags="0x1004"/>
      <component glyphName="N" x="0" y="0" flags="0x1004"/>
    </TTGlyph>
    <TTGlyph name="Ncommaaccent" xMin="115" yMin="0" xMax="1216" yMax="1456">
      <component glyphName="N" x="0" y="0" flags="0x1004"/>
    </TTGlyph>
    <TTGlyph name="Ntilde" xMin="115" yMin="0" xMax="1216" yMax="1896">
      <component glyphName="asciitilde" x="268" y="985" flags="0x1004"/>
      <component glyphName="N" x="0" y="0" flags="0x1004"/>
    </TTGlyph>
    <TTGlyph name="Nu" xMin="119" yMin="0" xMax="1221" yMax="1456">
      <contour>
        <pt x="119" y="0" on="1"/>
        <pt x="119" y="1456" on="1"/>
        <pt x="379" y="1456" on="1"/>
        <pt x="952" y="516" on="1"/>
        <pt x="952" y="1456" on="1"/>
        <pt x="1221" y="1456" on="1"/>
        <pt x="1221" y="0" on="1"/>
        <pt x="956" y="0" on="1"/>
        <pt x="387" y="973" on="1"/>
        <pt x="387" y="0" on="1"/>
      </contour>
    </TTGlyph>
    <TTGlyph name="O" xMin="100" yMin="-29" xMax="1329" yMax="1485">
      <contour>
        <pt x="1047" y="726" on="1"/>
        <pt x="1047" y="825" on="0"/>
        <pt x="1014" y="1000" on="0"/>
        <pt x="941" y="1154" on="0"/>
        <pt x="806" y="1245" on="0"/>
        <pt x="715" y="1245" on="1"/>
        <pt x="641" y="1245" on="0"/>
        <pt x="525" y="1184" on="0"/>
        <pt x="451" y="1084" on="0"/>
        <pt x="403" y="946" on="0"/>
        <pt x="383" y="804" on="0"/>
        <pt x="383" y="726" on="1"/>
        <pt x="383" y="649" on="0"/>
        <pt x="403" y="508" on="0"/>
        <pt x="451" y="372" on="0"/>
        <pt x="525" y="272" on="0"/>
        <pt x="642" y="211" on="0"/>
        <pt x="715" y="211" on="1"/>
        <pt x="789" y="211" on="0"/>
        <pt x="906" y="272" on="0"/>
        <pt x="979" y="372" on="0"/>
        <pt x="1027" y="508" on="0"/>
        <pt x="1047" y="649" on="0"/>
      </contour>
      <contour>
        <pt x="100" y="726" on="1"/>
        <pt x="100" y="833" on="0"/>
        <pt x="141" y="1040" on="0"/>
        <pt x="235" y="1241" on="0"/>
        <pt x="373" y="1392" on="0"/>
        <pt x="585" y="1485" on="0"/>
        <pt x="845" y="1485" on="0"/>
        <pt x="1057" y="1392" on="0"/>
        <pt x="1195" y="1241" on="0"/>
        <pt x="1289" y="1040" on="0"/>
        <pt x="1329" y="833" on="0"/>
        <pt x="1329" y="726" on="1"/>
        <pt x="1329" y="620" on="0"/>
        <pt x="1289" y="415" on="0"/>
        <pt x="1195" y="215" on="0"/>
        <pt x="1057" y="64" on="0"/>
        <pt x="845" y="-29" on="0"/>
        <pt x="585" y="-29" on="0"/>
        <pt x="373" y="64" on="0"/>
        <pt x="235" y="215" on="0"/>
        <pt x="141" y="415" on="0"/>
        <pt x="100" y="621" on="0"/>
      </contour>
    </TTGlyph>
    <TTGlyph name="OE" xMin="100" yMin="-29" xMax="1585" yMax="1489">
      <contour>
        <pt x="823" y="0" on="1"/>
        <pt x="823" y="7" on="1"/>
        <pt x="735" y="-29" on="0"/>
        <pt x="625" y="-29" on="1"/>
        <pt x="533" y="-29" on="0"/>
        <pt x="379" y="33" on="0"/>
        <pt x="273" y="135" on="0"/>
        <pt x="190" y="274" on="0"/>
        <pt x="142" y="416" on="0"/>
        <pt x="111" y="573" on="0"/>
        <pt x="100" y="697" on="0"/>
        <pt x="100" y="754" on="1"/>
        <pt x="100" y="810" on="0"/>
        <pt x="111" y="929" on="0"/>
        <pt x="142" y="1076" on="0"/>
        <pt x="190" y="1209" on="0"/>
        <pt x="273" y="1338" on="0"/>
        <pt x="379" y="1432" on="0"/>
        <pt x="533" y="1489" on="0"/>
        <pt x="625" y="1489" on="1"/>
        <pt x="736" y="1489" on="0"/>
        <pt x="823" y="1455" on="1"/>
        <pt x="1585" y="1456" on="1"/>
        <pt x="1585" y="1217" on="1"/>
        <pt x="1091" y="1217" on="1"/>
        <pt x="1091" y="1119" on="1"/>
        <pt x="1091" y="866" on="1"/>
        <pt x="1126" y="866" on="1"/>
        <pt x="1522" y="866" on="1"/>
        <pt x="1522" y="627" on="1"/>
        <pt x="1126" y="627" on="1"/>
        <pt x="1091" y="627" on="1"/>
        <pt x="1091" y="368" on="1"/>
        <pt x="1091" y="240" on="1"/>
        <pt x="1585" y="240" on="1"/>
        <pt x="1585" y="0" on="1"/>
      </contour>
      <contour>
        <pt x="823" y="1118" on="1"/>
        <pt x="776" y="1249" on="0"/>
        <pt x="625" y="1249" on="1"/>
        <pt x="573" y="1249" on="0"/>
        <pt x="489" y="1195" on="0"/>
        <pt x="439" y="1103" on="0"/>
        <pt x="404" y="1000" on="0"/>
        <pt x="389" y="879" on="0"/>
        <pt x="383" y="795" on="0"/>
        <pt x="383" y="754" on="1"/>
        <pt x="383" y="719" on="0"/>
        <pt x="386" y="647" on="0"/>
        <pt x="398" y="535" on="0"/>
        <pt x="417" y="438" on="0"/>
        <pt x="454" y="334" on="0"/>
        <pt x="503" y="260" on="0"/>
        <pt x="579" y="213" on="0"/>
        <pt x="625" y="213" on="1"/>
        <pt x="776" y="213" on="0"/>
        <pt x="823" y="359" on="1"/>
      </contour>
    </TTGlyph>
    <TTGlyph name="Oacute" xMin="100" yMin="-29" xMax="1329" yMax="1945">
      <component glyphName="O" x="0" y="0" flags="0x1004"/>
      <component glyphName="grave" x="304" y="0" flags="0x1004"/>
    </TTGlyph>
    <TTGlyph name="Obreve" xMin="100" yMin="-29" xMax="1329" yMax="1942">
      <component glyphName="breve" x="0" y="0" flags="0x1004"/>
      <component glyphName="O" x="0" y="0" flags="0x1004"/>
    </TTGlyph>
    <TTGlyph name="Ocircumflex" xMin="100" yMin="-29" xMax="1329" yMax="1945">
      <component glyphName="O" x="0" y="0" flags="0x1004"/>
      <component glyphName="acute" x="524" y="0" flags="0x1004"/>
    </TTGlyph>
    <TTGlyph name="Odieresis" xMin="100" yMin="-29" xMax="1329" yMax="1902">
      <component glyphName="dieresis" x="244" y="-19" flags="0x1004"/>
      <component glyphName="O" x="0" y="0" flags="0x1004"/>
    </TTGlyph>
    <TTGlyph name="Ograve" xMin="100" yMin="-29" xMax="1329" yMax="2340">
      <component glyphName="grave" x="324" y="395" flags="0x1004"/>
      <component glyphName="O" x="0" y="0" flags="0x1004"/>
    </TTGlyph>
    <TTGlyph name="Ohungarumlaut" xMin="100" yMin="-29" xMax="1329" yMax="1946">
      <component glyphName="hungarumlaut" x="84" y="0" flags="0x1004"/>
      <component glyphName="O" x="0" y="0" flags="0x1004"/>
    </TTGlyph>
    <TTGlyph name="Omacron" xMin="100" yMin="-29" xMax="1329" yMax="1813">
      <component glyphName="macron" x="224" y="0" flags="0x1004"/>
      <component glyphName="O" x="0" y="0" flags="0x1004"/>
    </TTGlyph>
    <TTGlyph name="Omega" xMin="31" yMin="0" xMax="1378" yMax="1489">
      <contour>
        <pt x="633" y="229" on="1"/>
        <pt x="633" y="0" on="1"/>
        <pt x="31" y="0" on="1"/>
        <pt x="31" y="229" on="1"/>
        <pt x="243" y="229" on="1"/>
        <pt x="210" y="283" on="0"/>
        <pt x="188" y="331" on="1"/>
        <pt x="141" y="436" on="0"/>
        <pt x="120" y="541" on="1"/>
        <pt x="100" y="642" on="0"/>
        <pt x="100" y="754" on="1"/>
        <pt x="100" y="852" on="0"/>
        <pt x="120" y="954" on="1"/>
        <pt x="139" y="1049" on="0"/>
        <pt x="187" y="1150" on="1"/>
        <pt x="232" y="1245" on="0"/>
        <pt x="303" y="1322" on="1"/>
        <pt x="372" y="1397" on="0"/>
        <pt x="478" y="1443" on="1"/>
        <pt x="583" y="1489" on="0"/>
        <pt x="847" y="1489" on="0"/>
        <pt x="952" y="1443" on="1"/>
        <pt x="1058" y="1397" on="0"/>
        <pt x="1127" y="1323" on="1"/>
        <pt x="1194" y="1252" on="0"/>
        <pt x="1290" y="1050" on="0"/>
        <pt x="1309" y="954" on="1"/>
        <pt x="1329" y="852" on="0"/>
        <pt x="1329" y="754" on="1"/>
        <pt x="1329" y="650" on="0"/>
        <pt x="1309" y="542" on="1"/>
        <pt x="1290" y="441" on="0"/>
        <pt x="1242" y="332" on="1"/>
        <pt x="1219" y="280" on="0"/>
        <pt x="1187" y="229" on="1"/>
        <pt x="1378" y="229" on="1"/>
        <pt x="1378" y="0" on="1"/>
        <pt x="776" y="0" on="1"/>
        <pt x="776" y="229" on="1"/>
        <pt x="836" y="245" on="0"/>
        <pt x="912" y="309" on="1"/>
        <pt x="983" y="370" on="0"/>
        <pt x="1006" y="450" on="1"/>
        <pt x="1030" y="533" on="0"/>
        <pt x="1038" y="602" on="1"/>
        <pt x="1047" y="675" on="0"/>
        <pt x="1047" y="754" on="1"/>
        <pt x="1047" y="843" on="0"/>
        <pt x="1013" y="1013" on="0"/>
        <pt x="978" y="1086" on="1"/>
        <pt x="944" y="1158" on="0"/>
        <pt x="874" y="1204" on="1"/>
        <pt x="806" y="1249" on="0"/>
        <pt x="715" y="1249" on="1"/>
        <pt x="640" y="1249" on="0"/>
        <pt x="582" y="1219" on="1"/>
        <pt x="526" y="1190" on="0"/>
        <pt x="488" y="1140" on="1"/>
        <pt x="448" y="1087" on="0"/>
        <pt x="426" y="1026" on="1"/>
        <pt x="400" y="955" on="0"/>
        <pt x="392" y="893" on="1"/>
        <pt x="383" y="826" on="0"/>
        <pt x="383" y="754" on="1"/>
        <pt x="383" y="672" on="0"/>
        <pt x="393" y="602" on="1"/>
        <pt x="404" y="527" on="0"/>
        <pt x="450" y="387" on="0"/>
        <pt x="576" y="261" on="0"/>
      </contour>
    </TTGlyph>
    <TTGlyph name="Omegatonos" xMin="29" yMin="0" xMax="1534" yMax="1599">
      <component glyphName="Omega" x="156" y="0" flags="0x1004"/>
      <component glyphName="tonos" x="-436" y="0" flags="0x1004"/>
    </TTGlyph>
    <TTGlyph name="Omicron" xMin="100" yMin="-29" xMax="1329" yMax="1489">
      <contour>
        <pt x="1047" y="754" on="1"/>
        <pt x="1047" y="843" on="0"/>
        <pt x="1013" y="1013" on="0"/>
        <pt x="978" y="1086" on="1"/>
        <pt x="944" y="1158" on="0"/>
        <pt x="874" y="1204" on="1"/>
        <pt x="806" y="1249" on="0"/>
        <pt x="715" y="1249" on="1"/>
        <pt x="640" y="1249" on="0"/>
        <pt x="582" y="1219" on="1"/>
        <pt x="526" y="1190" on="0"/>
        <pt x="488" y="1140" on="1"/>
        <pt x="448" y="1087" on="0"/>
        <pt x="426" y="1026" on="1"/>
        <pt x="400" y="955" on="0"/>
        <pt x="392" y="893" on="1"/>
        <pt x="383" y="826" on="0"/>
        <pt x="383" y="754" on="1"/>
        <pt x="383" y="672" on="0"/>
        <pt x="393" y="602" on="1"/>
        <pt x="404" y="527" on="0"/>
        <pt x="427" y="457" on="1"/>
        <pt x="452" y="383" on="0"/>
        <pt x="488" y="332" on="1"/>
        <pt x="526" y="279" on="0"/>
        <pt x="642" y="213" on="0"/>
        <pt x="715" y="213" on="1"/>
        <pt x="790" y="213" on="0"/>
        <pt x="848" y="246" on="1"/>
        <pt x="905" y="278" on="0"/>
        <pt x="942" y="332" on="1"/>
        <pt x="982" y="390" on="0"/>
        <pt x="1004" y="457" on="1"/>
        <pt x="1030" y="534" on="0"/>
        <pt x="1038" y="602" on="1"/>
        <pt x="1047" y="675" on="0"/>
      </contour>
      <contour>
        <pt x="100" y="754" on="1"/>
        <pt x="100" y="852" on="0"/>
        <pt x="120" y="954" on="1"/>
        <pt x="139" y="1049" on="0"/>
        <pt x="187" y="1150" on="1"/>
        <pt x="232" y="1245" on="0"/>
        <pt x="303" y="1322" on="1"/>
        <pt x="372" y="1397" on="0"/>
        <pt x="478" y="1443" on="1"/>
        <pt x="583" y="1489" on="0"/>
        <pt x="847" y="1489" on="0"/>
        <pt x="952" y="1443" on="1"/>
        <pt x="1058" y="1397" on="0"/>
        <pt x="1127" y="1323" on="1"/>
        <pt x="1194" y="1252" on="0"/>
        <pt x="1290" y="1050" on="0"/>
        <pt x="1309" y="954" on="1"/>
        <pt x="1329" y="852" on="0"/>
        <pt x="1329" y="754" on="1"/>
        <pt x="1329" y="650" on="0"/>
        <pt x="1309" y="542" on="1"/>
        <pt x="1290" y="441" on="0"/>
        <pt x="1242" y="332" on="1"/>
        <pt x="1196" y="229" on="0"/>
        <pt x="1126" y="148" on="1"/>
        <pt x="1058" y="70" on="0"/>
        <pt x="951" y="20" on="1"/>
        <pt x="846" y="-29" on="0"/>
        <pt x="715" y="-29" on="1"/>
        <pt x="585" y="-29" on="0"/>
        <pt x="480" y="20" on="1"/>
        <pt x="371" y="71" on="0"/>
        <pt x="304" y="148" on="1"/>
        <pt x="234" y="229" on="0"/>
        <pt x="188" y="331" on="1"/>
        <pt x="141" y="436" on="0"/>
        <pt x="120" y="541" on="1"/>
        <pt x="100" y="642" on="0"/>
      </contour>
    </TTGlyph>
    <TTGlyph name="Omicrontonos" xMin="42" yMin="-29" xMax="1440" yMax="1599">
      <component glyphName="Omicron" x="111" y="0" flags="0x1004"/>
      <component glyphName="tonos" x="-423" y="0" flags="0x1004"/>
    </TTGlyph>
    <TTGlyph name="Oslash" xMin="100" yMin="-29" xMax="1329" yMax="1493">
      <contour>
        <pt x="545" y="-6" on="1"/>
        <pt x="532" y="-29" on="1"/>
        <pt x="248" y="-29" on="1"/>
        <pt x="315" y="135" on="1"/>
        <pt x="214" y="236" on="0"/>
        <pt x="100" y="580" on="0"/>
        <pt x="100" y="727" on="1"/>
        <pt x="100" y="842" on="0"/>
        <pt x="142" y="1055" on="0"/>
        <pt x="237" y="1254" on="0"/>
        <pt x="377" y="1401" on="0"/>
        <pt x="590" y="1489" on="0"/>
        <pt x="721" y="1489" on="1"/>
        <pt x="821" y="1489" on="0"/>
        <pt x="881" y="1466" on="1"/>
        <pt x="889" y="1493" on="1"/>
        <pt x="1161" y="1493" on="1"/>
        <pt x="1100" y="1348" on="1"/>
        <pt x="1221" y="1238" on="0"/>
        <pt x="1329" y="913" on="0"/>
        <pt x="1329" y="727" on="1"/>
        <pt x="1329" y="641" on="0"/>
        <pt x="1294" y="452" on="0"/>
        <pt x="1204" y="243" on="0"/>
        <pt x="1070" y="79" on="0"/>
        <pt x="851" y="-29" on="0"/>
        <pt x="715" y="-29" on="1"/>
        <pt x="629" y="-29" on="0"/>
      </contour>
      <contour>
        <pt x="637" y="223" on="1"/>
        <pt x="646" y="222" on="0"/>
        <pt x="670" y="216" on="0"/>
        <pt x="694" y="213" on="0"/>
        <pt x="713" y="213" on="1"/>
        <pt x="777" y="213" on="0"/>
        <pt x="883" y="262" on="0"/>
        <pt x="953" y="347" on="0"/>
        <pt x="1006" y="450" on="0"/>
        <pt x="1034" y="569" on="0"/>
        <pt x="1047" y="676" on="0"/>
        <pt x="1047" y="727" on="1"/>
        <pt x="1047" y="927" on="0"/>
        <pt x="985" y="1067" on="1"/>
      </contour>
      <contour>
        <pt x="440" y="426" on="1"/>
        <pt x="784" y="1241" on="1"/>
        <pt x="781" y="1241" on="0"/>
        <pt x="743" y="1249" on="0"/>
        <pt x="721" y="1249" on="1"/>
        <pt x="642" y="1249" on="0"/>
        <pt x="519" y="1184" on="0"/>
        <pt x="445" y="1082" on="0"/>
        <pt x="398" y="940" on="0"/>
        <pt x="381" y="803" on="0"/>
        <pt x="381" y="727" on="1"/>
        <pt x="381" y="670" on="0"/>
        <pt x="415" y="481" on="0"/>
      </contour>
    </TTGlyph>
    <TTGlyph name="Otilde" xMin="100" yMin="-29" xMax="1329" yMax="1947">
      <component glyphName="asciitilde" x="352" y="1036" flags="0x1004"/>
      <component glyphName="O" x="0" y="0" flags="0x1004"/>
    </TTGlyph>
    <TTGlyph name="P" xMin="115" yMin="0" xMax="1103" yMax="1456">
      <contour>
        <pt x="383" y="824" on="1"/>
        <pt x="454" y="824" on="1"/>
        <pt x="533" y="824" on="0"/>
        <pt x="638" y="831" on="0"/>
        <pt x="738" y="854" on="0"/>
        <pt x="795" y="897" on="0"/>
        <pt x="829" y="968" on="0"/>
        <pt x="829" y="1072" on="0"/>
        <pt x="795" y="1143" on="0"/>
        <pt x="738" y="1186" on="0"/>
        <pt x="638" y="1209" on="0"/>
        <pt x="533" y="1216" on="0"/>
        <pt x="454" y="1216" on="1"/>
        <pt x="383" y="1216" on="1"/>
      </contour>
      <contour>
        <pt x="115" y="1456" on="1"/>
        <pt x="383" y="1456" on="1"/>
        <pt x="463" y="1456" on="0"/>
        <pt x="563" y="1453" on="0"/>
        <pt x="731" y="1436" on="0"/>
        <pt x="840" y="1404" on="0"/>
        <pt x="972" y="1340" on="0"/>
        <pt x="1050" y="1250" on="0"/>
        <pt x="1103" y="1109" on="0"/>
        <pt x="1103" y="931" on="0"/>
        <pt x="1050" y="791" on="0"/>
        <pt x="972" y="701" on="0"/>
        <pt x="841" y="636" on="0"/>
        <pt x="730" y="604" on="0"/>
        <pt x="563" y="587" on="0"/>
        <pt x="462" y="584" on="0"/>
        <pt x="383" y="584" on="1"/>
        <pt x="383" y="0" on="1"/>
        <pt x="115" y="0" on="1"/>
      </contour>
    </TTGlyph>
    <TTGlyph name="Pdotaccent" xMin="115" yMin="0" xMax="1103" yMax="1921">
      <component glyphName="P" x="0" y="0" flags="0x1004"/>
      <component glyphName="dotaccent" x="84" y="0" flags="0x1004"/>
    </TTGlyph>
    <TTGlyph name="Phi" xMin="96" yMin="0" xMax="1462" yMax="1454">
      <contour>
        <pt x="925" y="315" on="1"/>
        <pt x="925" y="0" on="1"/>
        <pt x="682" y="0" on="1"/>
        <pt x="682" y="314" on="1"/>
        <pt x="630" y="320" on="0"/>
        <pt x="609" y="324" on="1"/>
        <pt x="510" y="341" on="0"/>
        <pt x="420" y="377" on="1"/>
        <pt x="326" y="414" on="0"/>
        <pt x="255" y="470" on="1"/>
        <pt x="182" y="527" on="0"/>
        <pt x="140" y="610" on="1"/>
        <pt x="96" y="696" on="0"/>
        <pt x="96" y="799" on="1"/>
        <pt x="96" y="901" on="0"/>
        <pt x="140" y="987" on="1"/>
        <pt x="183" y="1071" on="0"/>
        <pt x="255" y="1128" on="1"/>
        <pt x="321" y="1180" on="0"/>
        <pt x="420" y="1220" on="1"/>
        <pt x="513" y="1258" on="0"/>
        <pt x="609" y="1274" on="1"/>
        <pt x="654" y="1282" on="0"/>
        <pt x="682" y="1285" on="1"/>
        <pt x="682" y="1454" on="1"/>
        <pt x="925" y="1454" on="1"/>
        <pt x="925" y="1283" on="1"/>
        <pt x="946" y="1281" on="0"/>
        <pt x="980" y="1275" on="1"/>
        <pt x="1070" y="1258" on="0"/>
        <pt x="1157" y="1221" on="1"/>
        <pt x="1245" y="1183" on="0"/>
        <pt x="1379" y="1073" on="0"/>
        <pt x="1421" y="988" on="1"/>
        <pt x="1462" y="905" on="0"/>
        <pt x="1462" y="693" on="0"/>
        <pt x="1421" y="610" on="1"/>
        <pt x="1379" y="524" on="0"/>
        <pt x="1313" y="469" on="1"/>
        <pt x="1250" y="416" on="0"/>
        <pt x="1158" y="377" on="1"/>
        <pt x="1074" y="341" on="0"/>
        <pt x="981" y="324" on="1"/>
        <pt x="930" y="316" on="0"/>
      </contour>
      <contour>
        <pt x="925" y="1057" on="1"/>
        <pt x="925" y="541" on="1"/>
        <pt x="936" y="542" on="0"/>
        <pt x="958" y="546" on="1"/>
        <pt x="1030" y="559" on="0"/>
        <pt x="1099" y="588" on="1"/>
        <pt x="1164" y="616" on="0"/>
        <pt x="1206" y="671" on="1"/>
        <pt x="1246" y="724" on="0"/>
        <pt x="1246" y="799" on="1"/>
        <pt x="1246" y="858" on="0"/>
        <pt x="1219" y="905" on="1"/>
        <pt x="1191" y="953" on="0"/>
        <pt x="1148" y="981" on="1"/>
        <pt x="1101" y="1012" on="0"/>
        <pt x="1045" y="1030" on="1"/>
        <pt x="984" y="1050" on="0"/>
        <pt x="926" y="1057" on="1"/>
      </contour>
      <contour>
        <pt x="682" y="539" on="1"/>
        <pt x="682" y="1058" on="1"/>
        <pt x="679" y="1058" on="0"/>
        <pt x="667" y="1056" on="0"/>
        <pt x="664" y="1056" on="1"/>
        <pt x="597" y="1048" on="0"/>
        <pt x="533" y="1029" on="1"/>
        <pt x="468" y="1009" on="0"/>
        <pt x="421" y="980" on="1"/>
        <pt x="372" y="950" on="0"/>
        <pt x="343" y="904" on="1"/>
        <pt x="314" y="859" on="0"/>
        <pt x="314" y="799" on="1"/>
        <pt x="314" y="738" on="0"/>
        <pt x="343" y="693" on="1"/>
        <pt x="374" y="645" on="0"/>
        <pt x="421" y="617" on="1"/>
        <pt x="473" y="586" on="0"/>
        <pt x="533" y="568" on="1"/>
        <pt x="597" y="549" on="0"/>
        <pt x="664" y="541" on="1"/>
        <pt x="667" y="540" on="0"/>
        <pt x="679" y="540" on="0"/>
      </contour>
    </TTGlyph>
    <TTGlyph name="Pi" xMin="115" yMin="0" xMax="1137" yMax="1456">
      <contour>
        <pt x="115" y="1456" on="1"/>
        <pt x="1137" y="1456" on="1"/>
        <pt x="1137" y="0" on="1"/>
        <pt x="868" y="0" on="1"/>
        <pt x="868" y="1217" on="1"/>
        <pt x="383" y="1217" on="1"/>
        <pt x="383" y="0" on="1"/>
        <pt x="115" y="0" on="1"/>
      </contour>
    </TTGlyph>
    <TTGlyph name="Psi" xMin="92" yMin="0" xMax="1036" yMax="1459">
      <contour>
        <pt x="1036" y="1458" on="1"/>
        <pt x="1036" y="1458" on="0"/>
        <pt x="1036" y="944" on="1"/>
        <pt x="1036" y="683" on="0"/>
        <pt x="913" y="530" on="1"/>
        <pt x="830" y="428" on="0"/>
        <pt x="702" y="395" on="1"/>
        <pt x="702" y="0" on="1"/>
        <pt x="433" y="0" on="1"/>
        <pt x="433" y="393" on="1"/>
        <pt x="300" y="426" on="0"/>
        <pt x="216" y="529" on="1"/>
        <pt x="92" y="682" on="0"/>
        <pt x="92" y="938" on="1"/>
        <pt x="92" y="938" on="0"/>
        <pt x="92" y="944" on="1"/>
        <pt x="95" y="1458" on="1"/>
        <pt x="346" y="1458" on="1"/>
        <pt x="344" y="944" on="1"/>
        <pt x="344" y="944" on="0"/>
        <pt x="344" y="937" on="1"/>
        <pt x="344" y="735" on="0"/>
        <pt x="433" y="658" on="1"/>
        <pt x="433" y="1455" on="1"/>
        <pt x="702" y="1455" on="1"/>
        <pt x="702" y="660" on="1"/>
        <pt x="788" y="738" on="0"/>
        <pt x="788" y="944" on="1"/>
        <pt x="785" y="1459" on="1"/>
      </contour>
    </TTGlyph>
    <TTGlyph name="Q" xMin="98" yMin="-35" xMax="1336" yMax="1495">
      <contour>
        <pt x="1047" y="754" on="1"/>
        <pt x="1047" y="892" on="0"/>
        <pt x="980" y="1113" on="0"/>
        <pt x="828" y="1255" on="0"/>
        <pt x="719" y="1255" on="1"/>
        <pt x="628" y="1255" on="0"/>
        <pt x="494" y="1169" on="0"/>
        <pt x="420" y="1022" on="0"/>
        <pt x="385" y="851" on="0"/>
        <pt x="385" y="754" on="1"/>
        <pt x="385" y="694" on="0"/>
        <pt x="398" y="575" on="0"/>
        <pt x="427" y="449" on="0"/>
        <pt x="478" y="342" on="0"/>
        <pt x="548" y="256" on="0"/>
        <pt x="651" y="207" on="0"/>
        <pt x="713" y="207" on="1"/>
        <pt x="807" y="207" on="0"/>
        <pt x="846" y="244" on="1"/>
        <pt x="686" y="362" on="1"/>
        <pt x="833" y="559" on="1"/>
        <pt x="991" y="428" on="1"/>
        <pt x="1014" y="471" on="0"/>
        <pt x="1047" y="675" on="0"/>
      </contour>
      <contour>
        <pt x="98" y="754" on="1"/>
        <pt x="98" y="849" on="0"/>
        <pt x="137" y="1043" on="0"/>
        <pt x="230" y="1243" on="0"/>
        <pt x="368" y="1397" on="0"/>
        <pt x="585" y="1495" on="0"/>
        <pt x="719" y="1495" on="1"/>
        <pt x="844" y="1495" on="0"/>
        <pt x="1051" y="1408" on="0"/>
        <pt x="1188" y="1263" on="0"/>
        <pt x="1283" y="1070" on="0"/>
        <pt x="1325" y="863" on="0"/>
        <pt x="1325" y="754" on="1"/>
        <pt x="1325" y="592" on="0"/>
        <pt x="1253" y="337" on="0"/>
        <pt x="1200" y="260" on="1"/>
        <pt x="1336" y="161" on="1"/>
        <pt x="1186" y="-29" on="1"/>
        <pt x="1053" y="80" on="1"/>
        <pt x="995" y="28" on="0"/>
        <pt x="815" y="-35" on="0"/>
        <pt x="709" y="-35" on="1"/>
        <pt x="588" y="-35" on="0"/>
        <pt x="383" y="58" on="0"/>
        <pt x="243" y="214" on="0"/>
        <pt x="144" y="420" on="0"/>
        <pt x="98" y="641" on="0"/>
      </contour>
    </TTGlyph>
    <TTGlyph name="R" xMin="115" yMin="-1" xMax="1158" yMax="1455">
      <contour>
        <pt x="383" y="824" on="1"/>
        <pt x="454" y="824" on="1"/>
        <pt x="533" y="824" on="0"/>
        <pt x="638" y="831" on="0"/>
        <pt x="738" y="854" on="0"/>
        <pt x="795" y="896" on="0"/>
        <pt x="829" y="968" on="0"/>
        <pt x="829" y="1070" on="0"/>
        <pt x="795" y="1142" on="0"/>
        <pt x="738" y="1185" on="0"/>
        <pt x="638" y="1209" on="0"/>
        <pt x="533" y="1216" on="0"/>
        <pt x="454" y="1216" on="1"/>
        <pt x="383" y="1216" on="1"/>
      </contour>
      <contour>
        <pt x="852" y="-1" on="1"/>
        <pt x="533" y="582" on="1"/>
        <pt x="507" y="580" on="0"/>
        <pt x="474" y="580" on="1"/>
        <pt x="457" y="580" on="0"/>
        <pt x="393" y="581" on="0"/>
        <pt x="383" y="581" on="1"/>
        <pt x="383" y="-1" on="1"/>
        <pt x="115" y="-1" on="1"/>
        <pt x="115" y="1455" on="1"/>
        <pt x="383" y="1455" on="1"/>
        <pt x="462" y="1455" on="0"/>
        <pt x="563" y="1452" on="0"/>
        <pt x="730" y="1435" on="0"/>
        <pt x="841" y="1403" on="0"/>
        <pt x="972" y="1338" on="0"/>
        <pt x="1050" y="1248" on="0"/>
        <pt x="1103" y="1108" on="0"/>
        <pt x="1103" y="1019" on="1"/>
        <pt x="1103" y="867" on="0"/>
        <pt x="950" y="666" on="0"/>
        <pt x="798" y="626" on="1"/>
        <pt x="1158" y="-1" on="1"/>
      </contour>
    </TTGlyph>
    <TTGlyph name="Racute" xMin="115" yMin="-1" xMax="1158" yMax="1945">
      <component glyphName="acute" x="308" y="0" flags="0x1004"/>
      <component glyphName="R" x="0" y="0" flags="0x1004"/>
    </TTGlyph>
    <TTGlyph name="Rcaron" xMin="115" yMin="-1" xMax="1158" yMax="1902">
      <component glyphName="caron" x="-183" y="-4" flags="0x1004"/>
      <component glyphName="R" x="0" y="0" flags="0x1004"/>
    </TTGlyph>
    <TTGlyph name="Rcommaaccent" xMin="115" yMin="-365" xMax="1158" yMax="1455">
      <component glyphName="cedilla" x="345" y="0" flags="0x1004"/>
      <component glyphName="R" x="0" y="0" flags="0x1004"/>
    </TTGlyph>
    <TTGlyph name="Rho" xMin="121" yMin="0" xMax="1069" yMax="1456">
      <contour>
        <pt x="389" y="823" on="1"/>
        <pt x="519" y="823" on="1"/>
        <pt x="795" y="823" on="0"/>
        <pt x="795" y="1217" on="0"/>
        <pt x="519" y="1217" on="1"/>
        <pt x="389" y="1217" on="1"/>
      </contour>
      <contour>
        <pt x="121" y="1456" on="1"/>
        <pt x="389" y="1456" on="1"/>
        <pt x="519" y="1456" on="1"/>
        <pt x="655" y="1456" on="0"/>
        <pt x="760" y="1422" on="1"/>
        <pt x="870" y="1386" on="0"/>
        <pt x="934" y="1328" on="1"/>
        <pt x="999" y="1269" on="0"/>
        <pt x="1069" y="1111" on="0"/>
        <pt x="1069" y="1020" on="1"/>
        <pt x="1069" y="928" on="0"/>
        <pt x="1032" y="850" on="1"/>
        <pt x="994" y="769" on="0"/>
        <pt x="926" y="710" on="1"/>
        <pt x="856" y="649" on="0"/>
        <pt x="752" y="615" on="1"/>
        <pt x="645" y="580" on="0"/>
        <pt x="519" y="580" on="1"/>
        <pt x="389" y="580" on="1"/>
        <pt x="389" y="0" on="1"/>
        <pt x="121" y="0" on="1"/>
      </contour>
    </TTGlyph>
    <TTGlyph name="S" xMin="83" yMin="-29" xMax="1126" yMax="1492">
      <contour>
        <pt x="83" y="404" on="1"/>
        <pt x="351" y="447" on="1"/>
        <pt x="376" y="346" on="0"/>
        <pt x="510" y="213" on="0"/>
        <pt x="620" y="213" on="1"/>
        <pt x="731" y="213" on="0"/>
        <pt x="852" y="319" on="0"/>
        <pt x="852" y="404" on="1"/>
        <pt x="852" y="450" on="0"/>
        <pt x="814" y="525" on="0"/>
        <pt x="757" y="574" on="0"/>
        <pt x="662" y="623" on="0"/>
        <pt x="577" y="655" on="0"/>
        <pt x="451" y="705" on="0"/>
        <pt x="406" y="726" on="1"/>
        <pt x="346" y="755" on="0"/>
        <pt x="264" y="808" on="0"/>
        <pt x="179" y="893" on="0"/>
        <pt x="135" y="1013" on="0"/>
        <pt x="135" y="1090" on="1"/>
        <pt x="135" y="1188" on="0"/>
        <pt x="216" y="1345" on="0"/>
        <pt x="354" y="1442" on="0"/>
        <pt x="525" y="1492" on="0"/>
        <pt x="620" y="1492" on="1"/>
        <pt x="788" y="1492" on="0"/>
        <pt x="1045" y="1318" on="0"/>
        <pt x="1089" y="1186" on="1"/>
        <pt x="816" y="1135" on="1"/>
        <pt x="767" y="1251" on="0"/>
        <pt x="620" y="1251" on="1"/>
        <pt x="527" y="1251" on="0"/>
        <pt x="409" y="1176" on="0"/>
        <pt x="409" y="1090" on="1"/>
        <pt x="409" y="1050" on="0"/>
        <pt x="463" y="982" on="0"/>
        <pt x="562" y="929" on="0"/>
        <pt x="657" y="890" on="0"/>
        <pt x="782" y="843" on="0"/>
        <pt x="814" y="828" on="1"/>
        <pt x="871" y="801" on="0"/>
        <pt x="957" y="749" on="0"/>
        <pt x="1041" y="674" on="0"/>
        <pt x="1094" y="589" on="0"/>
        <pt x="1126" y="473" on="0"/>
        <pt x="1126" y="404" on="1"/>
        <pt x="1126" y="207" on="0"/>
        <pt x="836" y="-29" on="0"/>
        <pt x="620" y="-29" on="1"/>
        <pt x="411" y="-29" on="0"/>
        <pt x="112" y="210" on="0"/>
      </contour>
    </TTGlyph>
    <TTGlyph name="Sacute" xMin="83" yMin="-29" xMax="1126" yMax="1945">
      <component glyphName="acute" x="404" y="0" flags="0x1004"/>
      <component glyphName="S" x="0" y="0" flags="0x1004"/>
    </TTGlyph>
    <TTGlyph name="Scaron" xMin="83" yMin="-29" xMax="1126" yMax="1906">
      <component glyphName="caron" x="-63" y="0" flags="0x1004"/>
      <component glyphName="S" x="0" y="0" flags="0x1004"/>
    </TTGlyph>
    <TTGlyph name="Scedilla" xMin="83" yMin="-365" xMax="1126" yMax="1492">
      <component glyphName="cedilla" x="345" y="0" flags="0x1004"/>
      <component glyphName="S" x="0" y="0" flags="0x1004"/>
    </TTGlyph>
    <TTGlyph name="Scircumflex" xMin="83" yMin="-29" xMax="1126" yMax="1906">
      <component glyphName="circumflex" x="-117" y="0" flags="0x1004"/>
      <component glyphName="S" x="0" y="0" flags="0x1004"/>
    </TTGlyph>
    <TTGlyph name="Scommaaccent" xMin="83" yMin="-503" xMax="1126" yMax="1492">
      <component glyphName="S" x="0" y="0" flags="0x1004"/>
      <component glyphName="uni0326" x="393" y="0" flags="0x1004"/>
    </TTGlyph>
    <TTGlyph name="Sdotaccent" xMin="83" yMin="-29" xMax="1126" yMax="1921">
      <component glyphName="S" x="0" y="0" flags="0x1004"/>
      <component glyphName="dotaccent" x="160" y="0" flags="0x1004"/>
    </TTGlyph>
    <TTGlyph name="Sigma" xMin="50" yMin="0" xMax="1152" yMax="1425">
      <contour>
        <pt x="1152" y="0" on="1"/>
        <pt x="50" y="0" on="1"/>
        <pt x="50" y="360" on="1"/>
        <pt x="383" y="709" on="1"/>
        <pt x="50" y="1066" on="1"/>
        <pt x="50" y="1425" on="1"/>
        <pt x="1152" y="1425" on="1"/>
        <pt x="1152" y="1163" on="1"/>
        <pt x="328" y="1163" on="1"/>
        <pt x="750" y="708" on="1"/>
        <pt x="338" y="262" on="1"/>
        <pt x="1152" y="262" on="1"/>
      </contour>
    </TTGlyph>
    <TTGlyph name="T" xMin="78" yMin="0" xMax="1280" yMax="1456">
      <contour>
        <pt x="78" y="1456" on="1"/>
        <pt x="1280" y="1456" on="1"/>
        <pt x="1280" y="1216" on="1"/>
        <pt x="823" y="1216" on="1"/>
        <pt x="823" y="0" on="1"/>
        <pt x="555" y="0" on="1"/>
        <pt x="555" y="1216" on="1"/>
        <pt x="78" y="1216" on="1"/>
      </contour>
    </TTGlyph>
    <TTGlyph name="Tau" xMin="78" yMin="0" xMax="1280" yMax="1456">
      <contour>
        <pt x="78" y="1456" on="1"/>
        <pt x="1280" y="1456" on="1"/>
        <pt x="1280" y="1217" on="1"/>
        <pt x="823" y="1217" on="1"/>
        <pt x="823" y="0" on="1"/>
        <pt x="555" y="0" on="1"/>
        <pt x="555" y="1217" on="1"/>
        <pt x="78" y="1217" on="1"/>
      </contour>
    </TTGlyph>
    <TTGlyph name="Tbar" xMin="78" yMin="0" xMax="1280" yMax="1456">
      <contour>
        <pt x="78" y="1456" on="1"/>
        <pt x="1280" y="1456" on="1"/>
        <pt x="1280" y="1216" on="1"/>
        <pt x="823" y="1216" on="1"/>
        <pt x="823" y="754" on="1"/>
        <pt x="1068" y="754" on="1"/>
        <pt x="1068" y="514" on="1"/>
        <pt x="823" y="514" on="1"/>
        <pt x="823" y="0" on="1"/>
        <pt x="555" y="0" on="1"/>
        <pt x="555" y="514" on="1"/>
        <pt x="296" y="514" on="1"/>
        <pt x="296" y="754" on="1"/>
        <pt x="555" y="754" on="1"/>
        <pt x="555" y="1216" on="1"/>
        <pt x="78" y="1216" on="1"/>
      </contour>
    </TTGlyph>
    <TTGlyph name="Tcaron" xMin="78" yMin="0" xMax="1280" yMax="1908">
      <component glyphName="caron" x="-24" y="2" flags="0x1004"/>
      <component glyphName="T" x="0" y="0" flags="0x1004"/>
    </TTGlyph>
    <TTGlyph name="Tcommaaccent" xMin="78" yMin="-365" xMax="1280" yMax="1456">
      <component glyphName="cedilla" x="423" y="0" flags="0x1004"/>
      <component glyphName="T" x="0" y="0" flags="0x1004"/>
    </TTGlyph>
    <TTGlyph name="Tdotaccent" xMin="78" yMin="0" xMax="1280" yMax="1921">
      <component glyphName="T" x="0" y="0" flags="0x1004"/>
      <component glyphName="dotaccent" x="224" y="0" flags="0x1004"/>
    </TTGlyph>
    <TTGlyph name="Theta" xMin="100" yMin="-29" xMax="1329" yMax="1489">
      <contour>
        <pt x="486" y="867" on="1"/>
        <pt x="939" y="867" on="1"/>
        <pt x="939" y="627" on="1"/>
        <pt x="486" y="627" on="1"/>
      </contour>
      <contour>
        <pt x="1047" y="754" on="1"/>
        <pt x="1047" y="843" on="0"/>
        <pt x="1013" y="1013" on="0"/>
        <pt x="978" y="1086" on="1"/>
        <pt x="944" y="1158" on="0"/>
        <pt x="874" y="1204" on="1"/>
        <pt x="806" y="1249" on="0"/>
        <pt x="715" y="1249" on="1"/>
        <pt x="640" y="1249" on="0"/>
        <pt x="582" y="1219" on="1"/>
        <pt x="526" y="1190" on="0"/>
        <pt x="488" y="1140" on="1"/>
        <pt x="448" y="1087" on="0"/>
        <pt x="426" y="1026" on="1"/>
        <pt x="400" y="955" on="0"/>
        <pt x="392" y="893" on="1"/>
        <pt x="383" y="826" on="0"/>
        <pt x="383" y="754" on="1"/>
        <pt x="383" y="672" on="0"/>
        <pt x="393" y="602" on="1"/>
        <pt x="404" y="527" on="0"/>
        <pt x="427" y="457" on="1"/>
        <pt x="452" y="383" on="0"/>
        <pt x="488" y="332" on="1"/>
        <pt x="526" y="279" on="0"/>
        <pt x="642" y="213" on="0"/>
        <pt x="715" y="213" on="1"/>
        <pt x="790" y="213" on="0"/>
        <pt x="848" y="246" on="1"/>
        <pt x="905" y="278" on="0"/>
        <pt x="942" y="332" on="1"/>
        <pt x="982" y="390" on="0"/>
        <pt x="1004" y="457" on="1"/>
        <pt x="1030" y="534" on="0"/>
        <pt x="1038" y="602" on="1"/>
        <pt x="1047" y="675" on="0"/>
      </contour>
      <contour>
        <pt x="100" y="754" on="1"/>
        <pt x="100" y="852" on="0"/>
        <pt x="120" y="954" on="1"/>
        <pt x="139" y="1049" on="0"/>
        <pt x="187" y="1150" on="1"/>
        <pt x="232" y="1245" on="0"/>
        <pt x="303" y="1322" on="1"/>
        <pt x="372" y="1397" on="0"/>
        <pt x="478" y="1443" on="1"/>
        <pt x="583" y="1489" on="0"/>
        <pt x="847" y="1489" on="0"/>
        <pt x="952" y="1443" on="1"/>
        <pt x="1058" y="1397" on="0"/>
        <pt x="1127" y="1323" on="1"/>
        <pt x="1194" y="1252" on="0"/>
        <pt x="1290" y="1050" on="0"/>
        <pt x="1309" y="954" on="1"/>
        <pt x="1329" y="852" on="0"/>
        <pt x="1329" y="754" on="1"/>
        <pt x="1329" y="650" on="0"/>
        <pt x="1309" y="542" on="1"/>
        <pt x="1290" y="441" on="0"/>
        <pt x="1242" y="332" on="1"/>
        <pt x="1196" y="229" on="0"/>
        <pt x="1126" y="148" on="1"/>
        <pt x="1058" y="70" on="0"/>
        <pt x="951" y="20" on="1"/>
        <pt x="846" y="-29" on="0"/>
        <pt x="715" y="-29" on="1"/>
        <pt x="585" y="-29" on="0"/>
        <pt x="480" y="20" on="1"/>
        <pt x="371" y="71" on="0"/>
        <pt x="304" y="148" on="1"/>
        <pt x="234" y="229" on="0"/>
        <pt x="188" y="331" on="1"/>
        <pt x="141" y="436" on="0"/>
        <pt x="120" y="541" on="1"/>
        <pt x="100" y="642" on="0"/>
      </contour>
    </TTGlyph>
    <TTGlyph name="Thorn" xMin="135" yMin="0" xMax="1072" yMax="1456">
      <contour>
        <pt x="403" y="526" on="1"/>
        <pt x="465" y="526" on="0"/>
        <pt x="573" y="537" on="0"/>
        <pt x="681" y="568" on="0"/>
        <pt x="757" y="617" on="0"/>
        <pt x="805" y="698" on="0"/>
        <pt x="805" y="750" on="1"/>
        <pt x="805" y="961" on="0"/>
        <pt x="403" y="961" on="1"/>
      </contour>
      <contour>
        <pt x="135" y="1456" on="1"/>
        <pt x="403" y="1456" on="1"/>
        <pt x="403" y="1199" on="1"/>
        <pt x="494" y="1199" on="0"/>
        <pt x="652" y="1181" on="0"/>
        <pt x="807" y="1142" on="0"/>
        <pt x="928" y="1073" on="0"/>
        <pt x="1022" y="977" on="0"/>
        <pt x="1072" y="837" on="0"/>
        <pt x="1072" y="750" on="1"/>
        <pt x="1072" y="638" on="0"/>
        <pt x="996" y="470" on="0"/>
        <pt x="874" y="370" on="0"/>
        <pt x="695" y="309" on="0"/>
        <pt x="514" y="287" on="0"/>
        <pt x="403" y="287" on="1"/>
        <pt x="403" y="0" on="1"/>
        <pt x="135" y="0" on="1"/>
      </contour>
    </TTGlyph>
    <TTGlyph name="U" xMin="115" yMin="-35" xMax="1160" yMax="1456">
      <contour>
        <pt x="637" y="-35" on="1"/>
        <pt x="471" y="-35" on="0"/>
        <pt x="232" y="125" on="0"/>
        <pt x="115" y="402" on="0"/>
        <pt x="115" y="586" on="1"/>
        <pt x="115" y="1456" on="1"/>
        <pt x="383" y="1456" on="1"/>
        <pt x="383" y="586" on="1"/>
        <pt x="383" y="513" on="0"/>
        <pt x="409" y="385" on="0"/>
        <pt x="465" y="271" on="0"/>
        <pt x="568" y="205" on="0"/>
        <pt x="637" y="205" on="1"/>
        <pt x="693" y="205" on="0"/>
        <pt x="782" y="250" on="0"/>
        <pt x="839" y="323" on="0"/>
        <pt x="877" y="424" on="0"/>
        <pt x="892" y="529" on="0"/>
        <pt x="892" y="586" on="1"/>
        <pt x="892" y="1456" on="1"/>
        <pt x="1160" y="1456" on="1"/>
        <pt x="1160" y="586" on="1"/>
        <pt x="1160" y="402" on="0"/>
        <pt x="1042" y="125" on="0"/>
        <pt x="804" y="-35" on="0"/>
      </contour>
    </TTGlyph>
    <TTGlyph name="Uacute" xMin="115" yMin="-35" xMax="1160" yMax="1945">
      <component glyphName="U" x="0" y="0" flags="0x1004"/>
      <component glyphName="acute" x="460" y="0" flags="0x1004"/>
    </TTGlyph>
    <TTGlyph name="Ubreve" xMin="115" yMin="-35" xMax="1160" yMax="1942">
      <component glyphName="breve" x="-76" y="0" flags="0x1004"/>
      <component glyphName="U" x="0" y="0" flags="0x1004"/>
    </TTGlyph>
    <TTGlyph name="Ucircumflex" xMin="115" yMin="-35" xMax="1160" yMax="1910">
      <component glyphName="asciicircum" x="133" y="418" flags="0x1004"/>
      <component glyphName="U" x="0" y="0" flags="0x1004"/>
    </TTGlyph>
    <TTGlyph name="Udieresis" xMin="115" yMin="-35" xMax="1160" yMax="1865">
      <component glyphName="dieresis" x="190" y="-56" flags="0x1004"/>
      <component glyphName="U" x="0" y="0" flags="0x1004"/>
    </TTGlyph>
    <TTGlyph name="Ugrave" xMin="115" yMin="-35" xMax="1160" yMax="1945">
      <component glyphName="U" x="0" y="0" flags="0x1004"/>
      <component glyphName="grave" x="260" y="0" flags="0x1004"/>
    </TTGlyph>
    <TTGlyph name="Uhungarumlaut" xMin="115" yMin="-35" xMax="1160" yMax="1946">
      <component glyphName="hungarumlaut" x="0" y="0" flags="0x1004"/>
      <component glyphName="U" x="0" y="0" flags="0x1004"/>
    </TTGlyph>
    <TTGlyph name="Umacron" xMin="115" yMin="-35" xMax="1160" yMax="1813">
      <component glyphName="macron" x="153" y="0" flags="0x1004"/>
      <component glyphName="U" x="0" y="0" flags="0x1004"/>
    </TTGlyph>
    <TTGlyph name="Uogonek" xMin="115" yMin="-344" xMax="1160" yMax="1456">
      <component glyphName="ogonek" x="448" y="0" flags="0x1004"/>
      <component glyphName="U" x="0" y="0" flags="0x1004"/>
    </TTGlyph>
    <TTGlyph name="Upsilon" xMin="66" yMin="0" xMax="1248" yMax="1456">
      <contour>
        <pt x="66" y="1456" on="1"/>
        <pt x="350" y="1456" on="1"/>
        <pt x="660" y="919" on="1"/>
        <pt x="970" y="1456" on="1"/>
        <pt x="1248" y="1456" on="1"/>
        <pt x="797" y="705" on="1"/>
        <pt x="797" y="0" on="1"/>
        <pt x="528" y="0" on="1"/>
        <pt x="528" y="705" on="1"/>
      </contour>
    </TTGlyph>
    <TTGlyph name="Upsilondieresis" xMin="66" yMin="0" xMax="1248" yMax="1921">
      <component glyphName="Upsilon" x="0" y="0" flags="0x1004"/>
      <component glyphName="dieresis" x="194" y="0" flags="0x1004"/>
    </TTGlyph>
    <TTGlyph name="Upsilontonos" xMin="66" yMin="0" xMax="1248" yMax="1456">
      <contour>
        <pt x="66" y="1456" on="1"/>
        <pt x="350" y="1456" on="1"/>
        <pt x="660" y="919" on="1"/>
        <pt x="970" y="1456" on="1"/>
        <pt x="1248" y="1456" on="1"/>
        <pt x="797" y="705" on="1"/>
        <pt x="797" y="0" on="1"/>
        <pt x="528" y="0" on="1"/>
        <pt x="528" y="705" on="1"/>
      </contour>
    </TTGlyph>
    <TTGlyph name="Uring" xMin="115" yMin="-35" xMax="1160" yMax="1942">
      <component glyphName="ring" x="296" y="0" flags="0x1004"/>
      <component glyphName="U" x="0" y="0" flags="0x1004"/>
    </TTGlyph>
    <TTGlyph name="Utilde" xMin="115" yMin="-35" xMax="1160" yMax="1913">
      <component glyphName="tilde" x="82" y="0" flags="0x1004"/>
      <component glyphName="U" x="0" y="0" flags="0x1004"/>
    </TTGlyph>
    <TTGlyph name="V" xMin="70" yMin="0" xMax="1231" yMax="1456">
      <contour>
        <pt x="953" y="1456" on="1"/>
        <pt x="1231" y="1456" on="1"/>
        <pt x="814" y="0" on="1"/>
        <pt x="497" y="0" on="1"/>
        <pt x="70" y="1456" on="1"/>
        <pt x="359" y="1456" on="1"/>
        <pt x="654" y="411" on="1"/>
      </contour>
    </TTGlyph>
    <TTGlyph name="W" xMin="74" yMin="0" xMax="1546" yMax="1456">
      <contour>
        <pt x="74" y="1456" on="1"/>
        <pt x="345" y="1456" on="1"/>
        <pt x="472" y="498" on="1"/>
        <pt x="653" y="1429" on="1"/>
        <pt x="967" y="1429" on="1"/>
        <pt x="1148" y="492" on="1"/>
        <pt x="1275" y="1456" on="1"/>
        <pt x="1546" y="1456" on="1"/>
        <pt x="1308" y="0" on="1"/>
        <pt x="988" y="0" on="1"/>
        <pt x="810" y="975" on="1"/>
        <pt x="632" y="0" on="1"/>
        <pt x="312" y="0" on="1"/>
      </contour>
    </TTGlyph>
    <TTGlyph name="Wacute" xMin="74" yMin="0" xMax="1546" yMax="1945">
      <component glyphName="W" x="0" y="0" flags="0x1004"/>
      <component glyphName="acute" x="634" y="0" flags="0x1004"/>
    </TTGlyph>
    <TTGlyph name="Wcircumflex" xMin="74" yMin="0" xMax="1546" yMax="1906">
      <component glyphName="circumflex" x="120" y="0" flags="0x1004"/>
      <component glyphName="W" x="0" y="0" flags="0x1004"/>
    </TTGlyph>
    <TTGlyph name="Wdieresis" xMin="74" yMin="0" xMax="1546" yMax="1921">
      <component glyphName="W" x="0" y="0" flags="0x1004"/>
      <component glyphName="dieresis" x="386" y="0" flags="0x1004"/>
    </TTGlyph>
    <TTGlyph name="Wgrave" xMin="74" yMin="0" xMax="1546" yMax="1943">
      <component glyphName="W" x="0" y="0" flags="0x1004"/>
      <component glyphName="grave" x="511" y="-2" flags="0x1004"/>
    </TTGlyph>
    <TTGlyph name="X" xMin="64" yMin="0" xMax="1262" yMax="1455">
      <contour>
        <pt x="67" y="1455" on="1"/>
        <pt x="407" y="1455" on="1"/>
        <pt x="663" y="980" on="1"/>
        <pt x="919" y="1455" on="1"/>
        <pt x="1259" y="1455" on="1"/>
        <pt x="823" y="730" on="1"/>
        <pt x="1262" y="0" on="1"/>
        <pt x="922" y="0" on="1"/>
        <pt x="663" y="480" on="1"/>
        <pt x="404" y="0" on="1"/>
        <pt x="64" y="0" on="1"/>
        <pt x="503" y="730" on="1"/>
      </contour>
    </TTGlyph>
    <TTGlyph name="Xi" xMin="115" yMin="0" xMax="1097" yMax="1457">
      <contour>
        <pt x="115" y="240" on="1"/>
        <pt x="1097" y="241" on="1"/>
        <pt x="1097" y="1" on="1"/>
        <pt x="115" y="0" on="1"/>
      </contour>
      <contour>
        <pt x="115" y="1456" on="1"/>
        <pt x="1097" y="1457" on="1"/>
        <pt x="1097" y="1217" on="1"/>
        <pt x="115" y="1216" on="1"/>
      </contour>
      <contour>
        <pt x="202" y="866" on="1"/>
        <pt x="988" y="867" on="1"/>
        <pt x="988" y="627" on="1"/>
        <pt x="202" y="626" on="1"/>
      </contour>
    </TTGlyph>
    <TTGlyph name="Y" xMin="67" yMin="0" xMax="1259" yMax="1455">
      <contour>
        <pt x="67" y="1455" on="1"/>
        <pt x="407" y="1455" on="1"/>
        <pt x="663" y="980" on="1"/>
        <pt x="919" y="1455" on="1"/>
        <pt x="1259" y="1455" on="1"/>
        <pt x="798" y="690" on="1"/>
        <pt x="798" y="0" on="1"/>
        <pt x="530" y="0" on="1"/>
        <pt x="530" y="690" on="1"/>
      </contour>
    </TTGlyph>
    <TTGlyph name="Yacute" xMin="67" yMin="0" xMax="1259" yMax="2312">
      <component glyphName="acute" x="438" y="367" flags="0x1004"/>
      <component glyphName="Y" x="0" y="0" flags="0x1004"/>
    </TTGlyph>
    <TTGlyph name="Ycircumflex" xMin="67" yMin="0" xMax="1259" yMax="1906">
      <component glyphName="circumflex" x="-63" y="0" flags="0x1004"/>
      <component glyphName="Y" x="0" y="0" flags="0x1004"/>
    </TTGlyph>
    <TTGlyph name="Ydieresis" xMin="67" yMin="0" xMax="1259" yMax="1921">
      <component glyphName="dieresis" x="198" y="0" flags="0x1004"/>
      <component glyphName="Y" x="0" y="0" flags="0x1004"/>
    </TTGlyph>
    <TTGlyph name="Ygrave" xMin="67" yMin="0" xMax="1259" yMax="1945">
      <component glyphName="Y" x="0" y="0" flags="0x1004"/>
      <component glyphName="grave" x="280" y="0" flags="0x1004"/>
    </TTGlyph>
    <TTGlyph name="Z" xMin="72" yMin="0" xMax="1306" yMax="1456">
      <contour>
        <pt x="139" y="1456" on="1"/>
        <pt x="1306" y="1456" on="1"/>
        <pt x="528" y="240" on="1"/>
        <pt x="1300" y="240" on="1"/>
        <pt x="1300" y="0" on="1"/>
        <pt x="72" y="0" on="1"/>
        <pt x="852" y="1216" on="1"/>
        <pt x="139" y="1216" on="1"/>
      </contour>
    </TTGlyph>
    <TTGlyph name="Zacute" xMin="72" yMin="0" xMax="1306" yMax="1945">
      <component glyphName="acute" x="495" y="0" flags="0x1004"/>
      <component glyphName="Z" x="0" y="0" flags="0x1004"/>
    </TTGlyph>
    <TTGlyph name="Zcaron" xMin="72" yMin="0" xMax="1306" yMax="1906">
      <component glyphName="caron" x="0" y="0" flags="0x1004"/>
      <component glyphName="Z" x="0" y="0" flags="0x1004"/>
    </TTGlyph>
    <TTGlyph name="Zdotaccent" xMin="72" yMin="0" xMax="1306" yMax="1869">
      <component glyphName="dotaccent" x="260" y="-52" flags="0x1004"/>
      <component glyphName="Z" x="0" y="0" flags="0x1004"/>
    </TTGlyph>
    <TTGlyph name="Zeta" xMin="72" yMin="0" xMax="1306" yMax="1456">
      <contour>
        <pt x="139" y="1456" on="1"/>
        <pt x="1306" y="1456" on="1"/>
        <pt x="508" y="240" on="1"/>
        <pt x="1300" y="240" on="1"/>
        <pt x="1300" y="0" on="1"/>
        <pt x="72" y="0" on="1"/>
        <pt x="872" y="1217" on="1"/>
        <pt x="139" y="1217" on="1"/>
      </contour>
    </TTGlyph>
    <TTGlyph name="a" xMin="90" yMin="-29" xMax="978" yMax="1102">
      <contour>
        <pt x="623" y="524" on="0"/>
        <pt x="447" y="524" on="0"/>
        <pt x="332" y="423" on="0"/>
        <pt x="332" y="289" on="0"/>
        <pt x="446" y="191" on="0"/>
        <pt x="535" y="191" on="1"/>
        <pt x="623" y="191" on="0"/>
        <pt x="727" y="288" on="0"/>
        <pt x="727" y="424" on="0"/>
      </contour>
      <contour>
        <pt x="450" y="741" on="1"/>
        <pt x="549" y="741" on="0"/>
        <pt x="699" y="640" on="0"/>
        <pt x="719" y="576" on="1"/>
        <pt x="719" y="658" on="1"/>
        <pt x="719" y="717" on="0"/>
        <pt x="686" y="805" on="0"/>
        <pt x="636" y="856" on="0"/>
        <pt x="567" y="887" on="0"/>
        <pt x="506" y="897" on="0"/>
        <pt x="472" y="897" on="1"/>
        <pt x="426" y="897" on="0"/>
        <pt x="337" y="878" on="0"/>
        <pt x="295" y="861" on="0"/>
        <pt x="256" y="844" on="1"/>
        <pt x="153" y="1008" on="1"/>
        <pt x="198" y="1044" on="0"/>
        <pt x="392" y="1102" on="0"/>
        <pt x="472" y="1102" on="1"/>
        <pt x="554" y="1102" on="0"/>
        <pt x="697" y="1071" on="0"/>
        <pt x="829" y="997" on="0"/>
        <pt x="923" y="886" on="0"/>
        <pt x="978" y="716" on="0"/>
        <pt x="978" y="609" on="1"/>
        <pt x="978" y="305" on="1"/>
        <pt x="978" y="0" on="1"/>
        <pt x="721" y="0" on="1"/>
        <pt x="721" y="136" on="1"/>
        <pt x="700" y="72" on="0"/>
        <pt x="553" y="-29" on="0"/>
        <pt x="454" y="-29" on="1"/>
        <pt x="301" y="-29" on="0"/>
        <pt x="90" y="193" on="0"/>
        <pt x="90" y="523" on="0"/>
        <pt x="300" y="741" on="0"/>
      </contour>
    </TTGlyph>
    <TTGlyph name="aacute" xMin="90" yMin="-29" xMax="978" yMax="1595">
      <component glyphName="a" x="0" y="0" flags="0x1004"/>
      <component glyphName="acute" x="278" y="-350" flags="0x1004"/>
    </TTGlyph>
    <TTGlyph name="abreve" xMin="90" yMin="-29" xMax="978" yMax="1592">
      <component glyphName="breve" x="-186" y="-350" flags="0x1004"/>
      <component glyphName="a" x="0" y="0" flags="0x1004"/>
    </TTGlyph>
    <TTGlyph name="acircumflex" xMin="90" yMin="-29" xMax="978" yMax="1482">
      <component glyphName="asciicircum" x="4" y="-10" flags="0x1004"/>
      <component glyphName="a" x="0" y="0" flags="0x1004"/>
    </TTGlyph>
    <TTGlyph name="acute" xMin="78" yMin="1528" xMax="524" yMax="1945">
      <contour>
        <pt x="195" y="1533" on="1"/>
        <pt x="188" y="1528" on="0"/>
        <pt x="182" y="1528" on="1"/>
        <pt x="180" y="1528" on="0"/>
        <pt x="172" y="1530" on="1"/>
        <pt x="154" y="1535" on="0"/>
        <pt x="136" y="1550" on="1"/>
        <pt x="117" y="1566" on="0"/>
        <pt x="93" y="1596" on="0"/>
        <pt x="84" y="1626" on="1"/>
        <pt x="78" y="1646" on="0"/>
        <pt x="78" y="1660" on="1"/>
        <pt x="78" y="1665" on="0"/>
        <pt x="80" y="1675" on="1"/>
        <pt x="82" y="1683" on="0"/>
        <pt x="88" y="1688" on="1"/>
        <pt x="370" y="1935" on="1"/>
        <pt x="381" y="1945" on="0"/>
        <pt x="399" y="1945" on="1"/>
        <pt x="408" y="1945" on="0"/>
        <pt x="418" y="1942" on="1"/>
        <pt x="441" y="1936" on="0"/>
        <pt x="461" y="1921" on="1"/>
        <pt x="480" y="1907" on="0"/>
        <pt x="496" y="1888" on="1"/>
        <pt x="513" y="1868" on="0"/>
        <pt x="520" y="1836" on="1"/>
        <pt x="524" y="1820" on="0"/>
        <pt x="524" y="1802" on="1"/>
        <pt x="524" y="1788" on="0"/>
        <pt x="521" y="1776" on="1"/>
        <pt x="516" y="1756" on="0"/>
        <pt x="503" y="1746" on="1"/>
      </contour>
    </TTGlyph>
    <TTGlyph name="acutecomb" xMin="-964" yMin="1302" xMax="-521" yMax="1556">
      <contour>
        <pt x="-789" y="1556" on="1"/>
        <pt x="-521" y="1556" on="1"/>
        <pt x="-689" y="1302" on="1"/>
        <pt x="-964" y="1302" on="1"/>
      </contour>
    </TTGlyph>
    <TTGlyph name="adieresis" xMin="90" yMin="-29" xMax="978" yMax="1495">
      <component glyphName="dieresis" x="91" y="-426" flags="0x1004"/>
      <component glyphName="a" x="0" y="0" flags="0x1004"/>
    </TTGlyph>
    <TTGlyph name="ae" xMin="90" yMin="-29" xMax="1656" yMax="1102">
      <contour>
        <pt x="623" y="524" on="0"/>
        <pt x="447" y="524" on="0"/>
        <pt x="332" y="423" on="0"/>
        <pt x="332" y="289" on="0"/>
        <pt x="446" y="191" on="0"/>
        <pt x="535" y="191" on="1"/>
        <pt x="623" y="191" on="0"/>
        <pt x="727" y="288" on="0"/>
        <pt x="727" y="424" on="0"/>
      </contour>
      <contour>
        <pt x="1208" y="201" on="1"/>
        <pt x="1307" y="201" on="0"/>
        <pt x="1362" y="267" on="1"/>
        <pt x="1590" y="169" on="1"/>
        <pt x="1528" y="75" on="0"/>
        <pt x="1314" y="-29" on="0"/>
        <pt x="1208" y="-29" on="1"/>
        <pt x="1086" y="-29" on="0"/>
        <pt x="978" y="35" on="1"/>
        <pt x="978" y="0" on="1"/>
        <pt x="721" y="0" on="1"/>
        <pt x="721" y="136" on="1"/>
        <pt x="700" y="72" on="0"/>
        <pt x="553" y="-29" on="0"/>
        <pt x="454" y="-29" on="1"/>
        <pt x="301" y="-29" on="0"/>
        <pt x="90" y="193" on="0"/>
        <pt x="90" y="523" on="0"/>
        <pt x="300" y="741" on="0"/>
        <pt x="450" y="741" on="1"/>
        <pt x="548" y="741" on="0"/>
        <pt x="699" y="641" on="0"/>
        <pt x="719" y="577" on="1"/>
        <pt x="719" y="592" on="1"/>
        <pt x="719" y="658" on="1"/>
        <pt x="719" y="717" on="0"/>
        <pt x="686" y="805" on="0"/>
        <pt x="636" y="856" on="0"/>
        <pt x="567" y="887" on="0"/>
        <pt x="506" y="897" on="0"/>
        <pt x="472" y="897" on="1"/>
        <pt x="426" y="897" on="0"/>
        <pt x="337" y="878" on="0"/>
        <pt x="295" y="861" on="0"/>
        <pt x="256" y="844" on="1"/>
        <pt x="153" y="1008" on="1"/>
        <pt x="198" y="1044" on="0"/>
        <pt x="392" y="1102" on="0"/>
        <pt x="472" y="1102" on="1"/>
        <pt x="736" y="1102" on="0"/>
        <pt x="868" y="949" on="1"/>
        <pt x="933" y="1020" on="0"/>
        <pt x="1104" y="1098" on="0"/>
        <pt x="1199" y="1098" on="1"/>
        <pt x="1331" y="1098" on="0"/>
        <pt x="1540" y="953" on="0"/>
        <pt x="1656" y="697" on="0"/>
        <pt x="1656" y="537" on="1"/>
        <pt x="1656" y="469" on="1"/>
        <pt x="992" y="469" on="1"/>
        <pt x="993" y="404" on="0"/>
        <pt x="1025" y="303" on="0"/>
        <pt x="1071" y="247" on="0"/>
        <pt x="1131" y="212" on="0"/>
        <pt x="1182" y="201" on="0"/>
      </contour>
      <contour>
        <pt x="993" y="651" on="1"/>
        <pt x="1406" y="651" on="1"/>
        <pt x="1399" y="741" on="0"/>
        <pt x="1289" y="868" on="0"/>
        <pt x="1199" y="868" on="1"/>
        <pt x="1110" y="868" on="0"/>
        <pt x="999" y="739" on="0"/>
      </contour>
    </TTGlyph>
    <TTGlyph name="afii10017" xMin="47" yMin="0" xMax="1374" yMax="1456">
      <contour>
        <pt x="726" y="1048" on="1"/>
        <pt x="567" y="625" on="1"/>
        <pt x="867" y="625" on="1"/>
      </contour>
      <contour>
        <pt x="942" y="379" on="1"/>
        <pt x="494" y="379" on="1"/>
        <pt x="358" y="0" on="1"/>
        <pt x="47" y="0" on="1"/>
        <pt x="610" y="1456" on="1"/>
        <pt x="866" y="1456" on="1"/>
        <pt x="1374" y="0" on="1"/>
        <pt x="1067" y="0" on="1"/>
      </contour>
    </TTGlyph>
    <TTGlyph name="afii10018" xMin="121" yMin="0" xMax="1069" yMax="1456">
      <contour>
        <pt x="121" y="0" on="1"/>
        <pt x="121" y="1216" on="1"/>
        <pt x="121" y="1456" on="1"/>
        <pt x="920" y="1456" on="1"/>
        <pt x="920" y="1216" on="1"/>
        <pt x="389" y="1216" on="1"/>
        <pt x="389" y="876" on="1"/>
        <pt x="519" y="876" on="1"/>
        <pt x="645" y="876" on="0"/>
        <pt x="752" y="841" on="1"/>
        <pt x="856" y="807" on="0"/>
        <pt x="926" y="746" on="1"/>
        <pt x="994" y="687" on="0"/>
        <pt x="1032" y="606" on="1"/>
        <pt x="1069" y="528" on="0"/>
        <pt x="1069" y="436" on="1"/>
        <pt x="1069" y="345" on="0"/>
        <pt x="999" y="187" on="0"/>
        <pt x="934" y="128" on="1"/>
        <pt x="870" y="70" on="0"/>
        <pt x="760" y="34" on="1"/>
        <pt x="655" y="0" on="0"/>
        <pt x="519" y="0" on="1"/>
        <pt x="389" y="0" on="1"/>
      </contour>
      <contour>
        <pt x="389" y="633" on="1"/>
        <pt x="389" y="239" on="1"/>
        <pt x="519" y="239" on="1"/>
        <pt x="795" y="239" on="0"/>
        <pt x="795" y="633" on="0"/>
        <pt x="519" y="633" on="1"/>
      </contour>
    </TTGlyph>
    <TTGlyph name="afii10019" xMin="119" yMin="0" xMax="1163" yMax="1456">
      <contour>
        <pt x="387" y="639" on="1"/>
        <pt x="387" y="240" on="1"/>
        <pt x="614" y="240" on="1"/>
        <pt x="769" y="240" on="0"/>
        <pt x="899" y="356" on="0"/>
        <pt x="899" y="447" on="1"/>
        <pt x="899" y="639" on="0"/>
        <pt x="614" y="639" on="1"/>
      </contour>
      <contour>
        <pt x="387" y="1219" on="1"/>
        <pt x="387" y="877" on="1"/>
        <pt x="555" y="877" on="1"/>
        <pt x="692" y="877" on="0"/>
        <pt x="752" y="928" on="1"/>
        <pt x="811" y="978" on="0"/>
        <pt x="811" y="1120" on="0"/>
        <pt x="752" y="1169" on="1"/>
        <pt x="691" y="1219" on="0"/>
        <pt x="555" y="1219" on="1"/>
      </contour>
      <contour>
        <pt x="119" y="1456" on="1"/>
        <pt x="555" y="1456" on="1"/>
        <pt x="645" y="1456" on="0"/>
        <pt x="724" y="1442" on="1"/>
        <pt x="802" y="1428" on="0"/>
        <pt x="854" y="1406" on="1"/>
        <pt x="907" y="1383" on="0"/>
        <pt x="948" y="1350" on="1"/>
        <pt x="987" y="1318" on="0"/>
        <pt x="1012" y="1284" on="1"/>
        <pt x="1034" y="1254" on="0"/>
        <pt x="1050" y="1212" on="1"/>
        <pt x="1065" y="1172" on="0"/>
        <pt x="1070" y="1138" on="1"/>
        <pt x="1075" y="1101" on="0"/>
        <pt x="1075" y="1070" on="1"/>
        <pt x="1075" y="962" on="0"/>
        <pt x="1019" y="894" on="1"/>
        <pt x="963" y="825" on="0"/>
        <pt x="870" y="797" on="1"/>
        <pt x="967" y="774" on="0"/>
        <pt x="1036" y="708" on="1"/>
        <pt x="1106" y="641" on="0"/>
        <pt x="1134" y="572" on="1"/>
        <pt x="1163" y="500" on="0"/>
        <pt x="1163" y="439" on="1"/>
        <pt x="1163" y="389" on="0"/>
        <pt x="1152" y="334" on="1"/>
        <pt x="1141" y="278" on="0"/>
        <pt x="1108" y="218" on="1"/>
        <pt x="1075" y="157" on="0"/>
        <pt x="1020" y="110" on="1"/>
        <pt x="966" y="64" on="0"/>
        <pt x="868" y="32" on="1"/>
        <pt x="769" y="0" on="0"/>
        <pt x="644" y="0" on="1"/>
        <pt x="119" y="0" on="1"/>
      </contour>
    </TTGlyph>
    <TTGlyph name="afii10020" xMin="115" yMin="0" xMax="1097" yMax="1456">
      <contour>
        <pt x="383" y="1217" on="1"/>
        <pt x="383" y="0" on="1"/>
        <pt x="115" y="0" on="1"/>
        <pt x="115" y="1456" on="1"/>
        <pt x="1097" y="1456" on="1"/>
        <pt x="1097" y="1217" on="1"/>
      </contour>
    </TTGlyph>
    <TTGlyph name="afii10021" xMin="74" yMin="-241" xMax="1576" yMax="1456">
      <contour>
        <pt x="595" y="1456" on="1"/>
        <pt x="1336" y="1456" on="1"/>
        <pt x="1336" y="240" on="1"/>
        <pt x="1576" y="239" on="1"/>
        <pt x="1576" y="-241" on="1"/>
        <pt x="1336" y="-241" on="1"/>
        <pt x="1336" y="0" on="1"/>
        <pt x="314" y="0" on="1"/>
        <pt x="314" y="-241" on="1"/>
        <pt x="74" y="-241" on="1"/>
        <pt x="74" y="239" on="1"/>
        <pt x="377" y="240" on="1"/>
        <pt x="393" y="248" on="0"/>
        <pt x="400" y="253" on="1"/>
        <pt x="441" y="340" on="1"/>
      </contour>
      <contour>
        <pt x="1068" y="243" on="1"/>
        <pt x="1067" y="1217" on="1"/>
        <pt x="819" y="1217" on="1"/>
        <pt x="699" y="397" on="1"/>
        <pt x="684" y="295" on="0"/>
        <pt x="661" y="240" on="1"/>
      </contour>
    </TTGlyph>
    <TTGlyph name="afii10022" xMin="114" yMin="0" xMax="1096" yMax="1456">
      <contour>
        <pt x="114" y="1456" on="1"/>
        <pt x="1096" y="1456" on="1"/>
        <pt x="1096" y="1217" on="1"/>
        <pt x="382" y="1217" on="1"/>
        <pt x="382" y="866" on="1"/>
        <pt x="1034" y="866" on="1"/>
        <pt x="1034" y="627" on="1"/>
        <pt x="382" y="627" on="1"/>
        <pt x="382" y="240" on="1"/>
        <pt x="1096" y="240" on="1"/>
        <pt x="1096" y="0" on="1"/>
        <pt x="114" y="0" on="1"/>
      </contour>
    </TTGlyph>
    <TTGlyph name="afii10023" xMin="114" yMin="0" xMax="1096" yMax="1921">
      <contour>
        <pt x="253" y="1757" on="1"/>
        <pt x="253" y="1825" on="0"/>
        <pt x="349" y="1921" on="0"/>
        <pt x="485" y="1921" on="0"/>
        <pt x="581" y="1825" on="0"/>
        <pt x="581" y="1689" on="0"/>
        <pt x="485" y="1593" on="0"/>
        <pt x="417" y="1593" on="1"/>
        <pt x="350" y="1593" on="0"/>
        <pt x="301" y="1642" on="1"/>
        <pt x="253" y="1690" on="0"/>
      </contour>
      <contour>
        <pt x="724" y="1757" on="1"/>
        <pt x="724" y="1825" on="0"/>
        <pt x="820" y="1921" on="0"/>
        <pt x="956" y="1921" on="0"/>
        <pt x="1052" y="1825" on="0"/>
        <pt x="1052" y="1689" on="0"/>
        <pt x="956" y="1593" on="0"/>
        <pt x="888" y="1593" on="1"/>
        <pt x="821" y="1593" on="0"/>
        <pt x="772" y="1642" on="1"/>
        <pt x="724" y="1690" on="0"/>
      </contour>
      <contour>
        <pt x="114" y="1456" on="1"/>
        <pt x="1096" y="1456" on="1"/>
        <pt x="1096" y="1217" on="1"/>
        <pt x="382" y="1217" on="1"/>
        <pt x="382" y="866" on="1"/>
        <pt x="1034" y="866" on="1"/>
        <pt x="1034" y="627" on="1"/>
        <pt x="382" y="627" on="1"/>
        <pt x="382" y="240" on="1"/>
        <pt x="1096" y="240" on="1"/>
        <pt x="1096" y="0" on="1"/>
        <pt x="114" y="0" on="1"/>
      </contour>
    </TTGlyph>
    <TTGlyph name="afii10024" xMin="113" yMin="0" xMax="1550" yMax="1456">
      <contour>
        <pt x="119" y="1456" on="1"/>
        <pt x="428" y="1456" on="1"/>
        <pt x="695" y="959" on="1"/>
        <pt x="695" y="1453" on="1"/>
        <pt x="694" y="1456" on="1"/>
        <pt x="695" y="1454" on="1"/>
        <pt x="695" y="1456" on="1"/>
        <pt x="964" y="1456" on="1"/>
        <pt x="969" y="1456" on="1"/>
        <pt x="964" y="959" on="1"/>
        <pt x="966" y="955" on="1"/>
        <pt x="1235" y="1456" on="1"/>
        <pt x="1544" y="1456" on="1"/>
        <pt x="1123" y="727" on="1"/>
        <pt x="1550" y="0" on="1"/>
        <pt x="1213" y="0" on="1"/>
        <pt x="966" y="460" on="1"/>
        <pt x="964" y="456" on="1"/>
        <pt x="964" y="0" on="1"/>
        <pt x="695" y="0" on="1"/>
        <pt x="695" y="456" on="1"/>
        <pt x="450" y="0" on="1"/>
        <pt x="113" y="0" on="1"/>
        <pt x="540" y="727" on="1"/>
      </contour>
    </TTGlyph>
    <TTGlyph name="afii10025" xMin="93" yMin="-28" xMax="1100" yMax="1490">
      <contour>
        <pt x="93" y="323" on="1"/>
        <pt x="351" y="393" on="1"/>
        <pt x="388" y="301" on="0"/>
        <pt x="456" y="257" on="1"/>
        <pt x="523" y="214" on="0"/>
        <pt x="598" y="214" on="1"/>
        <pt x="699" y="214" on="0"/>
        <pt x="766" y="276" on="1"/>
        <pt x="831" y="337" on="0"/>
        <pt x="831" y="429" on="1"/>
        <pt x="831" y="520" on="0"/>
        <pt x="760" y="586" on="1"/>
        <pt x="691" y="651" on="0"/>
        <pt x="598" y="651" on="1"/>
        <pt x="433" y="651" on="1"/>
        <pt x="433" y="864" on="1"/>
        <pt x="575" y="864" on="1"/>
        <pt x="650" y="864" on="0"/>
        <pt x="705" y="924" on="1"/>
        <pt x="760" y="983" on="0"/>
        <pt x="760" y="1054" on="1"/>
        <pt x="760" y="1151" on="0"/>
        <pt x="652" y="1253" on="0"/>
        <pt x="569" y="1253" on="1"/>
        <pt x="511" y="1253" on="0"/>
        <pt x="466" y="1220" on="1"/>
        <pt x="422" y="1188" on="0"/>
        <pt x="402" y="1142" on="1"/>
        <pt x="152" y="1208" on="1"/>
        <pt x="260" y="1490" on="0"/>
        <pt x="568" y="1490" on="1"/>
        <pt x="659" y="1490" on="0"/>
        <pt x="734" y="1468" on="1"/>
        <pt x="810" y="1446" on="0"/>
        <pt x="938" y="1354" on="0"/>
        <pt x="1012" y="1200" on="0"/>
        <pt x="1012" y="1096" on="1"/>
        <pt x="1012" y="923" on="0"/>
        <pt x="867" y="820" on="1"/>
        <pt x="919" y="786" on="0"/>
        <pt x="951" y="756" on="1"/>
        <pt x="990" y="721" on="0"/>
        <pt x="1023" y="678" on="1"/>
        <pt x="1060" y="630" on="0"/>
        <pt x="1080" y="567" on="1"/>
        <pt x="1100" y="502" on="0"/>
        <pt x="1100" y="429" on="1"/>
        <pt x="1100" y="339" on="0"/>
        <pt x="1062" y="254" on="1"/>
        <pt x="1026" y="173" on="0"/>
        <pt x="958" y="108" on="1"/>
        <pt x="894" y="47" on="0"/>
        <pt x="798" y="9" on="1"/>
        <pt x="705" y="-28" on="0"/>
        <pt x="598" y="-28" on="1"/>
        <pt x="483" y="-28" on="0"/>
        <pt x="390" y="6" on="1"/>
        <pt x="296" y="40" on="0"/>
        <pt x="136" y="204" on="0"/>
      </contour>
    </TTGlyph>
    <TTGlyph name="afii10026" xMin="119" yMin="0" xMax="1221" yMax="1456">
      <contour>
        <pt x="119" y="1456" on="1"/>
        <pt x="387" y="1456" on="1"/>
        <pt x="387" y="483" on="1"/>
        <pt x="956" y="1456" on="1"/>
        <pt x="1221" y="1456" on="1"/>
        <pt x="1221" y="0" on="1"/>
        <pt x="952" y="0" on="1"/>
        <pt x="952" y="940" on="1"/>
        <pt x="379" y="0" on="1"/>
        <pt x="119" y="0" on="1"/>
      </contour>
    </TTGlyph>
    <TTGlyph name="afii10027" xMin="119" yMin="0" xMax="1221" yMax="1942">
      <contour>
        <pt x="119" y="1456" on="1"/>
        <pt x="387" y="1456" on="1"/>
        <pt x="387" y="483" on="1"/>
        <pt x="956" y="1456" on="1"/>
        <pt x="1221" y="1456" on="1"/>
        <pt x="1221" y="0" on="1"/>
        <pt x="952" y="0" on="1"/>
        <pt x="952" y="940" on="1"/>
        <pt x="379" y="0" on="1"/>
        <pt x="119" y="0" on="1"/>
      </contour>
      <contour>
        <pt x="733" y="1768" on="1"/>
        <pt x="780" y="1802" on="0"/>
        <pt x="860" y="1942" on="1"/>
        <pt x="1017" y="1942" on="1"/>
        <pt x="1018" y="1932" on="0"/>
        <pt x="1018" y="1911" on="1"/>
        <pt x="1018" y="1794" on="0"/>
        <pt x="948" y="1676" on="1"/>
        <pt x="908" y="1608" on="0"/>
        <pt x="825" y="1561" on="1"/>
        <pt x="747" y="1516" on="0"/>
        <pt x="587" y="1516" on="0"/>
        <pt x="509" y="1561" on="1"/>
        <pt x="426" y="1608" on="0"/>
        <pt x="386" y="1676" on="1"/>
        <pt x="316" y="1794" on="0"/>
        <pt x="316" y="1911" on="1"/>
        <pt x="316" y="1932" on="0"/>
        <pt x="317" y="1942" on="1"/>
        <pt x="478" y="1942" on="1"/>
        <pt x="534" y="1813" on="0"/>
        <pt x="600" y="1769" on="1"/>
        <pt x="622" y="1754" on="0"/>
        <pt x="671" y="1752" on="1"/>
        <pt x="713" y="1754" on="0"/>
      </contour>
    </TTGlyph>
    <TTGlyph name="afii10028" xMin="115" yMin="0" xMax="1290" yMax="1456">
      <contour>
        <pt x="115" y="1456" on="1"/>
        <pt x="383" y="1456" on="1"/>
        <pt x="383" y="833" on="1"/>
        <pt x="926" y="1456" on="1"/>
        <pt x="1261" y="1456" on="1"/>
        <pt x="705" y="808" on="1"/>
        <pt x="1290" y="0" on="1"/>
        <pt x="954" y="0" on="1"/>
        <pt x="500" y="628" on="1"/>
        <pt x="383" y="496" on="1"/>
        <pt x="383" y="0" on="1"/>
        <pt x="115" y="0" on="1"/>
      </contour>
    </TTGlyph>
    <TTGlyph name="afii10029" xMin="66" yMin="0" xMax="1336" yMax="1456">
      <contour>
        <pt x="595" y="1456" on="1"/>
        <pt x="1336" y="1456" on="1"/>
        <pt x="1336" y="0" on="1"/>
        <pt x="1067" y="0" on="1"/>
        <pt x="1067" y="1217" on="1"/>
        <pt x="819" y="1217" on="1"/>
        <pt x="699" y="397" on="1"/>
        <pt x="679" y="263" on="0"/>
        <pt x="644" y="204" on="1"/>
        <pt x="589" y="112" on="0"/>
        <pt x="407" y="0" on="0"/>
        <pt x="314" y="0" on="1"/>
        <pt x="232" y="0" on="0"/>
        <pt x="174" y="20" on="1"/>
        <pt x="120" y="38" on="0"/>
        <pt x="66" y="99" on="1"/>
        <pt x="235" y="271" on="1"/>
        <pt x="247" y="254" on="0"/>
        <pt x="273" y="242" on="1"/>
        <pt x="301" y="229" on="0"/>
        <pt x="325" y="229" on="1"/>
        <pt x="368" y="229" on="0"/>
        <pt x="400" y="253" on="1"/>
        <pt x="441" y="340" on="1"/>
      </contour>
    </TTGlyph>
    <TTGlyph name="afii10030" xMin="66" yMin="0" xMax="1491" yMax="1456">
      <contour>
        <pt x="66" y="0" on="1"/>
        <pt x="66" y="1456" on="1"/>
        <pt x="426" y="1456" on="1"/>
        <pt x="775" y="424" on="1"/>
        <pt x="1132" y="1456" on="1"/>
        <pt x="1491" y="1456" on="1"/>
        <pt x="1491" y="0" on="1"/>
        <pt x="1229" y="0" on="1"/>
        <pt x="1229" y="999" on="1"/>
        <pt x="911" y="0" on="1"/>
        <pt x="641" y="0" on="1"/>
        <pt x="328" y="988" on="1"/>
        <pt x="328" y="0" on="1"/>
      </contour>
    </TTGlyph>
    <TTGlyph name="afii10031" xMin="115" yMin="0" xMax="1137" yMax="1456">
      <contour>
        <pt x="115" y="1456" on="1"/>
        <pt x="383" y="1456" on="1"/>
        <pt x="383" y="864" on="1"/>
        <pt x="868" y="864" on="1"/>
        <pt x="868" y="1456" on="1"/>
        <pt x="1137" y="1456" on="1"/>
        <pt x="1137" y="0" on="1"/>
        <pt x="868" y="0" on="1"/>
        <pt x="868" y="625" on="1"/>
        <pt x="383" y="625" on="1"/>
        <pt x="383" y="0" on="1"/>
        <pt x="115" y="0" on="1"/>
      </contour>
    </TTGlyph>
    <TTGlyph name="afii10032" xMin="100" yMin="-29" xMax="1329" yMax="1489">
      <contour>
        <pt x="1047" y="754" on="1"/>
        <pt x="1047" y="843" on="0"/>
        <pt x="1013" y="1013" on="0"/>
        <pt x="978" y="1086" on="1"/>
        <pt x="944" y="1158" on="0"/>
        <pt x="874" y="1204" on="1"/>
        <pt x="806" y="1249" on="0"/>
        <pt x="715" y="1249" on="1"/>
        <pt x="640" y="1249" on="0"/>
        <pt x="582" y="1219" on="1"/>
        <pt x="526" y="1190" on="0"/>
        <pt x="488" y="1140" on="1"/>
        <pt x="448" y="1087" on="0"/>
        <pt x="426" y="1026" on="1"/>
        <pt x="400" y="955" on="0"/>
        <pt x="392" y="893" on="1"/>
        <pt x="383" y="826" on="0"/>
        <pt x="383" y="754" on="1"/>
        <pt x="383" y="672" on="0"/>
        <pt x="393" y="602" on="1"/>
        <pt x="404" y="527" on="0"/>
        <pt x="427" y="457" on="1"/>
        <pt x="452" y="383" on="0"/>
        <pt x="488" y="332" on="1"/>
        <pt x="526" y="279" on="0"/>
        <pt x="642" y="213" on="0"/>
        <pt x="715" y="213" on="1"/>
        <pt x="790" y="213" on="0"/>
        <pt x="848" y="246" on="1"/>
        <pt x="905" y="278" on="0"/>
        <pt x="942" y="332" on="1"/>
        <pt x="982" y="390" on="0"/>
        <pt x="1004" y="457" on="1"/>
        <pt x="1030" y="534" on="0"/>
        <pt x="1038" y="602" on="1"/>
        <pt x="1047" y="675" on="0"/>
      </contour>
      <contour>
        <pt x="100" y="754" on="1"/>
        <pt x="100" y="852" on="0"/>
        <pt x="120" y="954" on="1"/>
        <pt x="139" y="1049" on="0"/>
        <pt x="187" y="1150" on="1"/>
        <pt x="232" y="1245" on="0"/>
        <pt x="303" y="1322" on="1"/>
        <pt x="372" y="1397" on="0"/>
        <pt x="478" y="1443" on="1"/>
        <pt x="583" y="1489" on="0"/>
        <pt x="847" y="1489" on="0"/>
        <pt x="952" y="1443" on="1"/>
        <pt x="1058" y="1397" on="0"/>
        <pt x="1127" y="1323" on="1"/>
        <pt x="1194" y="1252" on="0"/>
        <pt x="1290" y="1050" on="0"/>
        <pt x="1309" y="954" on="1"/>
        <pt x="1329" y="852" on="0"/>
        <pt x="1329" y="754" on="1"/>
        <pt x="1329" y="650" on="0"/>
        <pt x="1309" y="542" on="1"/>
        <pt x="1290" y="441" on="0"/>
        <pt x="1242" y="332" on="1"/>
        <pt x="1196" y="229" on="0"/>
        <pt x="1126" y="148" on="1"/>
        <pt x="1058" y="70" on="0"/>
        <pt x="951" y="20" on="1"/>
        <pt x="846" y="-29" on="0"/>
        <pt x="715" y="-29" on="1"/>
        <pt x="585" y="-29" on="0"/>
        <pt x="480" y="20" on="1"/>
        <pt x="371" y="71" on="0"/>
        <pt x="304" y="148" on="1"/>
        <pt x="234" y="229" on="0"/>
        <pt x="188" y="331" on="1"/>
        <pt x="141" y="436" on="0"/>
        <pt x="120" y="541" on="1"/>
        <pt x="100" y="642" on="0"/>
      </contour>
    </TTGlyph>
    <TTGlyph name="afii10033" xMin="115" yMin="0" xMax="1137" yMax="1456">
      <contour>
        <pt x="115" y="1456" on="1"/>
        <pt x="1137" y="1456" on="1"/>
        <pt x="1137" y="0" on="1"/>
        <pt x="868" y="0" on="1"/>
        <pt x="868" y="1217" on="1"/>
        <pt x="383" y="1217" on="1"/>
        <pt x="383" y="0" on="1"/>
        <pt x="115" y="0" on="1"/>
      </contour>
    </TTGlyph>
    <TTGlyph name="afii10034" xMin="121" yMin="0" xMax="1069" yMax="1456">
      <contour>
        <pt x="389" y="823" on="1"/>
        <pt x="519" y="823" on="1"/>
        <pt x="795" y="823" on="0"/>
        <pt x="795" y="1217" on="0"/>
        <pt x="519" y="1217" on="1"/>
        <pt x="389" y="1217" on="1"/>
      </contour>
      <contour>
        <pt x="121" y="1456" on="1"/>
        <pt x="389" y="1456" on="1"/>
        <pt x="519" y="1456" on="1"/>
        <pt x="655" y="1456" on="0"/>
        <pt x="760" y="1422" on="1"/>
        <pt x="870" y="1386" on="0"/>
        <pt x="934" y="1328" on="1"/>
        <pt x="999" y="1269" on="0"/>
        <pt x="1069" y="1111" on="0"/>
        <pt x="1069" y="1020" on="1"/>
        <pt x="1069" y="928" on="0"/>
        <pt x="1032" y="850" on="1"/>
        <pt x="994" y="769" on="0"/>
        <pt x="926" y="710" on="1"/>
        <pt x="856" y="649" on="0"/>
        <pt x="752" y="615" on="1"/>
        <pt x="645" y="580" on="0"/>
        <pt x="519" y="580" on="1"/>
        <pt x="389" y="580" on="1"/>
        <pt x="389" y="0" on="1"/>
        <pt x="121" y="0" on="1"/>
      </contour>
    </TTGlyph>
    <TTGlyph name="afii10035" xMin="90" yMin="-33" xMax="1232" yMax="1497">
      <contour>
        <pt x="1232" y="310" on="1"/>
        <pt x="1073" y="-33" on="0"/>
        <pt x="725" y="-33" on="1"/>
        <pt x="588" y="-33" on="0"/>
        <pt x="477" y="11" on="1"/>
        <pt x="367" y="55" on="0"/>
        <pt x="296" y="130" on="1"/>
        <pt x="226" y="205" on="0"/>
        <pt x="178" y="306" on="1"/>
        <pt x="129" y="409" on="0"/>
        <pt x="110" y="520" on="1"/>
        <pt x="90" y="634" on="0"/>
        <pt x="90" y="754" on="1"/>
        <pt x="90" y="873" on="0"/>
        <pt x="111" y="978" on="1"/>
        <pt x="132" y="1085" on="0"/>
        <pt x="180" y="1180" on="1"/>
        <pt x="229" y="1278" on="0"/>
        <pt x="300" y="1346" on="1"/>
        <pt x="373" y="1416" on="0"/>
        <pt x="482" y="1456" on="1"/>
        <pt x="593" y="1497" on="0"/>
        <pt x="727" y="1497" on="1"/>
        <pt x="904" y="1497" on="0"/>
        <pt x="1034" y="1406" on="1"/>
        <pt x="1163" y="1316" on="0"/>
        <pt x="1220" y="1187" on="1"/>
        <pt x="965" y="1098" on="1"/>
        <pt x="924" y="1164" on="0"/>
        <pt x="858" y="1210" on="1"/>
        <pt x="790" y="1257" on="0"/>
        <pt x="727" y="1257" on="1"/>
        <pt x="648" y="1257" on="0"/>
        <pt x="586" y="1230" on="1"/>
        <pt x="523" y="1202" on="0"/>
        <pt x="484" y="1156" on="1"/>
        <pt x="446" y="1110" on="0"/>
        <pt x="394" y="978" on="0"/>
        <pt x="384" y="908" on="1"/>
        <pt x="373" y="834" on="0"/>
        <pt x="373" y="754" on="1"/>
        <pt x="373" y="643" on="0"/>
        <pt x="394" y="547" on="1"/>
        <pt x="416" y="449" on="0"/>
        <pt x="455" y="374" on="1"/>
        <pt x="496" y="296" on="0"/>
        <pt x="565" y="253" on="1"/>
        <pt x="635" y="209" on="0"/>
        <pt x="725" y="209" on="1"/>
        <pt x="861" y="209" on="0"/>
        <pt x="973" y="410" on="1"/>
      </contour>
    </TTGlyph>
    <TTGlyph name="afii10036" xMin="78" yMin="0" xMax="1280" yMax="1456">
      <contour>
        <pt x="78" y="1456" on="1"/>
        <pt x="1280" y="1456" on="1"/>
        <pt x="1280" y="1217" on="1"/>
        <pt x="823" y="1217" on="1"/>
        <pt x="823" y="0" on="1"/>
        <pt x="555" y="0" on="1"/>
        <pt x="555" y="1217" on="1"/>
        <pt x="78" y="1217" on="1"/>
      </contour>
    </TTGlyph>
    <TTGlyph name="afii10037" xMin="-68" yMin="0" xMax="1248" yMax="1456">
      <contour>
        <pt x="66" y="1456" on="1"/>
        <pt x="350" y="1456" on="1"/>
        <pt x="660" y="919" on="1"/>
        <pt x="970" y="1456" on="1"/>
        <pt x="1248" y="1456" on="1"/>
        <pt x="796" y="705" on="1"/>
        <pt x="510" y="204" on="1"/>
        <pt x="455" y="112" on="0"/>
        <pt x="273" y="0" on="0"/>
        <pt x="180" y="0" on="1"/>
        <pt x="98" y="0" on="0"/>
        <pt x="40" y="20" on="1"/>
        <pt x="-14" y="38" on="0"/>
        <pt x="-68" y="99" on="1"/>
        <pt x="101" y="271" on="1"/>
        <pt x="113" y="254" on="0"/>
        <pt x="139" y="242" on="1"/>
        <pt x="167" y="229" on="0"/>
        <pt x="191" y="229" on="1"/>
        <pt x="243" y="229" on="0"/>
        <pt x="274" y="260" on="1"/>
        <pt x="528" y="705" on="1"/>
      </contour>
    </TTGlyph>
    <TTGlyph name="afii10038" xMin="96" yMin="0" xMax="1462" yMax="1454">
      <contour>
        <pt x="925" y="315" on="1"/>
        <pt x="925" y="0" on="1"/>
        <pt x="682" y="0" on="1"/>
        <pt x="682" y="314" on="1"/>
        <pt x="630" y="320" on="0"/>
        <pt x="609" y="324" on="1"/>
        <pt x="510" y="341" on="0"/>
        <pt x="420" y="377" on="1"/>
        <pt x="326" y="414" on="0"/>
        <pt x="255" y="470" on="1"/>
        <pt x="182" y="527" on="0"/>
        <pt x="140" y="610" on="1"/>
        <pt x="96" y="696" on="0"/>
        <pt x="96" y="799" on="1"/>
        <pt x="96" y="901" on="0"/>
        <pt x="140" y="987" on="1"/>
        <pt x="183" y="1071" on="0"/>
        <pt x="255" y="1128" on="1"/>
        <pt x="321" y="1180" on="0"/>
        <pt x="420" y="1220" on="1"/>
        <pt x="513" y="1258" on="0"/>
        <pt x="609" y="1274" on="1"/>
        <pt x="654" y="1282" on="0"/>
        <pt x="682" y="1285" on="1"/>
        <pt x="682" y="1454" on="1"/>
        <pt x="925" y="1454" on="1"/>
        <pt x="925" y="1283" on="1"/>
        <pt x="946" y="1281" on="0"/>
        <pt x="980" y="1275" on="1"/>
        <pt x="1070" y="1258" on="0"/>
        <pt x="1157" y="1221" on="1"/>
        <pt x="1245" y="1183" on="0"/>
        <pt x="1379" y="1073" on="0"/>
        <pt x="1421" y="988" on="1"/>
        <pt x="1462" y="905" on="0"/>
        <pt x="1462" y="693" on="0"/>
        <pt x="1421" y="610" on="1"/>
        <pt x="1379" y="524" on="0"/>
        <pt x="1313" y="469" on="1"/>
        <pt x="1250" y="416" on="0"/>
        <pt x="1158" y="377" on="1"/>
        <pt x="1074" y="341" on="0"/>
        <pt x="981" y="324" on="1"/>
        <pt x="930" y="316" on="0"/>
      </contour>
      <contour>
        <pt x="925" y="1057" on="1"/>
        <pt x="925" y="541" on="1"/>
        <pt x="936" y="542" on="0"/>
        <pt x="958" y="546" on="1"/>
        <pt x="1030" y="559" on="0"/>
        <pt x="1099" y="588" on="1"/>
        <pt x="1164" y="616" on="0"/>
        <pt x="1206" y="671" on="1"/>
        <pt x="1246" y="724" on="0"/>
        <pt x="1246" y="799" on="1"/>
        <pt x="1246" y="858" on="0"/>
        <pt x="1219" y="905" on="1"/>
        <pt x="1191" y="953" on="0"/>
        <pt x="1148" y="981" on="1"/>
        <pt x="1101" y="1012" on="0"/>
        <pt x="1045" y="1030" on="1"/>
        <pt x="984" y="1050" on="0"/>
        <pt x="926" y="1057" on="1"/>
      </contour>
      <contour>
        <pt x="682" y="539" on="1"/>
        <pt x="682" y="1058" on="1"/>
        <pt x="679" y="1058" on="0"/>
        <pt x="667" y="1056" on="0"/>
        <pt x="664" y="1056" on="1"/>
        <pt x="597" y="1048" on="0"/>
        <pt x="533" y="1029" on="1"/>
        <pt x="468" y="1009" on="0"/>
        <pt x="421" y="980" on="1"/>
        <pt x="372" y="950" on="0"/>
        <pt x="343" y="904" on="1"/>
        <pt x="314" y="859" on="0"/>
        <pt x="314" y="799" on="1"/>
        <pt x="314" y="738" on="0"/>
        <pt x="343" y="693" on="1"/>
        <pt x="374" y="645" on="0"/>
        <pt x="421" y="617" on="1"/>
        <pt x="473" y="586" on="0"/>
        <pt x="533" y="568" on="1"/>
        <pt x="597" y="549" on="0"/>
        <pt x="664" y="541" on="1"/>
        <pt x="667" y="540" on="0"/>
        <pt x="679" y="540" on="0"/>
      </contour>
    </TTGlyph>
    <TTGlyph name="afii10039" xMin="53" yMin="0" xMax="1225" yMax="1456">
      <contour>
        <pt x="59" y="1456" on="1"/>
        <pt x="368" y="1456" on="1"/>
        <pt x="637" y="955" on="1"/>
        <pt x="909" y="1456" on="1"/>
        <pt x="1219" y="1456" on="1"/>
        <pt x="795" y="727" on="1"/>
        <pt x="1225" y="0" on="1"/>
        <pt x="888" y="0" on="1"/>
        <pt x="637" y="460" on="1"/>
        <pt x="390" y="0" on="1"/>
        <pt x="53" y="0" on="1"/>
        <pt x="480" y="727" on="1"/>
      </contour>
    </TTGlyph>
    <TTGlyph name="afii10040" xMin="115" yMin="0" xMax="1137" yMax="1456">
      <contour>
        <pt x="115" y="0" on="1"/>
        <pt x="115" y="1456" on="1"/>
        <pt x="383" y="1456" on="1"/>
        <pt x="383" y="239" on="1"/>
        <pt x="868" y="239" on="1"/>
        <pt x="868" y="1456" on="1"/>
        <pt x="1137" y="1456" on="1"/>
        <pt x="1137" y="0" on="1"/>
      </contour>
    </TTGlyph>
    <TTGlyph name="afii10041" xMin="119" yMin="0" xMax="1014" yMax="1455">
      <contour>
        <pt x="756" y="1455" on="1"/>
        <pt x="1014" y="1455" on="1"/>
        <pt x="1014" y="0" on="1"/>
        <pt x="756" y="0" on="1"/>
        <pt x="756" y="543" on="1"/>
        <pt x="711" y="461" on="0"/>
        <pt x="537" y="353" on="0"/>
        <pt x="433" y="353" on="1"/>
        <pt x="379" y="353" on="0"/>
        <pt x="324" y="382" on="1"/>
        <pt x="266" y="413" on="0"/>
        <pt x="222" y="462" on="1"/>
        <pt x="177" y="513" on="0"/>
        <pt x="119" y="687" on="0"/>
        <pt x="119" y="787" on="1"/>
        <pt x="119" y="1032" on="1"/>
        <pt x="119" y="1455" on="1"/>
        <pt x="377" y="1455" on="1"/>
        <pt x="377" y="1026" on="1"/>
        <pt x="377" y="918" on="1"/>
        <pt x="377" y="836" on="0"/>
        <pt x="386" y="778" on="1"/>
        <pt x="396" y="715" on="0"/>
        <pt x="409" y="683" on="1"/>
        <pt x="424" y="647" on="0"/>
        <pt x="448" y="626" on="1"/>
        <pt x="475" y="602" on="0"/>
        <pt x="496" y="596" on="1"/>
        <pt x="523" y="588" on="0"/>
        <pt x="591" y="588" on="0"/>
        <pt x="620" y="596" on="1"/>
        <pt x="647" y="604" on="0"/>
        <pt x="674" y="626" on="1"/>
        <pt x="700" y="647" on="0"/>
        <pt x="718" y="684" on="1"/>
        <pt x="735" y="718" on="0"/>
        <pt x="746" y="780" on="1"/>
        <pt x="756" y="837" on="0"/>
        <pt x="756" y="919" on="1"/>
      </contour>
    </TTGlyph>
    <TTGlyph name="afii10042" xMin="115" yMin="0" xMax="1544" yMax="1456">
      <contour>
        <pt x="115" y="0" on="1"/>
        <pt x="115" y="1456" on="1"/>
        <pt x="383" y="1456" on="1"/>
        <pt x="383" y="239" on="1"/>
        <pt x="674" y="239" on="1"/>
        <pt x="674" y="1456" on="1"/>
        <pt x="942" y="1456" on="1"/>
        <pt x="942" y="239" on="1"/>
        <pt x="1275" y="239" on="1"/>
        <pt x="1275" y="1456" on="1"/>
        <pt x="1544" y="1456" on="1"/>
        <pt x="1544" y="0" on="1"/>
      </contour>
    </TTGlyph>
    <TTGlyph name="afii10043" xMin="115" yMin="-228" xMax="1784" yMax="1456">
      <contour>
        <pt x="115" y="0" on="1"/>
        <pt x="115" y="1456" on="1"/>
        <pt x="383" y="1456" on="1"/>
        <pt x="383" y="239" on="1"/>
        <pt x="674" y="239" on="1"/>
        <pt x="674" y="1456" on="1"/>
        <pt x="942" y="1456" on="1"/>
        <pt x="942" y="239" on="1"/>
        <pt x="1275" y="239" on="1"/>
        <pt x="1275" y="1456" on="1"/>
        <pt x="1544" y="1456" on="1"/>
        <pt x="1544" y="239" on="1"/>
        <pt x="1784" y="240" on="1"/>
        <pt x="1784" y="-228" on="1"/>
        <pt x="1544" y="-228" on="1"/>
        <pt x="1544" y="0" on="1"/>
      </contour>
    </TTGlyph>
    <TTGlyph name="afii10044" xMin="30" yMin="0" xMax="1258" yMax="1456">
      <contour>
        <pt x="310" y="0" on="1"/>
        <pt x="310" y="1216" on="1"/>
        <pt x="30" y="1216" on="1"/>
        <pt x="30" y="1456" on="1"/>
        <pt x="578" y="1456" on="1"/>
        <pt x="578" y="876" on="1"/>
        <pt x="708" y="876" on="1"/>
        <pt x="835" y="876" on="0"/>
        <pt x="942" y="841" on="1"/>
        <pt x="1044" y="807" on="0"/>
        <pt x="1115" y="746" on="1"/>
        <pt x="1183" y="687" on="0"/>
        <pt x="1221" y="606" on="1"/>
        <pt x="1258" y="528" on="0"/>
        <pt x="1258" y="436" on="1"/>
        <pt x="1258" y="343" on="0"/>
        <pt x="1190" y="189" on="0"/>
        <pt x="1123" y="128" on="1"/>
        <pt x="1058" y="69" on="0"/>
        <pt x="950" y="34" on="1"/>
        <pt x="845" y="0" on="0"/>
        <pt x="708" y="0" on="1"/>
        <pt x="578" y="0" on="1"/>
      </contour>
      <contour>
        <pt x="578" y="633" on="1"/>
        <pt x="578" y="239" on="1"/>
        <pt x="708" y="239" on="1"/>
        <pt x="984" y="239" on="0"/>
        <pt x="984" y="633" on="0"/>
        <pt x="708" y="633" on="1"/>
      </contour>
    </TTGlyph>
    <TTGlyph name="afii10045" xMin="121" yMin="0" xMax="1148" yMax="1456">
      <contour>
        <pt x="322" y="633" on="1"/>
        <pt x="322" y="239" on="1"/>
        <pt x="420" y="239" on="1"/>
        <pt x="584" y="239" on="0"/>
        <pt x="584" y="633" on="0"/>
        <pt x="420" y="633" on="1"/>
      </contour>
      <contour>
        <pt x="121" y="0" on="1"/>
        <pt x="121" y="1456" on="1"/>
        <pt x="389" y="1456" on="1"/>
        <pt x="389" y="876" on="1"/>
        <pt x="420" y="876" on="1"/>
        <pt x="515" y="876" on="0"/>
        <pt x="673" y="806" on="0"/>
        <pt x="724" y="746" on="1"/>
        <pt x="776" y="685" on="0"/>
        <pt x="804" y="606" on="1"/>
        <pt x="832" y="528" on="0"/>
        <pt x="832" y="436" on="1"/>
        <pt x="832" y="346" on="0"/>
        <pt x="806" y="266" on="1"/>
        <pt x="781" y="190" on="0"/>
        <pt x="730" y="128" on="1"/>
        <pt x="681" y="69" on="0"/>
        <pt x="601" y="34" on="1"/>
        <pt x="523" y="0" on="0"/>
        <pt x="420" y="0" on="1"/>
        <pt x="322" y="0" on="1"/>
      </contour>
      <contour>
        <pt x="879" y="0" on="1"/>
        <pt x="879" y="1456" on="1"/>
        <pt x="1148" y="1456" on="1"/>
        <pt x="1148" y="0" on="1"/>
      </contour>
    </TTGlyph>
    <TTGlyph name="afii10046" xMin="121" yMin="0" xMax="1069" yMax="1456">
      <contour>
        <pt x="389" y="633" on="1"/>
        <pt x="389" y="239" on="1"/>
        <pt x="519" y="239" on="1"/>
        <pt x="795" y="239" on="0"/>
        <pt x="795" y="633" on="0"/>
        <pt x="519" y="633" on="1"/>
      </contour>
      <contour>
        <pt x="121" y="0" on="1"/>
        <pt x="121" y="1456" on="1"/>
        <pt x="389" y="1456" on="1"/>
        <pt x="389" y="876" on="1"/>
        <pt x="519" y="876" on="1"/>
        <pt x="645" y="876" on="0"/>
        <pt x="752" y="841" on="1"/>
        <pt x="856" y="807" on="0"/>
        <pt x="926" y="746" on="1"/>
        <pt x="994" y="687" on="0"/>
        <pt x="1032" y="606" on="1"/>
        <pt x="1069" y="528" on="0"/>
        <pt x="1069" y="436" on="1"/>
        <pt x="1069" y="345" on="0"/>
        <pt x="999" y="187" on="0"/>
        <pt x="934" y="128" on="1"/>
        <pt x="870" y="70" on="0"/>
        <pt x="760" y="34" on="1"/>
        <pt x="655" y="0" on="0"/>
        <pt x="519" y="0" on="1"/>
        <pt x="389" y="0" on="1"/>
      </contour>
    </TTGlyph>
    <TTGlyph name="afii10047" xMin="90" yMin="-33" xMax="1232" yMax="1497">
      <contour>
        <pt x="90" y="310" on="1"/>
        <pt x="349" y="410" on="1"/>
        <pt x="462" y="209" on="0"/>
        <pt x="597" y="209" on="1"/>
        <pt x="687" y="209" on="0"/>
        <pt x="757" y="253" on="1"/>
        <pt x="826" y="296" on="0"/>
        <pt x="867" y="374" on="1"/>
        <pt x="906" y="449" on="0"/>
        <pt x="928" y="547" on="1"/>
        <pt x="949" y="643" on="0"/>
        <pt x="949" y="754" on="1"/>
        <pt x="949" y="834" on="0"/>
        <pt x="938" y="908" on="1"/>
        <pt x="928" y="978" on="0"/>
        <pt x="876" y="1110" on="0"/>
        <pt x="838" y="1156" on="1"/>
        <pt x="799" y="1202" on="0"/>
        <pt x="736" y="1230" on="1"/>
        <pt x="674" y="1257" on="0"/>
        <pt x="595" y="1257" on="1"/>
        <pt x="532" y="1257" on="0"/>
        <pt x="464" y="1210" on="1"/>
        <pt x="398" y="1164" on="0"/>
        <pt x="357" y="1098" on="1"/>
        <pt x="102" y="1187" on="1"/>
        <pt x="159" y="1316" on="0"/>
        <pt x="288" y="1406" on="1"/>
        <pt x="418" y="1497" on="0"/>
        <pt x="595" y="1497" on="1"/>
        <pt x="729" y="1497" on="0"/>
        <pt x="840" y="1456" on="1"/>
        <pt x="949" y="1416" on="0"/>
        <pt x="1022" y="1346" on="1"/>
        <pt x="1093" y="1278" on="0"/>
        <pt x="1142" y="1180" on="1"/>
        <pt x="1190" y="1085" on="0"/>
        <pt x="1211" y="978" on="1"/>
        <pt x="1232" y="873" on="0"/>
        <pt x="1232" y="754" on="1"/>
        <pt x="1232" y="634" on="0"/>
        <pt x="1212" y="520" on="1"/>
        <pt x="1193" y="409" on="0"/>
        <pt x="1144" y="306" on="1"/>
        <pt x="1096" y="205" on="0"/>
        <pt x="1026" y="130" on="1"/>
        <pt x="955" y="55" on="0"/>
        <pt x="845" y="11" on="1"/>
        <pt x="734" y="-33" on="0"/>
        <pt x="597" y="-33" on="1"/>
        <pt x="249" y="-33" on="0"/>
      </contour>
    </TTGlyph>
    <TTGlyph name="afii10048" xMin="143" yMin="-28" xMax="1564" yMax="1490">
      <contour>
        <pt x="143" y="0" on="1"/>
        <pt x="143" y="1456" on="1"/>
        <pt x="412" y="1456" on="1"/>
        <pt x="412" y="906" on="1"/>
        <pt x="562" y="906" on="1"/>
        <pt x="586" y="1145" on="0"/>
        <pt x="690" y="1296" on="1"/>
        <pt x="824" y="1490" on="0"/>
        <pt x="1065" y="1490" on="1"/>
        <pt x="1303" y="1490" on="0"/>
        <pt x="1434" y="1296" on="1"/>
        <pt x="1564" y="1103" on="0"/>
        <pt x="1564" y="756" on="1"/>
        <pt x="1564" y="525" on="0"/>
        <pt x="1506" y="350" on="1"/>
        <pt x="1447" y="172" on="0"/>
        <pt x="1217" y="-28" on="0"/>
        <pt x="1060" y="-28" on="1"/>
        <pt x="1059" y="-28" on="1"/>
        <pt x="902" y="-28" on="0"/>
        <pt x="787" y="72" on="1"/>
        <pt x="673" y="171" on="0"/>
        <pt x="614" y="349" on="1"/>
        <pt x="566" y="495" on="0"/>
        <pt x="557" y="666" on="1"/>
        <pt x="412" y="666" on="1"/>
        <pt x="412" y="0" on="1"/>
      </contour>
      <contour>
        <pt x="823" y="756" on="1"/>
        <pt x="823" y="658" on="0"/>
        <pt x="830" y="564" on="1"/>
        <pt x="835" y="490" on="0"/>
        <pt x="852" y="414" on="1"/>
        <pt x="867" y="347" on="0"/>
        <pt x="894" y="304" on="1"/>
        <pt x="922" y="261" on="0"/>
        <pt x="962" y="238" on="1"/>
        <pt x="1004" y="214" on="0"/>
        <pt x="1059" y="214" on="1"/>
        <pt x="1130" y="214" on="0"/>
        <pt x="1176" y="248" on="1"/>
        <pt x="1224" y="283" on="0"/>
        <pt x="1249" y="355" on="1"/>
        <pt x="1276" y="432" on="0"/>
        <pt x="1286" y="522" on="1"/>
        <pt x="1296" y="613" on="0"/>
        <pt x="1296" y="756" on="1"/>
        <pt x="1296" y="1031" on="0"/>
        <pt x="1250" y="1139" on="1"/>
        <pt x="1204" y="1248" on="0"/>
        <pt x="1065" y="1248" on="1"/>
        <pt x="925" y="1248" on="0"/>
        <pt x="823" y="1026" on="0"/>
      </contour>
    </TTGlyph>
    <TTGlyph name="afii10049" xMin="121" yMin="0" xMax="1164" yMax="1456">
      <contour>
        <pt x="896" y="823" on="1"/>
        <pt x="896" y="1217" on="1"/>
        <pt x="768" y="1217" on="1"/>
        <pt x="490" y="1217" on="0"/>
        <pt x="490" y="823" on="0"/>
        <pt x="768" y="823" on="1"/>
      </contour>
      <contour>
        <pt x="427" y="0" on="1"/>
        <pt x="121" y="0" on="1"/>
        <pt x="493" y="627" on="1"/>
        <pt x="361" y="683" on="0"/>
        <pt x="288" y="791" on="1"/>
        <pt x="216" y="898" on="0"/>
        <pt x="216" y="1020" on="1"/>
        <pt x="216" y="1113" on="0"/>
        <pt x="250" y="1190" on="1"/>
        <pt x="283" y="1266" on="0"/>
        <pt x="352" y="1328" on="1"/>
        <pt x="417" y="1387" on="0"/>
        <pt x="525" y="1422" on="1"/>
        <pt x="630" y="1456" on="0"/>
        <pt x="768" y="1456" on="1"/>
        <pt x="896" y="1456" on="1"/>
        <pt x="1164" y="1456" on="1"/>
        <pt x="1164" y="0" on="1"/>
        <pt x="896" y="0" on="1"/>
        <pt x="896" y="580" on="1"/>
        <pt x="858" y="580" on="1"/>
        <pt x="846" y="580" on="0"/>
        <pt x="810" y="579" on="0"/>
        <pt x="805" y="579" on="1"/>
        <pt x="762" y="579" on="0"/>
        <pt x="740" y="581" on="1"/>
      </contour>
    </TTGlyph>
    <TTGlyph name="afii10051" xMin="-46" yMin="0" xMax="1133" yMax="1452">
      <contour>
        <pt x="377" y="0" on="1"/>
        <pt x="119" y="0" on="1"/>
        <pt x="119" y="1212" on="1"/>
        <pt x="-46" y="1212" on="1"/>
        <pt x="-46" y="1452" on="1"/>
        <pt x="558" y="1452" on="1"/>
        <pt x="558" y="1212" on="1"/>
        <pt x="377" y="1212" on="1"/>
        <pt x="377" y="912" on="1"/>
        <pt x="412" y="962" on="0"/>
        <pt x="536" y="1048" on="1"/>
        <pt x="614" y="1102" on="0"/>
        <pt x="754" y="1102" on="1"/>
        <pt x="847" y="1102" on="0"/>
        <pt x="900" y="1074" on="1"/>
        <pt x="951" y="1047" on="0"/>
        <pt x="1077" y="937" on="0"/>
        <pt x="1104" y="855" on="1"/>
        <pt x="1132" y="771" on="0"/>
        <pt x="1132" y="668" on="1"/>
        <pt x="1132" y="489" on="1"/>
        <pt x="1133" y="489" on="1"/>
        <pt x="1133" y="397" on="1"/>
        <pt x="1133" y="296" on="0"/>
        <pt x="1023" y="112" on="0"/>
        <pt x="841" y="0" on="0"/>
        <pt x="748" y="0" on="1"/>
        <pt x="666" y="0" on="0"/>
        <pt x="608" y="20" on="1"/>
        <pt x="554" y="38" on="0"/>
        <pt x="500" y="99" on="1"/>
        <pt x="669" y="271" on="1"/>
        <pt x="681" y="254" on="0"/>
        <pt x="707" y="242" on="1"/>
        <pt x="735" y="229" on="0"/>
        <pt x="759" y="229" on="1"/>
        <pt x="810" y="229" on="0"/>
        <pt x="842" y="260" on="1"/>
        <pt x="875" y="293" on="0"/>
        <pt x="875" y="340" on="1"/>
        <pt x="875" y="426" on="1"/>
        <pt x="874" y="426" on="1"/>
        <pt x="874" y="537" on="1"/>
        <pt x="874" y="625" on="0"/>
        <pt x="866" y="677" on="1"/>
        <pt x="857" y="735" on="0"/>
        <pt x="828" y="772" on="1"/>
        <pt x="798" y="810" on="0"/>
        <pt x="758" y="830" on="1"/>
        <pt x="714" y="852" on="0"/>
        <pt x="690" y="859" on="1"/>
        <pt x="663" y="867" on="0"/>
        <pt x="630" y="867" on="1"/>
        <pt x="586" y="867" on="0"/>
        <pt x="554" y="859" on="1"/>
        <pt x="485" y="839" on="0"/>
        <pt x="442" y="771" on="1"/>
        <pt x="432" y="756" on="0"/>
        <pt x="400" y="676" on="1"/>
        <pt x="377" y="618" on="0"/>
        <pt x="377" y="536" on="1"/>
      </contour>
    </TTGlyph>
    <TTGlyph name="afii10052" xMin="115" yMin="0" xMax="1097" yMax="1945">
      <component glyphName="afii10020" x="0" y="0" flags="0x1004"/>
      <component glyphName="acute" x="316" y="0" flags="0x1004"/>
    </TTGlyph>
    <TTGlyph name="afii10053" xMin="90" yMin="-33" xMax="1232" yMax="1497">
      <contour>
        <pt x="1232" y="310" on="1"/>
        <pt x="1073" y="-33" on="0"/>
        <pt x="725" y="-33" on="1"/>
        <pt x="588" y="-33" on="0"/>
        <pt x="477" y="11" on="1"/>
        <pt x="367" y="55" on="0"/>
        <pt x="296" y="130" on="1"/>
        <pt x="226" y="205" on="0"/>
        <pt x="178" y="306" on="1"/>
        <pt x="129" y="409" on="0"/>
        <pt x="110" y="520" on="1"/>
        <pt x="90" y="634" on="0"/>
        <pt x="90" y="754" on="1"/>
        <pt x="90" y="873" on="0"/>
        <pt x="111" y="978" on="1"/>
        <pt x="132" y="1085" on="0"/>
        <pt x="180" y="1180" on="1"/>
        <pt x="229" y="1278" on="0"/>
        <pt x="300" y="1346" on="1"/>
        <pt x="373" y="1416" on="0"/>
        <pt x="482" y="1456" on="1"/>
        <pt x="593" y="1497" on="0"/>
        <pt x="727" y="1497" on="1"/>
        <pt x="904" y="1497" on="0"/>
        <pt x="1034" y="1406" on="1"/>
        <pt x="1163" y="1316" on="0"/>
        <pt x="1220" y="1187" on="1"/>
        <pt x="965" y="1098" on="1"/>
        <pt x="924" y="1164" on="0"/>
        <pt x="858" y="1210" on="1"/>
        <pt x="790" y="1257" on="0"/>
        <pt x="727" y="1257" on="1"/>
        <pt x="648" y="1257" on="0"/>
        <pt x="586" y="1230" on="1"/>
        <pt x="523" y="1202" on="0"/>
        <pt x="484" y="1156" on="1"/>
        <pt x="446" y="1110" on="0"/>
        <pt x="394" y="978" on="0"/>
        <pt x="384" y="908" on="1"/>
        <pt x="384" y="906" on="0"/>
        <pt x="382" y="897" on="0"/>
        <pt x="382" y="894" on="1"/>
        <pt x="825" y="894" on="1"/>
        <pt x="825" y="654" on="1"/>
        <pt x="377" y="654" on="1"/>
        <pt x="380" y="614" on="0"/>
        <pt x="394" y="547" on="1"/>
        <pt x="416" y="449" on="0"/>
        <pt x="455" y="374" on="1"/>
        <pt x="496" y="296" on="0"/>
        <pt x="565" y="253" on="1"/>
        <pt x="635" y="209" on="0"/>
        <pt x="725" y="209" on="1"/>
        <pt x="861" y="209" on="0"/>
        <pt x="973" y="410" on="1"/>
      </contour>
    </TTGlyph>
    <TTGlyph name="afii10054" xMin="83" yMin="-29" xMax="1126" yMax="1492">
      <contour>
        <pt x="83" y="404" on="1"/>
        <pt x="351" y="447" on="1"/>
        <pt x="377" y="345" on="0"/>
        <pt x="443" y="280" on="1"/>
        <pt x="512" y="213" on="0"/>
        <pt x="620" y="213" on="1"/>
        <pt x="731" y="213" on="0"/>
        <pt x="792" y="266" on="1"/>
        <pt x="852" y="318" on="0"/>
        <pt x="852" y="404" on="1"/>
        <pt x="852" y="451" on="0"/>
        <pt x="833" y="488" on="1"/>
        <pt x="812" y="528" on="0"/>
        <pt x="786" y="550" on="1"/>
        <pt x="757" y="575" on="0"/>
        <pt x="710" y="598" on="1"/>
        <pt x="657" y="624" on="0"/>
        <pt x="620" y="639" on="1"/>
        <pt x="613" y="642" on="0"/>
        <pt x="538" y="670" on="0"/>
        <pt x="514" y="680" on="1"/>
        <pt x="443" y="709" on="0"/>
        <pt x="406" y="726" on="1"/>
        <pt x="357" y="750" on="0"/>
        <pt x="326" y="768" on="1"/>
        <pt x="298" y="785" on="0"/>
        <pt x="254" y="820" on="1"/>
        <pt x="216" y="851" on="0"/>
        <pt x="191" y="888" on="1"/>
        <pt x="168" y="923" on="0"/>
        <pt x="151" y="976" on="1"/>
        <pt x="135" y="1027" on="0"/>
        <pt x="135" y="1090" on="1"/>
        <pt x="135" y="1187" on="0"/>
        <pt x="176" y="1266" on="1"/>
        <pt x="218" y="1348" on="0"/>
        <pt x="285" y="1394" on="1"/>
        <pt x="352" y="1441" on="0"/>
        <pt x="440" y="1467" on="1"/>
        <pt x="524" y="1492" on="0"/>
        <pt x="620" y="1492" on="1"/>
        <pt x="787" y="1492" on="0"/>
        <pt x="916" y="1405" on="1"/>
        <pt x="1046" y="1318" on="0"/>
        <pt x="1089" y="1186" on="1"/>
        <pt x="816" y="1135" on="1"/>
        <pt x="766" y="1251" on="0"/>
        <pt x="620" y="1251" on="1"/>
        <pt x="526" y="1251" on="0"/>
        <pt x="468" y="1214" on="1"/>
        <pt x="409" y="1176" on="0"/>
        <pt x="409" y="1090" on="1"/>
        <pt x="409" y="1050" on="0"/>
        <pt x="436" y="1016" on="1"/>
        <pt x="461" y="984" on="0"/>
        <pt x="512" y="956" on="1"/>
        <pt x="556" y="932" on="0"/>
        <pt x="610" y="910" on="1"/>
        <pt x="693" y="876" on="0"/>
        <pt x="720" y="866" on="1"/>
        <pt x="791" y="839" on="0"/>
        <pt x="814" y="828" on="1"/>
        <pt x="864" y="804" on="0"/>
        <pt x="914" y="775" on="1"/>
        <pt x="956" y="750" on="0"/>
        <pt x="999" y="712" on="1"/>
        <pt x="1040" y="675" on="0"/>
        <pt x="1068" y="632" on="1"/>
        <pt x="1092" y="595" on="0"/>
        <pt x="1110" y="531" on="1"/>
        <pt x="1126" y="474" on="0"/>
        <pt x="1126" y="404" on="1"/>
        <pt x="1126" y="207" on="0"/>
        <pt x="836" y="-29" on="0"/>
        <pt x="620" y="-29" on="1"/>
        <pt x="411" y="-29" on="0"/>
        <pt x="262" y="90" on="1"/>
        <pt x="112" y="210" on="0"/>
      </contour>
    </TTGlyph>
    <TTGlyph name="afii10055" xMin="143" yMin="0" xMax="412" yMax="1456">
      <contour>
        <pt x="143" y="0" on="1"/>
        <pt x="143" y="1456" on="1"/>
        <pt x="412" y="1456" on="1"/>
        <pt x="412" y="0" on="1"/>
      </contour>
    </TTGlyph>
    <TTGlyph name="afii10056" xMin="-117" yMin="0" xMax="682" yMax="1921">
      <contour>
        <pt x="-117" y="1757" on="1"/>
        <pt x="-117" y="1825" on="0"/>
        <pt x="-21" y="1921" on="0"/>
        <pt x="115" y="1921" on="0"/>
        <pt x="211" y="1825" on="0"/>
        <pt x="211" y="1689" on="0"/>
        <pt x="115" y="1593" on="0"/>
        <pt x="47" y="1593" on="1"/>
        <pt x="-20" y="1593" on="0"/>
        <pt x="-69" y="1642" on="1"/>
        <pt x="-117" y="1690" on="0"/>
      </contour>
      <contour>
        <pt x="354" y="1757" on="1"/>
        <pt x="354" y="1825" on="0"/>
        <pt x="450" y="1921" on="0"/>
        <pt x="586" y="1921" on="0"/>
        <pt x="682" y="1825" on="0"/>
        <pt x="682" y="1689" on="0"/>
        <pt x="586" y="1593" on="0"/>
        <pt x="518" y="1593" on="1"/>
        <pt x="451" y="1593" on="0"/>
        <pt x="402" y="1642" on="1"/>
        <pt x="354" y="1690" on="0"/>
      </contour>
      <contour>
        <pt x="143" y="0" on="1"/>
        <pt x="143" y="1456" on="1"/>
        <pt x="412" y="1456" on="1"/>
        <pt x="412" y="0" on="1"/>
      </contour>
    </TTGlyph>
    <TTGlyph name="afii10057" xMin="102" yMin="-35" xMax="1128" yMax="1456">
      <contour>
        <pt x="102" y="586" on="1"/>
        <pt x="343" y="586" on="1"/>
        <pt x="343" y="517" on="0"/>
        <pt x="357" y="453" on="1"/>
        <pt x="370" y="393" on="0"/>
        <pt x="402" y="336" on="1"/>
        <pt x="433" y="281" on="0"/>
        <pt x="487" y="250" on="1"/>
        <pt x="542" y="219" on="0"/>
        <pt x="616" y="219" on="1"/>
        <pt x="686" y="219" on="0"/>
        <pt x="735" y="250" on="1"/>
        <pt x="786" y="282" on="0"/>
        <pt x="811" y="336" on="1"/>
        <pt x="836" y="389" on="0"/>
        <pt x="848" y="451" on="1"/>
        <pt x="860" y="512" on="0"/>
        <pt x="860" y="586" on="1"/>
        <pt x="860" y="1216" on="1"/>
        <pt x="489" y="1216" on="1"/>
        <pt x="489" y="1456" on="1"/>
        <pt x="1128" y="1456" on="1"/>
        <pt x="1128" y="1216" on="1"/>
        <pt x="1128" y="586" on="1"/>
        <pt x="1128" y="402" on="0"/>
        <pt x="1072" y="263" on="1"/>
        <pt x="1016" y="125" on="0"/>
        <pt x="899" y="45" on="1"/>
        <pt x="781" y="-35" on="0"/>
        <pt x="616" y="-35" on="1"/>
        <pt x="510" y="-35" on="0"/>
        <pt x="426" y="-4" on="1"/>
        <pt x="338" y="28" on="0"/>
        <pt x="280" y="82" on="1"/>
        <pt x="221" y="136" on="0"/>
        <pt x="180" y="216" on="1"/>
        <pt x="141" y="291" on="0"/>
        <pt x="121" y="386" on="1"/>
        <pt x="102" y="477" on="0"/>
      </contour>
    </TTGlyph>
    <TTGlyph name="afii10058" xMin="66" yMin="0" xMax="1892" yMax="1456">
      <contour>
        <pt x="595" y="1456" on="1"/>
        <pt x="1212" y="1456" on="1"/>
        <pt x="1212" y="1217" on="1"/>
        <pt x="1212" y="876" on="1"/>
        <pt x="1342" y="876" on="1"/>
        <pt x="1468" y="876" on="0"/>
        <pt x="1575" y="841" on="1"/>
        <pt x="1677" y="807" on="0"/>
        <pt x="1748" y="746" on="1"/>
        <pt x="1816" y="687" on="0"/>
        <pt x="1892" y="525" on="0"/>
        <pt x="1892" y="436" on="1"/>
        <pt x="1892" y="343" on="0"/>
        <pt x="1858" y="266" on="1"/>
        <pt x="1825" y="190" on="0"/>
        <pt x="1756" y="128" on="1"/>
        <pt x="1691" y="69" on="0"/>
        <pt x="1584" y="34" on="1"/>
        <pt x="1479" y="0" on="0"/>
        <pt x="1342" y="0" on="1"/>
        <pt x="1212" y="0" on="1"/>
        <pt x="944" y="0" on="1"/>
        <pt x="944" y="1217" on="1"/>
        <pt x="819" y="1217" on="1"/>
        <pt x="699" y="397" on="1"/>
        <pt x="679" y="263" on="0"/>
        <pt x="644" y="204" on="1"/>
        <pt x="589" y="112" on="0"/>
        <pt x="407" y="0" on="0"/>
        <pt x="314" y="0" on="1"/>
        <pt x="232" y="0" on="0"/>
        <pt x="174" y="20" on="1"/>
        <pt x="120" y="38" on="0"/>
        <pt x="66" y="99" on="1"/>
        <pt x="235" y="271" on="1"/>
        <pt x="247" y="254" on="0"/>
        <pt x="273" y="242" on="1"/>
        <pt x="301" y="229" on="0"/>
        <pt x="325" y="229" on="1"/>
        <pt x="368" y="229" on="0"/>
        <pt x="400" y="253" on="1"/>
        <pt x="441" y="340" on="1"/>
      </contour>
      <contour>
        <pt x="1212" y="633" on="1"/>
        <pt x="1212" y="239" on="1"/>
        <pt x="1342" y="239" on="1"/>
        <pt x="1618" y="239" on="0"/>
        <pt x="1618" y="633" on="0"/>
        <pt x="1342" y="633" on="1"/>
      </contour>
    </TTGlyph>
    <TTGlyph name="afii10059" xMin="115" yMin="0" xMax="1642" yMax="1456">
      <contour>
        <pt x="115" y="1456" on="1"/>
        <pt x="383" y="1456" on="1"/>
        <pt x="383" y="864" on="1"/>
        <pt x="694" y="864" on="1"/>
        <pt x="694" y="1456" on="1"/>
        <pt x="962" y="1456" on="1"/>
        <pt x="963" y="1456" on="1"/>
        <pt x="963" y="876" on="1"/>
        <pt x="1092" y="876" on="1"/>
        <pt x="1218" y="876" on="0"/>
        <pt x="1325" y="841" on="1"/>
        <pt x="1427" y="807" on="0"/>
        <pt x="1498" y="746" on="1"/>
        <pt x="1566" y="687" on="0"/>
        <pt x="1642" y="525" on="0"/>
        <pt x="1642" y="436" on="1"/>
        <pt x="1642" y="343" on="0"/>
        <pt x="1608" y="266" on="1"/>
        <pt x="1575" y="190" on="0"/>
        <pt x="1506" y="128" on="1"/>
        <pt x="1441" y="69" on="0"/>
        <pt x="1334" y="34" on="1"/>
        <pt x="1229" y="0" on="0"/>
        <pt x="1092" y="0" on="1"/>
        <pt x="963" y="0" on="1"/>
        <pt x="694" y="0" on="1"/>
        <pt x="694" y="625" on="1"/>
        <pt x="383" y="625" on="1"/>
        <pt x="383" y="0" on="1"/>
        <pt x="115" y="0" on="1"/>
      </contour>
      <contour>
        <pt x="963" y="239" on="1"/>
        <pt x="1092" y="239" on="1"/>
        <pt x="1368" y="239" on="0"/>
        <pt x="1368" y="633" on="0"/>
        <pt x="1092" y="633" on="1"/>
        <pt x="963" y="633" on="1"/>
      </contour>
    </TTGlyph>
    <TTGlyph name="afii10060" xMin="0" yMin="0" xMax="1014" yMax="1454">
      <contour>
        <pt x="377" y="0" on="1"/>
        <pt x="119" y="0" on="1"/>
        <pt x="119" y="1214" on="1"/>
        <pt x="0" y="1214" on="1"/>
        <pt x="0" y="1454" on="1"/>
        <pt x="504" y="1454" on="1"/>
        <pt x="504" y="1214" on="1"/>
        <pt x="377" y="1214" on="1"/>
        <pt x="377" y="912" on="1"/>
        <pt x="421" y="993" on="0"/>
        <pt x="510" y="1048" on="1"/>
        <pt x="597" y="1102" on="0"/>
        <pt x="700" y="1102" on="1"/>
        <pt x="757" y="1102" on="0"/>
        <pt x="810" y="1074" on="1"/>
        <pt x="861" y="1047" on="0"/>
        <pt x="959" y="937" on="0"/>
        <pt x="986" y="855" on="1"/>
        <pt x="1014" y="771" on="0"/>
        <pt x="1014" y="668" on="1"/>
        <pt x="1014" y="0" on="1"/>
        <pt x="756" y="0" on="1"/>
        <pt x="756" y="537" on="1"/>
        <pt x="756" y="625" on="0"/>
        <pt x="748" y="677" on="1"/>
        <pt x="739" y="736" on="0"/>
        <pt x="724" y="772" on="1"/>
        <pt x="708" y="811" on="0"/>
        <pt x="686" y="830" on="1"/>
        <pt x="661" y="852" on="0"/>
        <pt x="636" y="859" on="1"/>
        <pt x="609" y="867" on="0"/>
        <pt x="543" y="867" on="0"/>
        <pt x="514" y="859" on="1"/>
        <pt x="487" y="852" on="0"/>
        <pt x="460" y="829" on="1"/>
        <pt x="434" y="808" on="0"/>
        <pt x="416" y="771" on="1"/>
        <pt x="399" y="736" on="0"/>
        <pt x="388" y="676" on="1"/>
        <pt x="377" y="613" on="0"/>
        <pt x="377" y="536" on="1"/>
      </contour>
    </TTGlyph>
    <TTGlyph name="afii10061" xMin="115" yMin="0" xMax="1290" yMax="1945">
      <component glyphName="afii10028" x="0" y="0" flags="0x1004"/>
      <component glyphName="acute" x="412" y="0" flags="0x1004"/>
    </TTGlyph>
    <TTGlyph name="afii10062" xMin="-68" yMin="0" xMax="1248" yMax="1921">
      <component glyphName="afii10037" x="0" y="0" flags="0x1004"/>
      <component glyphName="dieresis" x="200" y="0" flags="0x1004"/>
    </TTGlyph>
    <TTGlyph name="afii10065" xMin="90" yMin="-29" xMax="978" yMax="1102">
      <contour>
        <pt x="535" y="524" on="1"/>
        <pt x="446" y="524" on="0"/>
        <pt x="390" y="474" on="1"/>
        <pt x="332" y="422" on="0"/>
        <pt x="332" y="290" on="0"/>
        <pt x="389" y="240" on="1"/>
        <pt x="445" y="191" on="0"/>
        <pt x="535" y="191" on="1"/>
        <pt x="621" y="191" on="0"/>
        <pt x="675" y="240" on="1"/>
        <pt x="727" y="288" on="0"/>
        <pt x="727" y="356" on="1"/>
        <pt x="727" y="425" on="0"/>
        <pt x="675" y="474" on="1"/>
        <pt x="622" y="524" on="0"/>
      </contour>
      <contour>
        <pt x="450" y="741" on="1"/>
        <pt x="549" y="741" on="0"/>
        <pt x="624" y="690" on="1"/>
        <pt x="700" y="638" on="0"/>
        <pt x="719" y="576" on="1"/>
        <pt x="719" y="658" on="1"/>
        <pt x="719" y="716" on="0"/>
        <pt x="702" y="761" on="1"/>
        <pt x="685" y="805" on="0"/>
        <pt x="662" y="830" on="1"/>
        <pt x="637" y="857" on="0"/>
        <pt x="567" y="887" on="0"/>
        <pt x="536" y="892" on="1"/>
        <pt x="503" y="897" on="0"/>
        <pt x="472" y="897" on="1"/>
        <pt x="427" y="897" on="0"/>
        <pt x="337" y="879" on="0"/>
        <pt x="316" y="870" on="1"/>
        <pt x="312" y="869" on="0"/>
        <pt x="271" y="850" on="0"/>
        <pt x="256" y="844" on="1"/>
        <pt x="153" y="1008" on="1"/>
        <pt x="199" y="1045" on="0"/>
        <pt x="295" y="1073" on="1"/>
        <pt x="394" y="1102" on="0"/>
        <pt x="472" y="1102" on="1"/>
        <pt x="549" y="1102" on="0"/>
        <pt x="626" y="1086" on="1"/>
        <pt x="698" y="1071" on="0"/>
        <pt x="763" y="1034" on="1"/>
        <pt x="832" y="995" on="0"/>
        <pt x="876" y="942" on="1"/>
        <pt x="923" y="886" on="0"/>
        <pt x="950" y="801" on="1"/>
        <pt x="978" y="712" on="0"/>
        <pt x="978" y="609" on="1"/>
        <pt x="978" y="305" on="1"/>
        <pt x="978" y="0" on="1"/>
        <pt x="721" y="0" on="1"/>
        <pt x="721" y="136" on="1"/>
        <pt x="701" y="74" on="0"/>
        <pt x="626" y="22" on="1"/>
        <pt x="552" y="-29" on="0"/>
        <pt x="454" y="-29" on="1"/>
        <pt x="301" y="-29" on="0"/>
        <pt x="196" y="82" on="1"/>
        <pt x="90" y="194" on="0"/>
        <pt x="90" y="522" on="0"/>
        <pt x="195" y="632" on="1"/>
        <pt x="300" y="741" on="0"/>
      </contour>
    </TTGlyph>
    <TTGlyph name="afii10066" xMin="92" yMin="-29" xMax="1036" yMax="1514">
      <contour>
        <pt x="478" y="1514" on="1"/>
        <pt x="909" y="1514" on="1"/>
        <pt x="909" y="1274" on="1"/>
        <pt x="478" y="1274" on="1"/>
        <pt x="404" y="1274" on="0"/>
        <pt x="384" y="1254" on="1"/>
        <pt x="351" y="1221" on="0"/>
        <pt x="351" y="1174" on="1"/>
        <pt x="351" y="1056" on="1"/>
        <pt x="440" y="1100" on="0"/>
        <pt x="565" y="1100" on="1"/>
        <pt x="790" y="1100" on="0"/>
        <pt x="913" y="949" on="1"/>
        <pt x="1036" y="797" on="0"/>
        <pt x="1036" y="277" on="0"/>
        <pt x="790" y="-29" on="0"/>
        <pt x="565" y="-29" on="1"/>
        <pt x="339" y="-29" on="0"/>
        <pt x="216" y="122" on="1"/>
        <pt x="92" y="275" on="0"/>
        <pt x="92" y="537" on="1"/>
        <pt x="92" y="568" on="0"/>
        <pt x="93" y="583" on="1"/>
        <pt x="93" y="1117" on="1"/>
        <pt x="93" y="1218" on="0"/>
        <pt x="203" y="1402" on="0"/>
        <pt x="385" y="1514" on="0"/>
      </contour>
      <contour>
        <pt x="344" y="527" on="1"/>
        <pt x="347" y="206" on="0"/>
        <pt x="566" y="206" on="1"/>
        <pt x="788" y="206" on="0"/>
        <pt x="788" y="537" on="1"/>
        <pt x="788" y="866" on="0"/>
        <pt x="566" y="866" on="1"/>
        <pt x="384" y="866" on="0"/>
        <pt x="351" y="643" on="1"/>
        <pt x="351" y="527" on="1"/>
      </contour>
    </TTGlyph>
    <TTGlyph name="afii10067" xMin="53" yMin="-1" xMax="947" yMax="1076">
      <contour>
        <pt x="316" y="472" on="1"/>
        <pt x="316" y="177" on="1"/>
        <pt x="477" y="177" on="1"/>
        <pt x="592" y="177" on="0"/>
        <pt x="639" y="220" on="1"/>
        <pt x="687" y="264" on="0"/>
        <pt x="687" y="330" on="1"/>
        <pt x="687" y="472" on="0"/>
        <pt x="477" y="472" on="1"/>
      </contour>
      <contour>
        <pt x="316" y="901" on="1"/>
        <pt x="316" y="648" on="1"/>
        <pt x="433" y="648" on="1"/>
        <pt x="534" y="648" on="0"/>
        <pt x="622" y="724" on="0"/>
        <pt x="622" y="776" on="1"/>
        <pt x="622" y="826" on="0"/>
        <pt x="578" y="864" on="1"/>
        <pt x="535" y="901" on="0"/>
        <pt x="433" y="901" on="1"/>
      </contour>
      <contour>
        <pt x="53" y="1076" on="1"/>
        <pt x="498" y="1076" on="1"/>
        <pt x="569" y="1076" on="0"/>
        <pt x="623" y="1066" on="1"/>
        <pt x="680" y="1056" on="0"/>
        <pt x="719" y="1039" on="1"/>
        <pt x="759" y="1022" on="0"/>
        <pt x="817" y="976" on="0"/>
        <pt x="835" y="950" on="1"/>
        <pt x="854" y="923" on="0"/>
        <pt x="864" y="896" on="1"/>
        <pt x="877" y="862" on="0"/>
        <pt x="879" y="842" on="1"/>
        <pt x="882" y="816" on="0"/>
        <pt x="882" y="791" on="1"/>
        <pt x="882" y="708" on="0"/>
        <pt x="841" y="660" on="1"/>
        <pt x="798" y="609" on="0"/>
        <pt x="731" y="589" on="1"/>
        <pt x="802" y="572" on="0"/>
        <pt x="853" y="523" on="1"/>
        <pt x="907" y="471" on="0"/>
        <pt x="926" y="423" on="1"/>
        <pt x="947" y="370" on="0"/>
        <pt x="947" y="324" on="1"/>
        <pt x="947" y="282" on="0"/>
        <pt x="940" y="246" on="1"/>
        <pt x="933" y="208" on="0"/>
        <pt x="907" y="161" on="1"/>
        <pt x="881" y="113" on="0"/>
        <pt x="842" y="80" on="1"/>
        <pt x="804" y="48" on="0"/>
        <pt x="730" y="23" on="1"/>
        <pt x="658" y="-1" on="0"/>
        <pt x="563" y="-1" on="1"/>
        <pt x="53" y="-1" on="1"/>
      </contour>
    </TTGlyph>
    <TTGlyph name="afii10068" xMin="119" yMin="0" xMax="1014" yMax="1074">
      <contour>
        <pt x="119" y="1074" on="1"/>
        <pt x="1014" y="1074" on="1"/>
        <pt x="1014" y="835" on="1"/>
        <pt x="387" y="835" on="1"/>
        <pt x="377" y="0" on="1"/>
        <pt x="119" y="0" on="1"/>
      </contour>
    </TTGlyph>
    <TTGlyph name="afii10069" xMin="68" yMin="-228" xMax="1130" yMax="1074">
      <contour>
        <pt x="1130" y="-228" on="1"/>
        <pt x="890" y="-228" on="1"/>
        <pt x="890" y="0" on="1"/>
        <pt x="308" y="0" on="1"/>
        <pt x="308" y="-228" on="1"/>
        <pt x="68" y="-228" on="1"/>
        <pt x="68" y="240" on="1"/>
        <pt x="180" y="240" on="1"/>
        <pt x="190" y="246" on="0"/>
        <pt x="194" y="249" on="1"/>
        <pt x="236" y="336" on="1"/>
        <pt x="334" y="1073" on="1"/>
        <pt x="890" y="1074" on="1"/>
        <pt x="890" y="240" on="1"/>
        <pt x="1130" y="240" on="1"/>
      </contour>
      <contour>
        <pt x="628" y="240" on="1"/>
        <pt x="628" y="834" on="1"/>
        <pt x="558" y="834" on="1"/>
        <pt x="494" y="393" on="1"/>
        <pt x="481" y="303" on="0"/>
        <pt x="457" y="240" on="1"/>
      </contour>
    </TTGlyph>
    <TTGlyph name="afii10070" xMin="78" yMin="-29" xMax="1016" yMax="1098">
      <contour>
        <pt x="352" y="651" on="1"/>
        <pt x="766" y="651" on="1"/>
        <pt x="758" y="742" on="0"/>
        <pt x="704" y="804" on="1"/>
        <pt x="648" y="868" on="0"/>
        <pt x="558" y="868" on="1"/>
        <pt x="469" y="868" on="0"/>
        <pt x="414" y="804" on="1"/>
        <pt x="358" y="739" on="0"/>
      </contour>
      <contour>
        <pt x="568" y="201" on="1"/>
        <pt x="668" y="201" on="0"/>
        <pt x="722" y="267" on="1"/>
        <pt x="950" y="169" on="1"/>
        <pt x="889" y="76" on="0"/>
        <pt x="781" y="24" on="1"/>
        <pt x="672" y="-29" on="0"/>
        <pt x="568" y="-29" on="1"/>
        <pt x="467" y="-29" on="0"/>
        <pt x="378" y="14" on="1"/>
        <pt x="288" y="58" on="0"/>
        <pt x="222" y="131" on="1"/>
        <pt x="154" y="206" on="0"/>
        <pt x="116" y="311" on="1"/>
        <pt x="78" y="415" on="0"/>
        <pt x="78" y="537" on="1"/>
        <pt x="78" y="777" on="0"/>
        <pt x="218" y="938" on="1"/>
        <pt x="357" y="1098" on="0"/>
        <pt x="558" y="1098" on="1"/>
        <pt x="690" y="1098" on="0"/>
        <pt x="795" y="1026" on="1"/>
        <pt x="898" y="955" on="0"/>
        <pt x="958" y="825" on="1"/>
        <pt x="1016" y="699" on="0"/>
        <pt x="1016" y="537" on="1"/>
        <pt x="1016" y="469" on="1"/>
        <pt x="352" y="469" on="1"/>
        <pt x="353" y="389" on="0"/>
        <pt x="376" y="332" on="1"/>
        <pt x="399" y="274" on="0"/>
        <pt x="434" y="248" on="1"/>
        <pt x="466" y="224" on="0"/>
        <pt x="502" y="212" on="1"/>
        <pt x="535" y="201" on="0"/>
      </contour>
    </TTGlyph>
    <TTGlyph name="afii10071" xMin="78" yMin="-29" xMax="1016" yMax="1514">
      <contour>
        <pt x="151" y="1282" on="0"/>
        <pt x="151" y="1418" on="0"/>
        <pt x="247" y="1514" on="0"/>
        <pt x="383" y="1514" on="0"/>
        <pt x="479" y="1418" on="0"/>
        <pt x="479" y="1282" on="0"/>
        <pt x="383" y="1186" on="0"/>
        <pt x="247" y="1186" on="0"/>
      </contour>
      <contour>
        <pt x="622" y="1282" on="0"/>
        <pt x="622" y="1418" on="0"/>
        <pt x="718" y="1514" on="0"/>
        <pt x="854" y="1514" on="0"/>
        <pt x="950" y="1418" on="0"/>
        <pt x="950" y="1282" on="0"/>
        <pt x="854" y="1186" on="0"/>
        <pt x="718" y="1186" on="0"/>
      </contour>
      <contour>
        <pt x="352" y="651" on="1"/>
        <pt x="766" y="651" on="1"/>
        <pt x="758" y="742" on="0"/>
        <pt x="704" y="804" on="1"/>
        <pt x="648" y="868" on="0"/>
        <pt x="558" y="868" on="1"/>
        <pt x="469" y="868" on="0"/>
        <pt x="414" y="804" on="1"/>
        <pt x="358" y="739" on="0"/>
      </contour>
      <contour>
        <pt x="568" y="201" on="1"/>
        <pt x="668" y="201" on="0"/>
        <pt x="722" y="267" on="1"/>
        <pt x="950" y="169" on="1"/>
        <pt x="889" y="76" on="0"/>
        <pt x="781" y="24" on="1"/>
        <pt x="672" y="-29" on="0"/>
        <pt x="568" y="-29" on="1"/>
        <pt x="467" y="-29" on="0"/>
        <pt x="378" y="14" on="1"/>
        <pt x="288" y="58" on="0"/>
        <pt x="222" y="131" on="1"/>
        <pt x="154" y="206" on="0"/>
        <pt x="116" y="311" on="1"/>
        <pt x="78" y="415" on="0"/>
        <pt x="78" y="537" on="1"/>
        <pt x="78" y="777" on="0"/>
        <pt x="218" y="938" on="1"/>
        <pt x="357" y="1098" on="0"/>
        <pt x="558" y="1098" on="1"/>
        <pt x="690" y="1098" on="0"/>
        <pt x="795" y="1026" on="1"/>
        <pt x="898" y="955" on="0"/>
        <pt x="958" y="825" on="1"/>
        <pt x="1016" y="699" on="0"/>
        <pt x="1016" y="537" on="1"/>
        <pt x="1016" y="469" on="1"/>
        <pt x="352" y="469" on="1"/>
        <pt x="353" y="389" on="0"/>
        <pt x="376" y="332" on="1"/>
        <pt x="399" y="274" on="0"/>
        <pt x="434" y="248" on="1"/>
        <pt x="466" y="224" on="0"/>
        <pt x="502" y="212" on="1"/>
        <pt x="535" y="201" on="0"/>
      </contour>
    </TTGlyph>
    <TTGlyph name="afii10072" xMin="84" yMin="0" xMax="1346" yMax="1073">
      <contour>
        <pt x="582" y="0" on="1"/>
        <pt x="582" y="333" on="1"/>
        <pt x="581" y="335" on="1"/>
        <pt x="391" y="0" on="1"/>
        <pt x="84" y="0" on="1"/>
        <pt x="425" y="536" on="1"/>
        <pt x="102" y="1073" on="1"/>
        <pt x="392" y="1073" on="1"/>
        <pt x="582" y="743" on="1"/>
        <pt x="582" y="1073" on="1"/>
        <pt x="851" y="1073" on="1"/>
        <pt x="851" y="748" on="1"/>
        <pt x="1038" y="1073" on="1"/>
        <pt x="1328" y="1073" on="1"/>
        <pt x="1005" y="536" on="1"/>
        <pt x="1346" y="0" on="1"/>
        <pt x="1039" y="0" on="1"/>
        <pt x="851" y="331" on="1"/>
        <pt x="851" y="0" on="1"/>
      </contour>
    </TTGlyph>
    <TTGlyph name="afii10073" xMin="86" yMin="-29" xMax="842" yMax="1109">
      <contour>
        <pt x="86" y="234" on="1"/>
        <pt x="325" y="294" on="1"/>
        <pt x="346" y="241" on="0"/>
        <pt x="384" y="218" on="1"/>
        <pt x="425" y="193" on="0"/>
        <pt x="464" y="193" on="1"/>
        <pt x="520" y="193" on="0"/>
        <pt x="558" y="228" on="1"/>
        <pt x="595" y="262" on="0"/>
        <pt x="595" y="314" on="1"/>
        <pt x="595" y="364" on="0"/>
        <pt x="555" y="402" on="1"/>
        <pt x="517" y="439" on="0"/>
        <pt x="464" y="439" on="1"/>
        <pt x="371" y="439" on="1"/>
        <pt x="369" y="676" on="1"/>
        <pt x="449" y="676" on="1"/>
        <pt x="490" y="676" on="0"/>
        <pt x="522" y="710" on="1"/>
        <pt x="553" y="742" on="0"/>
        <pt x="553" y="783" on="1"/>
        <pt x="553" y="838" on="0"/>
        <pt x="523" y="866" on="1"/>
        <pt x="492" y="895" on="0"/>
        <pt x="446" y="895" on="1"/>
        <pt x="413" y="895" on="0"/>
        <pt x="363" y="859" on="0"/>
        <pt x="352" y="833" on="1"/>
        <pt x="131" y="898" on="1"/>
        <pt x="212" y="1109" on="0"/>
        <pt x="443" y="1109" on="1"/>
        <pt x="512" y="1109" on="0"/>
        <pt x="622" y="1077" on="0"/>
        <pt x="673" y="1042" on="1"/>
        <pt x="721" y="1009" on="0"/>
        <pt x="748" y="950" on="1"/>
        <pt x="776" y="889" on="0"/>
        <pt x="776" y="814" on="1"/>
        <pt x="776" y="686" on="0"/>
        <pt x="667" y="607" on="1"/>
        <pt x="703" y="583" on="0"/>
        <pt x="730" y="559" on="1"/>
        <pt x="759" y="533" on="0"/>
        <pt x="784" y="500" on="1"/>
        <pt x="813" y="461" on="0"/>
        <pt x="827" y="417" on="1"/>
        <pt x="842" y="369" on="0"/>
        <pt x="842" y="314" on="1"/>
        <pt x="842" y="247" on="0"/>
        <pt x="813" y="183" on="1"/>
        <pt x="783" y="117" on="0"/>
        <pt x="736" y="73" on="1"/>
        <pt x="686" y="26" on="0"/>
        <pt x="616" y="-1" on="1"/>
        <pt x="543" y="-29" on="0"/>
        <pt x="465" y="-29" on="1"/>
        <pt x="382" y="-29" on="0"/>
        <pt x="310" y="-3" on="1"/>
        <pt x="239" y="22" on="0"/>
        <pt x="179" y="83" on="1"/>
        <pt x="120" y="142" on="0"/>
      </contour>
    </TTGlyph>
    <TTGlyph name="afii10074" xMin="130" yMin="0" xMax="1019" yMax="1077">
      <contour>
        <pt x="130" y="1077" on="1"/>
        <pt x="346" y="1077" on="1"/>
        <pt x="346" y="357" on="1"/>
        <pt x="805" y="1077" on="1"/>
        <pt x="1019" y="1077" on="1"/>
        <pt x="1019" y="0" on="1"/>
        <pt x="802" y="0" on="1"/>
        <pt x="802" y="696" on="1"/>
        <pt x="339" y="0" on="1"/>
        <pt x="130" y="0" on="1"/>
      </contour>
    </TTGlyph>
    <TTGlyph name="afii10075" xMin="130" yMin="0" xMax="1019" yMax="1597">
      <component glyphName="afii10074" x="0" y="0" flags="0x1004"/>
      <component glyphName="breve" x="-165" y="-345" flags="0x1004"/>
    </TTGlyph>
    <TTGlyph name="afii10076" xMin="23" yMin="-1" xMax="1026" yMax="1074">
      <contour>
        <pt x="291" y="414" on="1"/>
        <pt x="291" y="-1" on="1"/>
        <pt x="23" y="-1" on="1"/>
        <pt x="23" y="1074" on="1"/>
        <pt x="291" y="1074" on="1"/>
        <pt x="291" y="672" on="1"/>
        <pt x="691" y="1073" on="1"/>
        <pt x="1026" y="1073" on="1"/>
        <pt x="519" y="549" on="1"/>
        <pt x="1021" y="0" on="1"/>
        <pt x="685" y="0" on="1"/>
      </contour>
    </TTGlyph>
    <TTGlyph name="afii10077" xMin="22" yMin="-4" xMax="1052" yMax="1074">
      <contour>
        <pt x="1052" y="0" on="1"/>
        <pt x="790" y="0" on="1"/>
        <pt x="790" y="834" on="1"/>
        <pt x="720" y="834" on="1"/>
        <pt x="656" y="393" on="1"/>
        <pt x="636" y="261" on="0"/>
        <pt x="600" y="200" on="1"/>
        <pt x="545" y="107" on="0"/>
        <pt x="455" y="52" on="1"/>
        <pt x="364" y="-4" on="0"/>
        <pt x="270" y="-4" on="1"/>
        <pt x="189" y="-4" on="0"/>
        <pt x="131" y="16" on="1"/>
        <pt x="76" y="35" on="0"/>
        <pt x="22" y="95" on="1"/>
        <pt x="192" y="267" on="1"/>
        <pt x="204" y="250" on="0"/>
        <pt x="230" y="238" on="1"/>
        <pt x="258" y="225" on="0"/>
        <pt x="282" y="225" on="1"/>
        <pt x="324" y="225" on="0"/>
        <pt x="356" y="249" on="1"/>
        <pt x="398" y="336" on="1"/>
        <pt x="496" y="1073" on="1"/>
        <pt x="1052" y="1074" on="1"/>
      </contour>
    </TTGlyph>
    <TTGlyph name="afii10078" xMin="63" yMin="0" xMax="1267" yMax="1077">
      <contour>
        <pt x="63" y="0" on="1"/>
        <pt x="63" y="1077" on="1"/>
        <pt x="404" y="1077" on="1"/>
        <pt x="662" y="314" on="1"/>
        <pt x="926" y="1077" on="1"/>
        <pt x="1267" y="1077" on="1"/>
        <pt x="1267" y="0" on="1"/>
        <pt x="998" y="0" on="1"/>
        <pt x="998" y="739" on="1"/>
        <pt x="763" y="0" on="1"/>
        <pt x="563" y="0" on="1"/>
        <pt x="331" y="731" on="1"/>
        <pt x="331" y="0" on="1"/>
      </contour>
    </TTGlyph>
    <TTGlyph name="afii10079" xMin="115" yMin="0" xMax="1018" yMax="1074">
      <contour>
        <pt x="119" y="1074" on="1"/>
        <pt x="387" y="1074" on="1"/>
        <pt x="383" y="665" on="1"/>
        <pt x="745" y="665" on="1"/>
        <pt x="749" y="1074" on="1"/>
        <pt x="1018" y="1074" on="1"/>
        <pt x="1014" y="0" on="1"/>
        <pt x="745" y="0" on="1"/>
        <pt x="745" y="426" on="1"/>
        <pt x="383" y="426" on="1"/>
        <pt x="383" y="0" on="1"/>
        <pt x="115" y="0" on="1"/>
      </contour>
    </TTGlyph>
    <TTGlyph name="afii10080" xMin="92" yMin="-29" xMax="1036" yMax="1100">
      <contour>
        <pt x="344" y="537" on="1"/>
        <pt x="344" y="206" on="0"/>
        <pt x="788" y="206" on="0"/>
        <pt x="788" y="537" on="1"/>
        <pt x="788" y="866" on="0"/>
        <pt x="344" y="866" on="0"/>
      </contour>
      <contour>
        <pt x="92" y="537" on="1"/>
        <pt x="92" y="797" on="0"/>
        <pt x="216" y="948" on="1"/>
        <pt x="341" y="1100" on="0"/>
        <pt x="565" y="1100" on="1"/>
        <pt x="790" y="1100" on="0"/>
        <pt x="913" y="949" on="1"/>
        <pt x="1036" y="797" on="0"/>
        <pt x="1036" y="277" on="0"/>
        <pt x="790" y="-29" on="0"/>
        <pt x="565" y="-29" on="1"/>
        <pt x="339" y="-29" on="0"/>
        <pt x="216" y="122" on="1"/>
        <pt x="92" y="275" on="0"/>
      </contour>
    </TTGlyph>
    <TTGlyph name="afii10081" xMin="119" yMin="-1" xMax="942" yMax="1074">
      <contour>
        <pt x="119" y="1073" on="1"/>
        <pt x="942" y="1074" on="1"/>
        <pt x="942" y="0" on="1"/>
        <pt x="673" y="0" on="1"/>
        <pt x="673" y="834" on="1"/>
        <pt x="387" y="834" on="1"/>
        <pt x="386" y="-1" on="1"/>
        <pt x="119" y="-1" on="1"/>
      </contour>
    </TTGlyph>
    <TTGlyph name="afii10082" xMin="119" yMin="-426" xMax="1063" yMax="1100">
      <contour>
        <pt x="377" y="-426" on="1"/>
        <pt x="119" y="-426" on="1"/>
        <pt x="119" y="1073" on="1"/>
        <pt x="377" y="1073" on="1"/>
        <pt x="377" y="917" on="1"/>
        <pt x="429" y="999" on="0"/>
        <pt x="513" y="1050" on="1"/>
        <pt x="595" y="1100" on="0"/>
        <pt x="684" y="1100" on="1"/>
        <pt x="779" y="1100" on="0"/>
        <pt x="929" y="1008" on="0"/>
        <pt x="1017" y="852" on="0"/>
        <pt x="1040" y="750" on="1"/>
        <pt x="1063" y="647" on="0"/>
        <pt x="1063" y="417" on="0"/>
        <pt x="1040" y="316" on="1"/>
        <pt x="1017" y="217" on="0"/>
        <pt x="972" y="138" on="1"/>
        <pt x="928" y="62" on="0"/>
        <pt x="853" y="16" on="1"/>
        <pt x="781" y="-28" on="0"/>
        <pt x="684" y="-28" on="1"/>
        <pt x="600" y="-28" on="0"/>
        <pt x="514" y="24" on="1"/>
        <pt x="429" y="76" on="0"/>
        <pt x="377" y="157" on="1"/>
      </contour>
      <contour>
        <pt x="803" y="537" on="1"/>
        <pt x="803" y="627" on="0"/>
        <pt x="784" y="691" on="1"/>
        <pt x="765" y="756" on="0"/>
        <pt x="733" y="794" on="1"/>
        <pt x="703" y="829" on="0"/>
        <pt x="666" y="848" on="1"/>
        <pt x="630" y="866" on="0"/>
        <pt x="591" y="866" on="1"/>
        <pt x="551" y="866" on="0"/>
        <pt x="515" y="850" on="1"/>
        <pt x="478" y="834" on="0"/>
        <pt x="444" y="798" on="1"/>
        <pt x="412" y="765" on="0"/>
        <pt x="390" y="694" on="1"/>
        <pt x="369" y="626" on="0"/>
        <pt x="369" y="537" on="1"/>
        <pt x="369" y="446" on="0"/>
        <pt x="390" y="378" on="1"/>
        <pt x="411" y="309" on="0"/>
        <pt x="444" y="275" on="1"/>
        <pt x="480" y="237" on="0"/>
        <pt x="515" y="222" on="1"/>
        <pt x="551" y="206" on="0"/>
        <pt x="591" y="206" on="1"/>
        <pt x="628" y="206" on="0"/>
        <pt x="664" y="227" on="1"/>
        <pt x="701" y="249" on="0"/>
        <pt x="732" y="287" on="1"/>
        <pt x="765" y="328" on="0"/>
        <pt x="803" y="456" on="0"/>
      </contour>
    </TTGlyph>
    <TTGlyph name="afii10083" xMin="86" yMin="-29" xMax="979" yMax="1100">
      <contour>
        <pt x="766" y="756" on="1"/>
        <pt x="702" y="870" on="0"/>
        <pt x="586" y="870" on="1"/>
        <pt x="487" y="870" on="0"/>
        <pt x="418" y="774" on="1"/>
        <pt x="348" y="677" on="0"/>
        <pt x="348" y="532" on="1"/>
        <pt x="348" y="384" on="0"/>
        <pt x="422" y="294" on="1"/>
        <pt x="497" y="203" on="0"/>
        <pt x="606" y="203" on="1"/>
        <pt x="646" y="203" on="0"/>
        <pt x="672" y="213" on="1"/>
        <pt x="700" y="224" on="0"/>
        <pt x="714" y="239" on="1"/>
        <pt x="726" y="252" on="0"/>
        <pt x="754" y="298" on="0"/>
        <pt x="762" y="315" on="1"/>
        <pt x="976" y="204" on="1"/>
        <pt x="950" y="161" on="0"/>
        <pt x="913" y="119" on="1"/>
        <pt x="881" y="83" on="0"/>
        <pt x="830" y="45" on="1"/>
        <pt x="783" y="10" on="0"/>
        <pt x="726" y="-9" on="1"/>
        <pt x="666" y="-29" on="0"/>
        <pt x="606" y="-29" on="1"/>
        <pt x="367" y="-29" on="0"/>
        <pt x="226" y="124" on="1"/>
        <pt x="86" y="276" on="0"/>
        <pt x="86" y="532" on="1"/>
        <pt x="86" y="785" on="0"/>
        <pt x="227" y="942" on="1"/>
        <pt x="368" y="1100" on="0"/>
        <pt x="586" y="1100" on="1"/>
        <pt x="701" y="1100" on="0"/>
        <pt x="812" y="1036" on="1"/>
        <pt x="920" y="974" on="0"/>
        <pt x="979" y="868" on="1"/>
      </contour>
    </TTGlyph>
    <TTGlyph name="afii10084" xMin="119" yMin="0" xMax="1018" yMax="1074">
      <contour>
        <pt x="119" y="1074" on="1"/>
        <pt x="1018" y="1074" on="1"/>
        <pt x="1018" y="835" on="1"/>
        <pt x="697" y="834" on="1"/>
        <pt x="697" y="0" on="1"/>
        <pt x="429" y="0" on="1"/>
        <pt x="429" y="834" on="1"/>
        <pt x="119" y="835" on="1"/>
      </contour>
    </TTGlyph>
    <TTGlyph name="afii10085" xMin="108" yMin="-465" xMax="1003" yMax="1073">
      <contour>
        <pt x="1003" y="-29" on="1"/>
        <pt x="1003" y="-109" on="0"/>
        <pt x="963" y="-188" on="1"/>
        <pt x="922" y="-269" on="0"/>
        <pt x="860" y="-328" on="1"/>
        <pt x="794" y="-391" on="0"/>
        <pt x="716" y="-427" on="1"/>
        <pt x="634" y="-465" on="0"/>
        <pt x="555" y="-465" on="1"/>
        <pt x="405" y="-465" on="0"/>
        <pt x="296" y="-395" on="1"/>
        <pt x="186" y="-324" on="0"/>
        <pt x="140" y="-224" on="1"/>
        <pt x="344" y="-112" on="1"/>
        <pt x="364" y="-168" on="0"/>
        <pt x="416" y="-200" on="1"/>
        <pt x="470" y="-233" on="0"/>
        <pt x="549" y="-233" on="1"/>
        <pt x="633" y="-233" on="0"/>
        <pt x="745" y="-139" on="0"/>
        <pt x="745" y="-59" on="1"/>
        <pt x="745" y="161" on="1"/>
        <pt x="699" y="79" on="0"/>
        <pt x="614" y="26" on="1"/>
        <pt x="525" y="-29" on="0"/>
        <pt x="428" y="-29" on="1"/>
        <pt x="279" y="-29" on="0"/>
        <pt x="194" y="114" on="1"/>
        <pt x="108" y="259" on="0"/>
        <pt x="108" y="535" on="1"/>
        <pt x="108" y="1073" on="1"/>
        <pt x="366" y="1073" on="1"/>
        <pt x="366" y="536" on="1"/>
        <pt x="366" y="456" on="0"/>
        <pt x="378" y="396" on="1"/>
        <pt x="391" y="329" on="0"/>
        <pt x="406" y="300" on="1"/>
        <pt x="423" y="267" on="0"/>
        <pt x="448" y="243" on="1"/>
        <pt x="470" y="222" on="0"/>
        <pt x="522" y="206" on="0"/>
        <pt x="546" y="206" on="1"/>
        <pt x="571" y="206" on="0"/>
        <pt x="598" y="214" on="1"/>
        <pt x="623" y="221" on="0"/>
        <pt x="650" y="244" on="1"/>
        <pt x="678" y="267" on="0"/>
        <pt x="698" y="302" on="1"/>
        <pt x="717" y="334" on="0"/>
        <pt x="731" y="398" on="1"/>
        <pt x="744" y="456" on="0"/>
        <pt x="744" y="537" on="1"/>
        <pt x="744" y="1073" on="1"/>
        <pt x="1003" y="1073" on="1"/>
        <pt x="1003" y="29" on="1"/>
      </contour>
    </TTGlyph>
    <TTGlyph name="afii10086" xMin="92" yMin="-396" xMax="1036" yMax="1454">
      <contour>
        <pt x="92" y="537" on="1"/>
        <pt x="92" y="797" on="0"/>
        <pt x="216" y="948" on="1"/>
        <pt x="304" y="1056" on="0"/>
        <pt x="441" y="1087" on="1"/>
        <pt x="441" y="1454" on="1"/>
        <pt x="684" y="1454" on="1"/>
        <pt x="684" y="1088" on="1"/>
        <pt x="823" y="1058" on="0"/>
        <pt x="913" y="949" on="1"/>
        <pt x="1036" y="797" on="0"/>
        <pt x="1036" y="277" on="0"/>
        <pt x="913" y="124" on="1"/>
        <pt x="824" y="14" on="0"/>
        <pt x="684" y="-17" on="1"/>
        <pt x="684" y="-396" on="1"/>
        <pt x="441" y="-396" on="1"/>
        <pt x="441" y="-16" on="1"/>
        <pt x="303" y="16" on="0"/>
        <pt x="216" y="122" on="1"/>
        <pt x="92" y="275" on="0"/>
      </contour>
      <contour>
        <pt x="441" y="828" on="1"/>
        <pt x="344" y="755" on="0"/>
        <pt x="344" y="537" on="1"/>
        <pt x="344" y="317" on="0"/>
        <pt x="441" y="244" on="1"/>
      </contour>
      <contour>
        <pt x="684" y="833" on="1"/>
        <pt x="684" y="239" on="1"/>
        <pt x="788" y="311" on="0"/>
        <pt x="788" y="537" on="1"/>
        <pt x="788" y="762" on="0"/>
      </contour>
    </TTGlyph>
    <TTGlyph name="afii10087" xMin="27" yMin="0" xMax="1026" yMax="1073">
      <contour>
        <pt x="1021" y="0" on="1"/>
        <pt x="714" y="0" on="1"/>
        <pt x="524" y="335" on="1"/>
        <pt x="334" y="0" on="1"/>
        <pt x="27" y="0" on="1"/>
        <pt x="368" y="536" on="1"/>
        <pt x="45" y="1073" on="1"/>
        <pt x="335" y="1073" on="1"/>
        <pt x="525" y="743" on="1"/>
        <pt x="712" y="1073" on="1"/>
        <pt x="1026" y="1073" on="1"/>
        <pt x="680" y="545" on="1"/>
      </contour>
    </TTGlyph>
    <TTGlyph name="afii10088" xMin="119" yMin="-228" xMax="1258" yMax="1074">
      <contour>
        <pt x="1258" y="-228" on="1"/>
        <pt x="1018" y="-228" on="1"/>
        <pt x="1018" y="0" on="1"/>
        <pt x="119" y="0" on="1"/>
        <pt x="121" y="1074" on="1"/>
        <pt x="386" y="1074" on="1"/>
        <pt x="387" y="239" on="1"/>
        <pt x="749" y="239" on="1"/>
        <pt x="748" y="1074" on="1"/>
        <pt x="1017" y="1074" on="1"/>
        <pt x="1017" y="240" on="1"/>
        <pt x="1258" y="240" on="1"/>
      </contour>
    </TTGlyph>
    <TTGlyph name="afii10089" xMin="128" yMin="0" xMax="942" yMax="1073">
      <contour>
        <pt x="702" y="1073" on="1"/>
        <pt x="942" y="1073" on="1"/>
        <pt x="942" y="0" on="1"/>
        <pt x="702" y="0" on="1"/>
        <pt x="702" y="407" on="1"/>
        <pt x="661" y="345" on="0"/>
        <pt x="513" y="265" on="0"/>
        <pt x="419" y="265" on="1"/>
        <pt x="370" y="265" on="0"/>
        <pt x="321" y="286" on="1"/>
        <pt x="274" y="306" on="0"/>
        <pt x="225" y="347" on="1"/>
        <pt x="179" y="385" on="0"/>
        <pt x="153" y="450" on="1"/>
        <pt x="128" y="512" on="0"/>
        <pt x="128" y="590" on="1"/>
        <pt x="128" y="774" on="1"/>
        <pt x="128" y="1073" on="1"/>
        <pt x="369" y="1073" on="1"/>
        <pt x="369" y="770" on="1"/>
        <pt x="369" y="688" on="1"/>
        <pt x="369" y="626" on="0"/>
        <pt x="383" y="542" on="0"/>
        <pt x="398" y="512" on="1"/>
        <pt x="411" y="485" on="0"/>
        <pt x="432" y="469" on="1"/>
        <pt x="452" y="453" on="0"/>
        <pt x="476" y="447" on="1"/>
        <pt x="499" y="441" on="0"/>
        <pt x="563" y="441" on="0"/>
        <pt x="611" y="453" on="0"/>
        <pt x="636" y="470" on="1"/>
        <pt x="659" y="486" on="0"/>
        <pt x="683" y="540" on="0"/>
        <pt x="692" y="585" on="1"/>
        <pt x="702" y="635" on="0"/>
        <pt x="702" y="689" on="1"/>
      </contour>
    </TTGlyph>
    <TTGlyph name="afii10090" xMin="119" yMin="0" xMax="1470" yMax="1075">
      <contour>
        <pt x="647" y="1075" on="1"/>
        <pt x="915" y="1075" on="1"/>
        <pt x="915" y="240" on="1"/>
        <pt x="1201" y="240" on="1"/>
        <pt x="1201" y="1074" on="1"/>
        <pt x="1470" y="1074" on="1"/>
        <pt x="1470" y="0" on="1"/>
        <pt x="119" y="0" on="1"/>
        <pt x="119" y="1074" on="1"/>
        <pt x="386" y="1074" on="1"/>
        <pt x="387" y="239" on="1"/>
        <pt x="645" y="241" on="1"/>
        <pt x="645" y="1075" on="1"/>
      </contour>
    </TTGlyph>
    <TTGlyph name="afii10091" xMin="119" yMin="-228" xMax="1710" yMax="1075">
      <contour>
        <pt x="647" y="1075" on="1"/>
        <pt x="915" y="1075" on="1"/>
        <pt x="915" y="240" on="1"/>
        <pt x="1201" y="240" on="1"/>
        <pt x="1201" y="1074" on="1"/>
        <pt x="1470" y="1074" on="1"/>
        <pt x="1470" y="239" on="1"/>
        <pt x="1710" y="240" on="1"/>
        <pt x="1710" y="-228" on="1"/>
        <pt x="1470" y="-228" on="1"/>
        <pt x="1470" y="0" on="1"/>
        <pt x="119" y="0" on="1"/>
        <pt x="119" y="1074" on="1"/>
        <pt x="386" y="1074" on="1"/>
        <pt x="387" y="239" on="1"/>
        <pt x="645" y="241" on="1"/>
        <pt x="645" y="1075" on="1"/>
      </contour>
    </TTGlyph>
    <TTGlyph name="afii10092" xMin="28" yMin="0" xMax="1126" yMax="1074">
      <contour>
        <pt x="494" y="473" on="1"/>
        <pt x="494" y="178" on="1"/>
        <pt x="655" y="178" on="1"/>
        <pt x="771" y="178" on="0"/>
        <pt x="818" y="221" on="1"/>
        <pt x="866" y="264" on="0"/>
        <pt x="866" y="331" on="1"/>
        <pt x="866" y="473" on="0"/>
        <pt x="655" y="473" on="1"/>
      </contour>
      <contour>
        <pt x="28" y="1074" on="1"/>
        <pt x="494" y="1074" on="1"/>
        <pt x="494" y="834" on="1"/>
        <pt x="494" y="649" on="1"/>
        <pt x="611" y="649" on="1"/>
        <pt x="791" y="648" on="0"/>
        <pt x="894" y="611" on="1"/>
        <pt x="980" y="581" on="0"/>
        <pt x="1032" y="528" on="1"/>
        <pt x="1085" y="474" on="0"/>
        <pt x="1105" y="423" on="1"/>
        <pt x="1126" y="371" on="0"/>
        <pt x="1126" y="325" on="1"/>
        <pt x="1126" y="289" on="0"/>
        <pt x="1118" y="247" on="1"/>
        <pt x="1111" y="209" on="0"/>
        <pt x="1085" y="162" on="1"/>
        <pt x="1059" y="114" on="0"/>
        <pt x="1020" y="81" on="1"/>
        <pt x="980" y="47" on="0"/>
        <pt x="908" y="23" on="1"/>
        <pt x="839" y="0" on="0"/>
        <pt x="742" y="0" on="1"/>
        <pt x="231" y="0" on="1"/>
        <pt x="231" y="834" on="1"/>
        <pt x="28" y="834" on="1"/>
      </contour>
    </TTGlyph>
    <TTGlyph name="afii10093" xMin="52" yMin="0" xMax="1158" yMax="1074">
      <contour>
        <pt x="900" y="1073" on="1"/>
        <pt x="1158" y="1073" on="1"/>
        <pt x="1158" y="0" on="1"/>
        <pt x="900" y="0" on="1"/>
      </contour>
      <contour>
        <pt x="315" y="473" on="1"/>
        <pt x="315" y="178" on="1"/>
        <pt x="401" y="178" on="1"/>
        <pt x="475" y="178" on="0"/>
        <pt x="522" y="221" on="1"/>
        <pt x="570" y="264" on="0"/>
        <pt x="570" y="331" on="1"/>
        <pt x="570" y="473" on="0"/>
        <pt x="401" y="473" on="1"/>
      </contour>
      <contour>
        <pt x="52" y="1074" on="1"/>
        <pt x="315" y="1074" on="1"/>
        <pt x="315" y="649" on="1"/>
        <pt x="357" y="649" on="1"/>
        <pt x="496" y="647" on="0"/>
        <pt x="599" y="611" on="1"/>
        <pt x="685" y="581" on="0"/>
        <pt x="736" y="528" on="1"/>
        <pt x="789" y="474" on="0"/>
        <pt x="809" y="423" on="1"/>
        <pt x="830" y="371" on="0"/>
        <pt x="830" y="325" on="1"/>
        <pt x="830" y="289" on="0"/>
        <pt x="822" y="247" on="1"/>
        <pt x="815" y="209" on="0"/>
        <pt x="789" y="162" on="1"/>
        <pt x="763" y="114" on="0"/>
        <pt x="724" y="81" on="1"/>
        <pt x="684" y="47" on="0"/>
        <pt x="612" y="23" on="1"/>
        <pt x="543" y="0" on="0"/>
        <pt x="446" y="0" on="1"/>
        <pt x="52" y="0" on="1"/>
      </contour>
    </TTGlyph>
    <TTGlyph name="afii10094" xMin="52" yMin="0" xMax="947" yMax="1074">
      <contour>
        <pt x="315" y="473" on="1"/>
        <pt x="315" y="178" on="1"/>
        <pt x="476" y="178" on="1"/>
        <pt x="592" y="178" on="0"/>
        <pt x="639" y="221" on="1"/>
        <pt x="687" y="264" on="0"/>
        <pt x="687" y="331" on="1"/>
        <pt x="687" y="473" on="0"/>
        <pt x="476" y="473" on="1"/>
      </contour>
      <contour>
        <pt x="52" y="1074" on="1"/>
        <pt x="315" y="1074" on="1"/>
        <pt x="315" y="649" on="1"/>
        <pt x="432" y="649" on="1"/>
        <pt x="612" y="648" on="0"/>
        <pt x="715" y="611" on="1"/>
        <pt x="802" y="580" on="0"/>
        <pt x="853" y="528" on="1"/>
        <pt x="906" y="474" on="0"/>
        <pt x="926" y="423" on="1"/>
        <pt x="947" y="371" on="0"/>
        <pt x="947" y="325" on="1"/>
        <pt x="947" y="289" on="0"/>
        <pt x="939" y="247" on="1"/>
        <pt x="932" y="209" on="0"/>
        <pt x="906" y="162" on="1"/>
        <pt x="880" y="114" on="0"/>
        <pt x="841" y="81" on="1"/>
        <pt x="801" y="47" on="0"/>
        <pt x="729" y="23" on="1"/>
        <pt x="660" y="0" on="0"/>
        <pt x="563" y="0" on="1"/>
        <pt x="52" y="0" on="1"/>
      </contour>
    </TTGlyph>
    <TTGlyph name="afii10095" xMin="86" yMin="-29" xMax="979" yMax="1100">
      <contour>
        <pt x="299" y="756" on="1"/>
        <pt x="86" y="868" on="1"/>
        <pt x="144" y="973" on="0"/>
        <pt x="254" y="1036" on="1"/>
        <pt x="365" y="1100" on="0"/>
        <pt x="479" y="1100" on="1"/>
        <pt x="697" y="1100" on="0"/>
        <pt x="979" y="784" on="0"/>
        <pt x="979" y="532" on="1"/>
        <pt x="979" y="277" on="0"/>
        <pt x="697" y="-29" on="0"/>
        <pt x="459" y="-29" on="1"/>
        <pt x="399" y="-29" on="0"/>
        <pt x="339" y="-9" on="1"/>
        <pt x="280" y="10" on="0"/>
        <pt x="234" y="45" on="1"/>
        <pt x="186" y="80" on="0"/>
        <pt x="152" y="119" on="1"/>
        <pt x="115" y="161" on="0"/>
        <pt x="89" y="204" on="1"/>
        <pt x="303" y="315" on="1"/>
        <pt x="314" y="292" on="0"/>
        <pt x="324" y="275" on="1"/>
        <pt x="334" y="259" on="0"/>
        <pt x="352" y="239" on="1"/>
        <pt x="366" y="224" on="0"/>
        <pt x="394" y="213" on="1"/>
        <pt x="420" y="203" on="0"/>
        <pt x="459" y="203" on="1"/>
        <pt x="567" y="203" on="0"/>
        <pt x="642" y="294" on="1"/>
        <pt x="688" y="351" on="0"/>
        <pt x="706" y="426" on="1"/>
        <pt x="357" y="426" on="1"/>
        <pt x="357" y="666" on="1"/>
        <pt x="700" y="666" on="1"/>
        <pt x="682" y="727" on="0"/>
        <pt x="648" y="774" on="1"/>
        <pt x="579" y="870" on="0"/>
        <pt x="479" y="870" on="1"/>
        <pt x="364" y="870" on="0"/>
      </contour>
    </TTGlyph>
    <TTGlyph name="afii10096" xMin="139" yMin="-21" xMax="1474" yMax="1103">
      <contour>
        <pt x="139" y="0" on="1"/>
        <pt x="139" y="1077" on="1"/>
        <pt x="392" y="1077" on="1"/>
        <pt x="392" y="670" on="1"/>
        <pt x="533" y="670" on="1"/>
        <pt x="556" y="848" on="0"/>
        <pt x="653" y="959" on="1"/>
        <pt x="780" y="1103" on="0"/>
        <pt x="1006" y="1103" on="1"/>
        <pt x="1229" y="1103" on="0"/>
        <pt x="1352" y="959" on="1"/>
        <pt x="1474" y="816" on="0"/>
        <pt x="1474" y="559" on="1"/>
        <pt x="1474" y="388" on="0"/>
        <pt x="1419" y="259" on="1"/>
        <pt x="1364" y="129" on="0"/>
        <pt x="1148" y="-21" on="0"/>
        <pt x="1001" y="-21" on="1"/>
        <pt x="1000" y="-21" on="1"/>
        <pt x="852" y="-21" on="0"/>
        <pt x="636" y="129" on="0"/>
        <pt x="581" y="258" on="1"/>
        <pt x="537" y="365" on="0"/>
        <pt x="528" y="493" on="1"/>
        <pt x="392" y="493" on="1"/>
        <pt x="392" y="0" on="1"/>
      </contour>
      <contour>
        <pt x="778" y="559" on="1"/>
        <pt x="778" y="478" on="0"/>
        <pt x="790" y="358" on="0"/>
        <pt x="805" y="307" on="1"/>
        <pt x="821" y="254" on="0"/>
        <pt x="844" y="225" on="1"/>
        <pt x="869" y="194" on="0"/>
        <pt x="947" y="158" on="0"/>
        <pt x="1000" y="158" on="1"/>
        <pt x="1066" y="158" on="0"/>
        <pt x="1154" y="210" on="0"/>
        <pt x="1178" y="263" on="1"/>
        <pt x="1203" y="319" on="0"/>
        <pt x="1213" y="387" on="1"/>
        <pt x="1223" y="454" on="0"/>
        <pt x="1223" y="559" on="1"/>
        <pt x="1223" y="761" on="0"/>
        <pt x="1179" y="843" on="1"/>
        <pt x="1136" y="924" on="0"/>
        <pt x="1006" y="924" on="1"/>
        <pt x="874" y="924" on="0"/>
        <pt x="826" y="841" on="1"/>
        <pt x="778" y="758" on="0"/>
      </contour>
    </TTGlyph>
</ttFont>
